<svg id="Layer_1" data-name="Layer 1" xmlns="http://www.w3.org/2000/svg" width="20" height="20" viewBox="0 0 20 20">
  <path id="Path_4878" data-name="Path 4878" d="M8.59,0H11.4A1.907,1.907,0,0,0,11.8.162,10,10,0,1,1,.3,12.4c-.079-.278-.2-.561-.3-.842V8.439A6.168,6.168,0,0,0,.269,7.75,9.9,9.9,0,0,1,7.892.225C8.128.164,8.359.076,8.59,0ZM6.765,10.343l1.266.117v6.407h2.723V10.382h1.755c.074-.779.144-1.491.224-2.291H10.684c.072-.647-.065-1.424.245-1.7.386-.346,1.14-.278,1.8-.4V3.878c-1.214.11-2.433-.26-3.533.413C7.73,5.181,8.139,6.737,7.946,8.084l-1.181.07Z" fill="#3c5a98"/>
  <path id="Path_4881" data-name="Path 4881" d="M30.14,23.763v-2.2l1.179-.058c.193-1.329-.224-2.9,1.237-3.786,1.1-.674,2.315-.3,3.528-.414v2.113c-.648.121-1.4.054-1.793.4-.309.279-.173,1.057-.244,1.7h2.044c-.078.8-.148,1.513-.224,2.293H34.123v6.481H31.4V23.88Z" transform="translate(-23.371 -13.42)" fill="#f8f9fb"/>
</svg>
