<svg xmlns="http://www.w3.org/2000/svg" width="20" height="20" viewBox="0 0 20 20">
  <g id="google" transform="translate(-0.859)">
    <path id="Path_4670" data-name="Path 4670" d="M25.547,15.827c-.11.288-.234.563-.316.859a9.761,9.761,0,0,1-4.808,6.182q-.989-1.69-1.964-3.393a6.444,6.444,0,0,0,2.59-3.173H17.113c-1.291,0-1.333-.034-1.333-1.374V13.094c0-.611.227-.8.762-.8h8.126c.3,0,.584.405.879.625Z" transform="translate(-4.688 -4.286)" fill="#177ee5"/>
    <path id="Path_4671" data-name="Path 4671" d="M2.33,5.154A9.692,9.692,0,0,1,8.581.346C8.9.257,9.206.14,9.515.03h1.6V3.986A6.608,6.608,0,0,0,5.689,7.077Z" transform="translate(-0.002 -0.009)" fill="#fe4d28"/>
    <path id="Path_4672" data-name="Path 4672" d="M15.12,3.977V0h1.436a34.956,34.956,0,0,1,4.183,1.724c1.752.975,1.71,1.216.3,2.631s-1.291,1.25-2.967.453a18.353,18.353,0,0,0-2.947-.831Z" transform="translate(-4.367)" fill="#d94123"/>
    <path id="Path_4673" data-name="Path 4673" d="M1.661,7.49,5.019,9.413a6.676,6.676,0,0,0,0,6.312l-3.345,1.93A9.342,9.342,0,0,1,.658,9.695a15.455,15.455,0,0,1,1-2.2Z" transform="translate(0.667 -2.564)" fill="#fed403"/>
    <path id="Path_4674" data-name="Path 4674" d="M2.35,21.41,5.7,19.48a6.622,6.622,0,0,0,5.419,3.1v3.95C7.6,26.63,3.593,24.3,2.35,21.41Z" transform="translate(-0.009 -6.537)" fill="#15b349"/>
    <path id="Path_4675" data-name="Path 4675" d="M15.12,27.548V23.612l3.16-.852q.982,1.7,1.964,3.393a8.469,8.469,0,0,1-5.124,1.394Z" transform="translate(-4.324 -7.564)" fill="#119a40"/>
  </g>
</svg>
