<svg xmlns="http://www.w3.org/2000/svg" width="35" height="35" viewBox="0 0 35 35">
  <g id="Group_788" data-name="Group 788" transform="translate(-1525 -2533)">
    <g id="Ellipse_228" data-name="Ellipse 228" transform="translate(1525 2533)" fill="none" stroke="#537895" stroke-width="1">
      <circle cx="17.5" cy="17.5" r="17.5" stroke="none"/>
      <circle cx="17.5" cy="17.5" r="17" fill="none"/>
    </g>
    <g id="insta" transform="translate(1529.59 2537.508)">
      <path id="Path_3191" data-name="Path 3191" d="M21.9,13v5.608a3.56,3.56,0,0,1-2.987,3.331,5.356,5.356,0,0,1-.715.05H7.617a3.533,3.533,0,0,1-3.386-2.112,3.207,3.207,0,0,1-.321-1.43V7.423a3.537,3.537,0,0,1,3-3.363A5.356,5.356,0,0,1,7.649,4H18.187a3.617,3.617,0,0,1,3.721,3.721v5.269Zm-3.583,0A5.4,5.4,0,1,0,12.9,18.4,5.4,5.4,0,0,0,18.315,13Zm.458-4.5a1.345,1.345,0,1,0-.014,0Z" transform="translate(0 0)" fill="#537895"/>
      <path id="Path_3194" data-name="Path 3194" d="M19.349,15.81a3.616,3.616,0,1,1-2.566,1.054,3.625,3.625,0,0,1,2.566-1.054Z" transform="translate(-6.431 -6.436)" fill="#537895"/>
    </g>
  </g>
</svg>
