<svg xmlns="http://www.w3.org/2000/svg" width="35" height="35" viewBox="0 0 35 35">
  <g id="Group_790" data-name="Group 790" transform="translate(-1670.167 -2538.167)">
    <g id="Path_4761" data-name="Path 4761" transform="translate(1670.167 2538.167)" fill="none">
      <path d="M17.5,0A17.5,17.5,0,1,1,0,17.5,17.5,17.5,0,0,1,17.5,0Z" stroke="none"/>
      <path d="M 17.5 1 C 13.09268951416016 1 8.949180603027344 2.716300964355469 5.832740783691406 5.832740783691406 C 2.716300964355469 8.949180603027344 1 13.09268951416016 1 17.5 C 1 21.90731048583984 2.716300964355469 26.05081939697266 5.832740783691406 29.16725921630859 C 8.949180603027344 32.28369903564453 13.09268951416016 34 17.5 34 C 21.90731048583984 34 26.05081939697266 32.28369903564453 29.16725921630859 29.16725921630859 C 32.28369903564453 26.05081939697266 34 21.90731048583984 34 17.5 C 34 13.09268951416016 32.28369903564453 8.949180603027344 29.16725921630859 5.832740783691406 C 26.05081939697266 2.716300964355469 21.90731048583984 1 17.5 1 M 17.5 0 C 27.16497993469238 0 35 7.835020065307617 35 17.5 C 35 27.16497993469238 27.16497993469238 35 17.5 35 C 7.835020065307617 35 0 27.16497993469238 0 17.5 C 0 7.835020065307617 7.835020065307617 0 17.5 0 Z" stroke="none" fill="#537895"/>
    </g>
    <g id="linkdi" transform="translate(1678.667 2546.667)">
      <path id="Path_1706" data-name="Path 1706" d="M2.627,0a.969.969,0,0,0,.208.137A2.145,2.145,0,0,1,4.249,2.264a2.187,2.187,0,0,1-1.67,1.949A2.086,2.086,0,0,1,.267,3.138C.19,3.007.089,2.888,0,2.763V1.521A3.037,3.037,0,0,1,1.658,0Z" transform="translate(0 0)" fill="#537895"/>
      <path id="Path_1708" data-name="Path 1708" d="M14.227,21.485H10.59V9.761h3.488V11.3a4.237,4.237,0,0,1,4.16-1.842,3.648,3.648,0,0,1,3.631,3.565,28.935,28.935,0,0,1,.143,2.971v5.532h-3.7V18.954c0-1.5,0-2.971-.077-4.487a1.658,1.658,0,0,0-1.593-1.783,1.879,1.879,0,0,0-2.258,1.527,7.987,7.987,0,0,0-.149,1.64C14.221,17.682,14.227,19.548,14.227,21.485Z" transform="translate(-4.012 -3.527)" fill="#537895"/>
      <path id="Path_1709" data-name="Path 1709" d="M4.163,21.724H.55V10H4.163Z" transform="translate(-0.223 -3.766)" fill="#537895"/>
    </g>
  </g>
</svg>
