<svg xmlns="http://www.w3.org/2000/svg" width="28" height="14" viewBox="0 0 28 14">
  <g id="Layer_1" data-name="Layer 1" transform="translate(29.141 71.03) rotate(-180)">
    <path id="Path_4701" data-name="Path 4701" d="M28.105,12.8a5.979,5.979,0,0,1-1.731.663H3.968l3.026,3.269c.239.25.605.457.661.736a2.413,2.413,0,0,1,0,1.59,1.354,1.354,0,0,1-1.407,0c-1.97-1.914-3.856-3.917-5.756-5.89a1.153,1.153,0,0,1,0-1.723L5.981,5.733a1.047,1.047,0,0,1,.786-.472,1.031,1.031,0,0,1,.846.34c.591.6.422,1.222-.127,1.8L3.9,11.2H26.332a5.244,5.244,0,0,1,1.773.692Z" transform="translate(1.036 51.773)" fill="#537895"/>
  </g>
</svg>
