<svg xmlns="http://www.w3.org/2000/svg" width="42" height="48" viewBox="0 0 42 48">
  <path id="_8b02cac98bc7cc849c266791632d6bd5" data-name="8b02cac98bc7cc849c266791632d6bd5" d="M22.311,48.38V47.1h-.693a.642.642,0,0,1,0-1.28h.693V43.26H35.186v2.56h.693a.642.642,0,0,1,0,1.28h-.693v1.28h.693a.642.642,0,0,1,0,1.28h-.693a7.316,7.316,0,0,1-12.875,0h-.693a.642.642,0,0,1,0-1.28Zm1.287,0H33.9V47.1H23.6Zm.219,1.28a6.468,6.468,0,0,0,.866.984,6.03,6.03,0,0,0,8.129,0,6.387,6.387,0,0,0,.865-.984H23.819ZM23.6,45.82H33.9V44.54H23.6ZM18.624,8.47a.639.639,0,0,1,.3-.857.646.646,0,0,1,.862.294L21.79,12a.638.638,0,0,1-.295.856.645.645,0,0,1-.861-.293l-2.01-4.1Zm18.088-.563a.646.646,0,0,1,.862-.294.639.639,0,0,1,.3.857l-2.01,4.1A.647.647,0,0,1,35,12.86.639.639,0,0,1,34.7,12l2.011-4.1ZM27.6,6.14a.644.644,0,0,1,1.287,0v4.1a.644.644,0,0,1-1.287,0Zm-15.9,7.616a.638.638,0,0,1,.01-.906.647.647,0,0,1,.912.01l3.014,3.072a.638.638,0,0,1-.01.906.647.647,0,0,1-.911-.01ZM7.989,21.1a.64.64,0,1,1,.319-1.239l4.019,1.024a.64.64,0,1,1-.319,1.239Zm41.032,0L45,22.12a.64.64,0,0,1-.319-1.239L48.7,19.856a.64.64,0,0,1,.319,1.239Zm-5.158-8.234a.645.645,0,0,1,1.1.264.638.638,0,0,1-.18.63L41.77,16.827a.646.646,0,0,1-.91.012.637.637,0,0,1-.012-.905ZM22.054,41.98c0-7.04-6.18-7.04-6.18-16.091,0-6.441,5.764-12.069,12.875-12.069s12.875,5.628,12.875,12.069c0,9.051-6.18,9.051-6.18,16.091Zm12.16-1.28a11.013,11.013,0,0,1,2.72-6.042l.576-.746a11.35,11.35,0,0,0,2.826-8.023c0-5.8-5.257-10.789-11.587-10.789S17.161,20.092,17.161,25.889a11.35,11.35,0,0,0,2.826,8.023l.576.746a11.013,11.013,0,0,1,2.72,6.042H34.214ZM25.361,18.854a.64.64,0,0,1,.457,1.2,8.521,8.521,0,0,0-5,5.165.643.643,0,0,1-1.215-.421A9.8,9.8,0,0,1,25.361,18.854Z" transform="translate(-7.481 -5.5)" fill="#537895"/>
</svg>
