<svg xmlns="http://www.w3.org/2000/svg" width="48" height="48" viewBox="0 0 48 48">
  <path id="_44c6403879e3f1f922c669d736b993cd" data-name="44c6403879e3f1f922c669d736b993cd" d="M31.333,44V56H30V44H16.435C10.672,44,6,38.593,6,31.922a12.965,12.965,0,0,1,3.431-8.953,13.924,13.924,0,0,1-.3-2.891C9.131,13.407,13.8,8,19.565,8a10.025,10.025,0,0,1,8.347,4.83,9.5,9.5,0,0,1,6.261-2.415,10.243,10.243,0,0,1,8.951,5.865C49.224,16.939,54,22.88,54,30.11,54,37.781,48.627,44,42,44Zm0-1.5H42c5.883,0,10.667-5.538,10.667-12.39,0-6.42-4.22-11.75-9.669-12.336l-.68-.073-.344-.663a8.921,8.921,0,0,0-7.8-5.123,8.255,8.255,0,0,0-5.445,2.1l-1.084.944-.808-1.245A8.721,8.721,0,0,0,19.565,9.5c-5.019,0-9.1,4.726-9.1,10.578a12.264,12.264,0,0,0,.264,2.543l.18.849-.568.6a11.376,11.376,0,0,0-3.007,7.855c0,5.853,4.084,10.578,9.1,10.578H30V26l-6.333,7.125-1-1.125,8-9,8,9-1,1.125L31.333,26Z" transform="translate(-6 -8)" fill="#537895"/>
</svg>
