<svg id="icon" xmlns="http://www.w3.org/2000/svg" width="63" height="53" viewBox="0 0 63 53">
  <g id="Layer_1" data-name="Layer 1">
    <path id="Path_3243" data-name="Path 3243" d="M39.634,44.617H17.613s-.074-.057-.106-.057a5.047,5.047,0,0,1-4.218-5.168c.049-8.462,0-16.915,0-25.368a4.912,4.912,0,0,1,1.446-3.689,4.99,4.99,0,0,1,3.712-1.447H38.784a5.106,5.106,0,0,1,1.169.089,4.876,4.876,0,0,1,3.956,4.941v25.62A4.931,4.931,0,0,1,40.027,44.5ZM28.624,16.044H21.839a1.336,1.336,0,0,0-1.09.551,1.314,1.314,0,0,0-.177,1.2,1.439,1.439,0,0,0,1.471.917H35.122a2.471,2.471,0,0,0,.425,0,1.332,1.332,0,1,0-.319-2.645Zm-.041,13.4H21.79a1.3,1.3,0,0,0-1.267,1.128,1.321,1.321,0,0,0,.817,1.436,2.544,2.544,0,0,0,.817.1H35.065a3.113,3.113,0,0,0,.548-.041,1.33,1.33,0,0,0-.327-2.637Zm.049-3.586h6.7a1.352,1.352,0,0,0,1.255-.635,1.33,1.33,0,0,0,0-1.4,1.352,1.352,0,0,0-1.255-.635H21.864a1.294,1.294,0,0,0-1.112.584,1.242,1.242,0,0,0-.1,1.347,1.309,1.309,0,0,0,1.259.746Zm-.049,10.7H21.937a1.352,1.352,0,0,0-1.255.635,1.33,1.33,0,0,0,0,1.4,1.352,1.352,0,0,0,1.255.635H35.253a1.425,1.425,0,0,0,.417,0,1.347,1.347,0,1,0-.36-2.669Z" transform="translate(-13.285 -8.885)" fill="#fff"/>
    <path id="Path_3245" data-name="Path 3245" d="M30.2,17.708h6.594a1.36,1.36,0,0,1,.318,2.7,2.421,2.421,0,0,1-.44,0H23.643a1.432,1.432,0,0,1-1.49-.936,1.348,1.348,0,0,1,.177-1.216,1.323,1.323,0,0,1,1.085-.558h4.071Z" transform="translate(-14.858 -10.556)" fill="#537895"/>
    <path id="Path_3246" data-name="Path 3246" d="M30.163,34.229h6.676a1.347,1.347,0,0,1,.326,2.669,3.052,3.052,0,0,1-.545.041H23.764a2.5,2.5,0,0,1-.814-.1,1.34,1.34,0,0,1-.814-1.453A1.3,1.3,0,0,1,23.4,34.246h2.263Z" transform="translate(-14.865 -13.688)" fill="#537895"/>
    <path id="Path_3247" data-name="Path 3247" d="M30.2,29.219H23.519a1.3,1.3,0,0,1-1.254-.755,1.357,1.357,0,0,1,1.2-1.954H36.911a1.34,1.34,0,0,1,1.25.643,1.365,1.365,0,0,1,0,1.415,1.34,1.34,0,0,1-1.25.643C34.656,29.227,32.426,29.219,30.2,29.219Z" transform="translate(-14.863 -12.225)" fill="#537895"/>
    <path id="Path_3248" data-name="Path 3248" d="M30.165,42.99h6.684a1.347,1.347,0,0,1,.358,2.661,1.4,1.4,0,0,1-.415,0H23.579a1.34,1.34,0,0,1-1.25-.643,1.365,1.365,0,0,1,0-1.415,1.34,1.34,0,0,1,1.25-.643Z" transform="translate(-14.867 -15.341)" fill="#537895"/>
  </g>
  <g id="Layer_1-2" data-name="Layer 1" transform="translate(18.322 17.268)">
    <path id="Path_3251" data-name="Path 3251" d="M35.3,39.048H18.765a5.538,5.538,0,0,1-5.641-4.4,6.465,6.465,0,0,1-.137-1.457V9.23a5.6,5.6,0,0,1,5.881-5.874h32.9a5.579,5.579,0,0,1,5.888,5.833q0,12.058,0,24.15A5.558,5.558,0,0,1,53,39a8.052,8.052,0,0,1-1.374.076ZM53.1,24.7a2.522,2.522,0,0,0,.041-.309V9.017c0-.818-.426-1.2-1.305-1.2H18.792c-.948,0-1.374.392-1.374,1.333V29.443a1.842,1.842,0,0,0,.034.433l.117.055a4.624,4.624,0,0,1,.357-.447l5.544-5.551a3.889,3.889,0,0,1,3.827-1.12A4,4,0,0,1,29.283,24l2.5,2.549.5-.591,7.6-9.11a3.934,3.934,0,0,1,6.444-.076L47.9,18.6Z" transform="translate(-12.98 -3.347)" fill="#fff"/>
    <path id="Path_3252" data-name="Path 3252" d="M55.141,26.741l-5.208-6.073L48.366,18.84a3.934,3.934,0,0,0-6.444.076L34.364,28l-.5.591-2.5-2.549a4,4,0,0,0-1.986-1.189,3.889,3.889,0,0,0-3.827,1.12l-5.544,5.551a4.624,4.624,0,0,0-.357.447l-.124-.027c0-.144-.034-.289-.034-.433V11.193c0-.941.392-1.333,1.374-1.333H53.911c.879,0,1.305.378,1.305,1.2V26.431A2.52,2.52,0,0,1,55.141,26.741ZM26.161,21a4.459,4.459,0,1,0-4.445-4.466A4.459,4.459,0,0,0,26.161,21Z" transform="translate(-15.017 -5.385)" fill="#537895"/>
    <path id="Path_3253" data-name="Path 3253" d="M27.181,22.008a4.459,4.459,0,1,1,4.486-4.418,4.459,4.459,0,0,1-4.486,4.418Z" transform="translate(-16.037 -6.396)" fill="#fff"/>
  </g>
</svg>
