<svg id="icon" xmlns="http://www.w3.org/2000/svg" width="53" height="58" viewBox="0 0 53 58">
  <g id="Layer_1" data-name="Layer 1">
    <path id="Path_3243" data-name="Path 3243" d="M43.54,49.914H18.255s-.084-.065-.122-.065a5.8,5.8,0,0,1-4.843-5.934c.056-9.716,0-19.422,0-29.129a5.641,5.641,0,0,1,1.66-4.236A5.73,5.73,0,0,1,19.212,8.89H42.564a5.862,5.862,0,0,1,1.342.1,5.6,5.6,0,0,1,4.543,5.673q0,8.244,0,16.488v12.93a5.662,5.662,0,0,1-4.458,5.7ZM30.9,17.106h-7.79a1.534,1.534,0,0,0-1.251.633,1.509,1.509,0,0,0-.2,1.379,1.653,1.653,0,0,0,1.689,1.053H38.359a2.837,2.837,0,0,0,.488,0,1.529,1.529,0,1,0-.366-3.037Zm-.047,15.389h-7.8A1.488,1.488,0,0,0,21.6,33.789a1.517,1.517,0,0,0,.939,1.649,2.921,2.921,0,0,0,.939.112h14.82a3.574,3.574,0,0,0,.629-.047,1.527,1.527,0,0,0-.375-3.027Zm.056-4.117h7.7a1.552,1.552,0,0,0,1.441-.73,1.527,1.527,0,0,0,0-1.606,1.552,1.552,0,0,0-1.441-.73H23.135a1.486,1.486,0,0,0-1.276.671,1.426,1.426,0,0,0-.113,1.546,1.5,1.5,0,0,0,1.445.857Zm-.056,12.287H23.22a1.552,1.552,0,0,0-1.441.73,1.527,1.527,0,0,0,0,1.606,1.552,1.552,0,0,0,1.441.73h15.29a1.636,1.636,0,0,0,.479,0,1.546,1.546,0,1,0-.413-3.065Z" transform="translate(-13.285 -8.885)" fill="#fff"/>
    <path id="Path_3245" data-name="Path 3245" d="M31.4,17.709h7.572a1.562,1.562,0,0,1,.365,3.1,2.781,2.781,0,0,1-.5,0H23.875a1.644,1.644,0,0,1-1.711-1.075,1.548,1.548,0,0,1,.2-1.4,1.52,1.52,0,0,1,1.246-.641h4.674Z" transform="translate(-13.787 -9.497)" fill="#537895"/>
    <path id="Path_3246" data-name="Path 3246" d="M31.355,34.23h7.665a1.547,1.547,0,0,1,.374,3.064,3.5,3.5,0,0,1-.626.047H24.008a2.865,2.865,0,0,1-.935-.113,1.539,1.539,0,0,1-.935-1.669,1.491,1.491,0,0,1,1.449-1.311h2.6Z" transform="translate(-13.789 -10.644)" fill="#537895"/>
    <path id="Path_3247" data-name="Path 3247" d="M31.4,29.621H23.727a1.494,1.494,0,0,1-1.44-.867,1.558,1.558,0,0,1,1.384-2.244H39.105a1.539,1.539,0,0,1,1.435.738,1.567,1.567,0,0,1,0,1.625,1.539,1.539,0,0,1-1.435.738C36.516,29.631,33.954,29.621,31.4,29.621Z" transform="translate(-13.789 -10.108)" fill="#537895"/>
    <path id="Path_3248" data-name="Path 3248" d="M31.356,43h7.674a1.547,1.547,0,0,1,.411,3.055,1.6,1.6,0,0,1-.477,0H23.794a1.538,1.538,0,0,1-1.435-.738,1.567,1.567,0,0,1,0-1.625,1.538,1.538,0,0,1,1.435-.738Z" transform="translate(-13.79 -11.249)" fill="#537895"/>
  </g>
  <g id="Layer_1-2" data-name="Layer 1" transform="translate(17.832 14.459)">
    <path id="Path_3236" data-name="Path 3236" d="M13.935,28.888V11.747a4.27,4.27,0,0,1,2.656-4.223,4.759,4.759,0,0,1,1.844-.356q8.555-.037,17.1,0a1.031,1.031,0,0,1,.661.274q6.333,6.237,12.64,12.519a.962.962,0,0,1,.258.624V46.247a4.277,4.277,0,0,1-1.274,3.192,4.359,4.359,0,0,1-3.227,1.249H18.435A4.335,4.335,0,0,1,13.928,46.1Q13.928,37.477,13.935,28.888ZM33.751,11.7v10.6h10.7ZM28.085,42.043q1.7.085,3.4,0c2.644-.281,3.959-1.466,4.287-3.824.359-2.595-.951-4.516-3.525-4.8a35.709,35.709,0,0,0-3.777,0c-.346,0-.422.15-.422.468v4.541Zm-5.6-2.988A18.844,18.844,0,0,0,25,38.618a2.587,2.587,0,0,0,1.807-2.913,2.4,2.4,0,0,0-2.235-2.289c-1.177-.131-2.386,0-3.582-.037-.4,0-.472.175-.472.53v8.046h1.945Zm19.98-4.123V33.347H37.2v8.639h1.951V38.506h3.1V36.9h-3.1V34.932Z" transform="translate(-13.926 -7.15)" fill="#fb0e0e"/>
    <path id="Path_3237" data-name="Path 3237" d="M45.42,14.45,56.166,25.2H45.42Z" transform="translate(-25.66 -9.835)" fill="#fb0e0e" stroke="#fff" stroke-width="1"/>
    <path id="Path_3238" data-name="Path 3238" d="M36.45,57.954v-8.3c0-.322.076-.474.424-.474a35.533,35.533,0,0,1,3.793,0c2.585.291,3.9,2.238,3.54,4.867-.329,2.389-1.65,3.59-4.3,3.875a34.01,34.01,0,0,1-3.451.032Zm2.016-1.536c1.346.095,2.529,0,3.268-1.315a3.66,3.66,0,0,0-.234-3.666,2.952,2.952,0,0,0-3.034-.714Z" transform="translate(-22.289 -23.033)" fill="#fff"/>
    <path id="Path_3239" data-name="Path 3239" d="M26.413,54.952v2.971H24.46V49.768c0-.36.076-.544.474-.537a32.465,32.465,0,0,1,3.6.038,2.421,2.421,0,0,1,2.244,2.32,2.623,2.623,0,0,1-1.814,2.952A18.768,18.768,0,0,1,26.413,54.952Zm0-1.561a10.985,10.985,0,0,0,1.669-.329,1.176,1.176,0,0,0,.689-1.315,1.049,1.049,0,0,0-.809-1.03,4.735,4.735,0,0,0-1.264-.095.436.436,0,0,0-.284.316c-.013.752,0,1.5,0,2.453Z" transform="translate(-17.835 -23.057)" fill="#fff"/>
    <path id="Path_3240" data-name="Path 3240" d="M56.2,50.756H52.86v2h3.091v1.625H52.86V57.9H50.9V49.15h5.3Z" transform="translate(-27.643 -23.04)" fill="#fff"/>
    <path id="Path_3241" data-name="Path 3241" d="M39.64,57.259V51.57a2.952,2.952,0,0,1,3.034.714,3.66,3.66,0,0,1,.234,3.666C42.2,57.24,40.986,57.354,39.64,57.259Z" transform="translate(-23.461 -23.862)" fill="#fb0e0e"/>
    <path id="Path_3242" data-name="Path 3242" d="M27.55,54.214V51.761a.436.436,0,0,1,.284-.316,4.735,4.735,0,0,1,1.264.095,1.049,1.049,0,0,1,.79,1.03,1.176,1.176,0,0,1-.689,1.315,10.986,10.986,0,0,1-1.65.329Z" transform="translate(-18.977 -23.838)" fill="#fb0e0e"/>
  </g>
</svg>
