<svg id="icon" xmlns="http://www.w3.org/2000/svg" width="63" height="53" viewBox="0 0 63 53">
  <g id="Layer_1" data-name="Layer 1">
    <path id="Path_3251" data-name="Path 3251" d="M36.11,40.351H18.976a5.74,5.74,0,0,1-5.847-4.565,6.7,6.7,0,0,1-.142-1.51V9.445a5.8,5.8,0,0,1,6.1-6.089h34.1a5.782,5.782,0,0,1,6.1,6.046q0,12.5,0,25.031A5.761,5.761,0,0,1,54.461,40.3a8.346,8.346,0,0,1-1.424.078ZM54.568,25.482a2.614,2.614,0,0,0,.043-.32V9.224c0-.847-.442-1.239-1.353-1.239H19c-.983,0-1.424.406-1.424,1.382V30.4a1.909,1.909,0,0,0,.036.449l.121.057a4.793,4.793,0,0,1,.37-.463l5.747-5.754a4.031,4.031,0,0,1,3.967-1.161,4.145,4.145,0,0,1,2.058,1.232L32.471,27.4l.52-.612,7.876-9.443c1.951-2.343,4.686-2.371,6.68-.078l1.624,1.894Z" transform="translate(-12.98 -3.347)" fill="#fff"/>
    <path id="Path_3252" data-name="Path 3252" d="M56.442,27.357l-5.4-6.3-1.624-1.894c-1.994-2.293-4.729-2.265-6.68.078L34.908,28.66l-.52.612L31.8,26.631A4.145,4.145,0,0,0,29.738,25.4a4.031,4.031,0,0,0-3.967,1.161l-5.747,5.754a4.792,4.792,0,0,0-.37.463l-.128-.028c0-.15-.036-.3-.036-.449V11.242c0-.976.406-1.382,1.424-1.382H55.168c.912,0,1.353.392,1.353,1.239V27.037A2.611,2.611,0,0,1,56.442,27.357ZM26.4,21.4A4.622,4.622,0,1,0,21.8,16.775,4.622,4.622,0,0,0,26.4,21.4Z" transform="translate(-14.854 -5.222)" fill="#537895"/>
    <path id="Path_3253" data-name="Path 3253" d="M27.343,22.333a4.622,4.622,0,1,1,4.65-4.579,4.622,4.622,0,0,1-4.65,4.579Z" transform="translate(-15.792 -6.152)" fill="#fff"/>
  </g>
  <g id="Layer_1-2" data-name="Layer 1" transform="translate(31.254 15.963)">
    <path id="Path_3243" data-name="Path 3243" d="M40.6,45.922H17.771s-.076-.059-.11-.059a5.232,5.232,0,0,1-4.372-5.356c.051-8.77,0-17.533,0-26.295a5.092,5.092,0,0,1,1.5-3.823,5.172,5.172,0,0,1,3.848-1.5h21.08a5.292,5.292,0,0,1,1.212.092,5.054,5.054,0,0,1,4.1,5.121V40.658A5.111,5.111,0,0,1,41,45.8ZM29.184,16.306H22.152a1.384,1.384,0,0,0-1.129.572,1.362,1.362,0,0,0-.184,1.245,1.492,1.492,0,0,0,1.525.95H35.919a2.561,2.561,0,0,0,.441,0,1.381,1.381,0,1,0-.33-2.741ZM29.141,30.2H22.1a1.343,1.343,0,0,0-1.313,1.169,1.369,1.369,0,0,0,.847,1.488,2.637,2.637,0,0,0,.847.1H35.86a3.227,3.227,0,0,0,.568-.042,1.379,1.379,0,0,0-.339-2.733Zm.051-3.717H36.14a1.4,1.4,0,0,0,1.3-.659,1.379,1.379,0,0,0,0-1.449,1.4,1.4,0,0,0-1.3-.659H22.177a1.341,1.341,0,0,0-1.152.605,1.287,1.287,0,0,0-.1,1.4,1.357,1.357,0,0,0,1.3.774Zm-.051,11.091H22.253a1.4,1.4,0,0,0-1.3.659,1.379,1.379,0,0,0,0,1.449,1.4,1.4,0,0,0,1.3.659h13.8a1.477,1.477,0,0,0,.432,0,1.4,1.4,0,1,0-.373-2.767Z" transform="translate(-13.285 -8.885)" fill="#fff"/>
    <path id="Path_3245" data-name="Path 3245" d="M30.493,17.708h6.835a1.41,1.41,0,0,1,.329,2.8,2.51,2.51,0,0,1-.456,0H23.7a1.484,1.484,0,0,1-1.544-.97,1.4,1.4,0,0,1,.183-1.26,1.372,1.372,0,0,1,1.125-.578h4.219Z" transform="translate(-14.594 -10.295)" fill="#537895"/>
    <path id="Path_3246" data-name="Path 3246" d="M30.457,34.229h6.919A1.4,1.4,0,0,1,37.714,37a3.163,3.163,0,0,1-.565.043H23.824a2.586,2.586,0,0,1-.844-.1,1.389,1.389,0,0,1-.844-1.507,1.346,1.346,0,0,1,1.308-1.183H25.79Z" transform="translate(-14.6 -12.938)" fill="#537895"/>
    <path id="Path_3247" data-name="Path 3247" d="M30.5,29.318H23.57a1.349,1.349,0,0,1-1.3-.783,1.406,1.406,0,0,1,1.249-2.026H37.452a1.389,1.389,0,0,1,1.3.667,1.415,1.415,0,0,1,0,1.467,1.389,1.389,0,0,1-1.3.667C35.114,29.327,32.8,29.318,30.5,29.318Z" transform="translate(-14.599 -11.703)" fill="#537895"/>
    <path id="Path_3248" data-name="Path 3248" d="M30.459,42.992h6.928a1.4,1.4,0,0,1,.371,2.758,1.447,1.447,0,0,1-.43,0H23.632a1.389,1.389,0,0,1-1.3-.667,1.415,1.415,0,0,1,0-1.467,1.389,1.389,0,0,1,1.3-.667Z" transform="translate(-14.602 -14.333)" fill="#537895"/>
  </g>
</svg>
