<svg xmlns="http://www.w3.org/2000/svg" width="48" height="48" viewBox="0 0 48 48">
  <path id="_69ab0a5fa14c851a499a0a9fe6f1034d" data-name="69ab0a5fa14c851a499a0a9fe6f1034d" d="M44.915,46.1,42.27,44.573l.755-1.313L45.67,44.79,47.2,42.14l1.309.759-1.526,2.65,2.644,1.529-.755,1.313-2.644-1.529L44.7,49.511l-1.31-.759ZM9.653,34.268a8.815,8.815,0,0,1,4.6-13.564L26.943,9.167,33.2,8l-1.8,6.158-9.012,8.195,16.863,9.754-.03-7.767a19.71,19.71,0,0,1,3.541-11.705,16.625,16.625,0,0,1,2.451-2.755,9.732,9.732,0,0,1,1.162-.913l.462-.294L47.262,9a13.005,13.005,0,0,1,1.151,1.052,20.907,20.907,0,0,1,2.458,3.009,20.475,20.475,0,0,1,3.568,11.264l-.01,17.435a8.786,8.786,0,0,1-8.108,13.727,9.473,9.473,0,0,1-7.474-.581q-.031-.014-24.414-14.118l-.226-.132a9.481,9.481,0,0,1-4.554-6.392Zm2.436,2.2a7.91,7.91,0,0,0,3.088,2.986L39.449,53.5a8.031,8.031,0,0,0,3.753.967L12.447,36.677l-.28-.162-.078-.045ZM21,21.552l9.063-8.241.983-3.356-3.407.637-10.73,9.755A8.245,8.245,0,0,1,21,21.552ZM40.779,32.994q5.081,2.943,11.478,6.64a.75.75,0,0,1,.172.138c.156.11.309.225.456.344q.007-15.746.013-15.8A18.965,18.965,0,0,0,49.591,13.89,19.371,19.371,0,0,0,47.313,11.1q-.276-.279-.565-.544-.261.209-.51.431a15.124,15.124,0,0,0-2.227,2.506,18.248,18.248,0,0,0-3.266,10.848ZM50,20a.689.689,0,1,1,1.373.027l-.15,9.119a.689.689,0,1,1-1.373-.027L50,20ZM20.08,22.782a7.165,7.165,0,0,0-7.15,12.411c.084.05.169.1.255.141q.04.023,31.021,17.955a7.182,7.182,0,0,0,7.237-12.342Q51.411,40.924,20.448,23c-.2-.114-.285-.165-.369-.213Z" transform="translate(-7.989 -8)" fill="#537895"/>
</svg>
