<svg id="icon" xmlns="http://www.w3.org/2000/svg" width="53" height="58" viewBox="0 0 53 58">
  <g id="Layer_1" data-name="Layer 1">
    <path id="Path_3236" data-name="Path 3236" d="M13.934,27.2V11.389A3.938,3.938,0,0,1,16.384,7.5a4.389,4.389,0,0,1,1.7-.328q7.889-.035,15.766,0a.951.951,0,0,1,.61.253q5.84,5.752,11.656,11.545a.887.887,0,0,1,.238.575V43.2a3.944,3.944,0,0,1-1.175,2.944A4.02,4.02,0,0,1,42.2,47.3H18.085a4,4,0,0,1-4.156-4.234Q13.928,35.117,13.934,27.2ZM32.208,11.349v9.779h9.868ZM26.984,39.328q1.566.078,3.135,0c2.438-.259,3.651-1.352,3.953-3.526.331-2.393-.877-4.165-3.251-4.429a32.93,32.93,0,0,0-3.483,0c-.319,0-.389.138-.389.431v4.188Zm-5.166-2.755a17.378,17.378,0,0,0,2.322-.4,2.386,2.386,0,0,0,1.666-2.686,2.212,2.212,0,0,0-2.061-2.111c-1.086-.121-2.2,0-3.3-.035-.366,0-.435.161-.435.489v7.42H21.8Zm18.425-3.8V31.309H35.389v7.967h1.8v-3.21h2.856V34.588H37.189V32.77Z" transform="translate(-13.926 -7.15)" fill="#fb0e0e"/>
    <path id="Path_3237" data-name="Path 3237" d="M45.42,14.45l9.91,9.91H45.42Z" transform="translate(-27.197 -10.195)" fill="#fb0e0e" stroke="#fff" stroke-width="1"/>
    <path id="Path_3238" data-name="Path 3238" d="M36.45,57.268V49.614c0-.3.07-.437.391-.437a32.768,32.768,0,0,1,3.5,0c2.384.268,3.6,2.064,3.264,4.489-.3,2.2-1.521,3.311-3.97,3.573A31.365,31.365,0,0,1,36.45,57.268Zm1.86-1.417c1.242.087,2.332,0,3.014-1.213a3.375,3.375,0,0,0-.216-3.381,2.722,2.722,0,0,0-2.8-.659Z" transform="translate(-23.39 -25.064)" fill="#fff"/>
    <path id="Path_3239" data-name="Path 3239" d="M26.261,54.5v2.74h-1.8v-7.52c0-.332.07-.5.437-.5a29.941,29.941,0,0,1,3.317.035A2.233,2.233,0,0,1,30.284,51.4a2.419,2.419,0,0,1-1.673,2.722,17.309,17.309,0,0,1-2.349.379Zm0-1.44a10.131,10.131,0,0,0,1.539-.3,1.084,1.084,0,0,0,.635-1.213.968.968,0,0,0-.746-.95,4.366,4.366,0,0,0-1.166-.087.4.4,0,0,0-.262.291c-.012.694,0,1.387,0,2.262Z" transform="translate(-18.351 -25.091)" fill="#fff"/>
    <path id="Path_3240" data-name="Path 3240" d="M55.791,50.631H52.707v1.842h2.851v1.5H52.707v3.253H50.9V49.15h4.891Z" transform="translate(-29.453 -25.071)" fill="#fff"/>
    <path id="Path_3241" data-name="Path 3241" d="M39.64,56.8V51.558a2.722,2.722,0,0,1,2.8.659,3.375,3.375,0,0,1,.216,3.381C42,56.787,40.882,56.892,39.64,56.8Z" transform="translate(-24.72 -26.006)" fill="#fb0e0e"/>
    <path id="Path_3242" data-name="Path 3242" d="M27.55,54V51.736a.4.4,0,0,1,.262-.291,4.366,4.366,0,0,1,1.166.087.968.968,0,0,1,.729.95,1.084,1.084,0,0,1-.635,1.213,10.132,10.132,0,0,1-1.521.3Z" transform="translate(-19.644 -25.985)" fill="#fb0e0e"/>
  </g>
  <g id="Layer_1-2" data-name="Layer 1" transform="translate(20.569 20.163)">
    <path id="Path_3243" data-name="Path 3243" d="M41.186,46.722H17.868s-.078-.06-.113-.06a5.345,5.345,0,0,1-4.466-5.472c.052-8.96,0-17.911,0-26.862a5.2,5.2,0,0,1,1.531-3.906,5.284,5.284,0,0,1,3.931-1.532H40.286a5.406,5.406,0,0,1,1.238.094,5.163,5.163,0,0,1,4.189,5.232q0,7.6,0,15.205V41.344A5.222,5.222,0,0,1,41.6,46.6ZM29.527,16.466H22.343a1.414,1.414,0,0,0-1.154.584A1.392,1.392,0,0,0,21,18.322a1.524,1.524,0,0,0,1.558.971H36.408a2.616,2.616,0,0,0,.45,0,1.41,1.41,0,1,0-.338-2.8Zm-.043,14.192H22.291a1.373,1.373,0,0,0-1.342,1.194,1.4,1.4,0,0,0,.866,1.521,2.694,2.694,0,0,0,.866.1H36.348a3.3,3.3,0,0,0,.58-.043,1.408,1.408,0,0,0-.346-2.792Zm.052-3.8h7.1a1.431,1.431,0,0,0,1.329-.673,1.408,1.408,0,0,0,0-1.481,1.431,1.431,0,0,0-1.329-.673H22.369a1.37,1.37,0,0,0-1.177.619,1.315,1.315,0,0,0-.1,1.426,1.386,1.386,0,0,0,1.333.79Zm-.052,11.331H22.447a1.431,1.431,0,0,0-1.329.673,1.408,1.408,0,0,0,0,1.481,1.431,1.431,0,0,0,1.329.673h14.1a1.509,1.509,0,0,0,.441,0,1.426,1.426,0,1,0-.381-2.826Z" transform="translate(-13.285 -8.885)" fill="#fff"/>
    <path id="Path_3245" data-name="Path 3245" d="M30.675,17.708h6.983a1.44,1.44,0,0,1,.336,2.861,2.564,2.564,0,0,1-.466,0H23.735a1.516,1.516,0,0,1-1.578-.991,1.427,1.427,0,0,1,.187-1.287,1.4,1.4,0,0,1,1.149-.591H27.8Z" transform="translate(-14.433 -10.135)" fill="#537895"/>
    <path id="Path_3246" data-name="Path 3246" d="M30.637,34.23h7.069a1.427,1.427,0,0,1,.345,2.826,3.231,3.231,0,0,1-.578.043H23.861a2.642,2.642,0,0,1-.862-.1,1.419,1.419,0,0,1-.862-1.539,1.375,1.375,0,0,1,1.336-1.209h2.4Z" transform="translate(-14.437 -12.479)" fill="#537895"/>
    <path id="Path_3247" data-name="Path 3247" d="M30.679,29.379H23.6a1.378,1.378,0,0,1-1.328-.8,1.437,1.437,0,0,1,1.276-2.069H37.783a1.419,1.419,0,0,1,1.324.681,1.445,1.445,0,0,1,0,1.5,1.419,1.419,0,0,1-1.324.681C35.4,29.387,33.033,29.379,30.679,29.379Z" transform="translate(-14.437 -11.384)" fill="#537895"/>
    <path id="Path_3248" data-name="Path 3248" d="M30.638,42.993h7.077A1.427,1.427,0,0,1,38.1,45.81a1.479,1.479,0,0,1-.44,0H23.665a1.419,1.419,0,0,1-1.324-.681,1.445,1.445,0,0,1,0-1.5,1.419,1.419,0,0,1,1.324-.681Z" transform="translate(-14.439 -13.715)" fill="#537895"/>
  </g>
</svg>
