<svg xmlns="http://www.w3.org/2000/svg" width="13" height="14" viewBox="0 0 13 14">
  <g id="delete" transform="translate(-10.161)">
    <path id="Path_4809" data-name="Path 4809" d="M18.04,0a1.521,1.521,0,0,1,1.113,1.75h2.524c1.021,0,1.469.408,1.479,1.311,0,.329-.018.657,0,.983.031.464-.086.808-.77.779-.074,1.377-.15,2.721-.225,4.063-.07,1.238-.121,2.475-.213,3.708-.07.967-.622,1.4-1.728,1.406H13.11c-1.107,0-1.663-.432-1.726-1.406-.158-2.455-.283-4.911-.423-7.367,0-.109-.019-.217-.032-.367-.709-.01-.8-.416-.757-.924.028-.308,0-.619,0-.928.015-.831.479-1.247,1.415-1.257.811-.01,1.622-.008,2.432-.013a.807.807,0,0,0,.146-.046A1.5,1.5,0,0,1,15.294,0Zm3.332,4.858H11.95c.146,2.575.285,5.1.414,7.632.023.454.239.639.772.639q3.524-.022,7.049,0c.522,0,.765-.169.782-.63.035-.855.1-1.711.146-2.565C21.2,8.248,21.288,6.56,21.373,4.858Zm.782-.931c0-.277-.023-.511,0-.743.053-.427-.124-.6-.63-.566-.538.035-1.081.008-1.621.008H11.794c-.371,0-.673.012-.632.45.026.28,0,.564,0,.854ZM15.207,1.716h2.933c.039-.744-.055-.836-.832-.84h-1.3C15.245.88,15.141.986,15.207,1.716Z" transform="translate(0)" fill="#3a3a3a"/>
    <path id="Path_4813" data-name="Path 4813" d="M35.18,48.258v2.79c0,.386.053.852-.5.852-.506,0-.472-.449-.472-.818V45.448c0-.378-.007-.8.5-.79s.473.45.472.82Q35.172,46.87,35.18,48.258Z" transform="translate(-20.529 -39.869)" fill="#3a3a3a"/>
    <path id="Path_4814" data-name="Path 4814" d="M51.279,48.261V45.353c0-.365.108-.71.51-.639a.8.8,0,0,1,.438.634c.034,1.979.017,3.958.021,5.937,0,.365-.107.71-.51.639-.186-.034-.426-.406-.443-.635C51.252,50.286,51.279,49.269,51.279,48.261Z" transform="translate(-35.098 -39.909)" fill="#3a3a3a"/>
    <path id="Path_4815" data-name="Path 4815" d="M69.386,48.216v2.908c0,.369-.036.74-.5.736-.426,0-.477-.344-.476-.7V45.285c0-.361.078-.685.5-.676s.479.348.476.7C69.382,46.28,69.386,47.248,69.386,48.216Z" transform="translate(-49.731 -39.827)" fill="#3a3a3a"/>
  </g>
</svg>
