<svg xmlns="http://www.w3.org/2000/svg" width="22" height="19.001" viewBox="0 0 22 19.001">
  <g id="Layer_1" data-name="Layer 1" transform="translate(-1.665 -15.258)">
    <path id="Path_4455" data-name="Path 4455" d="M23.665,16.71V29.894a2.16,2.16,0,0,1-2.356,1.438c-1-.046-2-.009-3-.009h-2.78c.253.693.44,1.219.633,1.742.29.78.073,1.16-.769,1.173q-2.7.042-5.409,0c-.887-.012-1.107-.4-.788-1.224.2-.515.391-1.032.64-1.688-2.064,0-3.944.007-5.825,0-1.7-.008-2.337-.643-2.339-2.324q-.007-5.688,0-11.376c0-1.688.635-2.345,2.314-2.353,5.781-.009,11.562.008,17.344-.014A2.184,2.184,0,0,1,23.665,16.71Zm-11,.006c-2.889,0-5.779.013-8.669-.01-.625,0-.871.2-.866.834q.028,4.275,0,8.55c-.006.674.252.886.912.885q8.627-.026,17.252,0c.66,0,.917-.212.911-.886q-.035-4.232,0-8.465c.008-.719-.257-.929-.957-.921C18.386,16.735,15.526,16.715,12.664,16.715Z" transform="translate(0 0)" fill="#fff"/>
  </g>
</svg>
