<svg id="Layer_1" data-name="Layer 1" xmlns="http://www.w3.org/2000/svg" width="17" height="17" viewBox="0 0 17 17">
  <path id="Path_4790" data-name="Path 4790" d="M23.707,23.126H15s-.029-.023-.042-.023a2.008,2.008,0,0,1-1.668-2.06c.019-3.372,0-6.741,0-10.11a1.966,1.966,0,0,1,2.04-2.047h8.044a2,2,0,0,1,.462.036A1.94,1.94,0,0,1,25.4,10.891V21.1a1.963,1.963,0,0,1-1.536,1.979ZM19.352,11.738H16.668a.527.527,0,0,0-.5.7.569.569,0,0,0,.582.365h5.173a.97.97,0,0,0,.168,0,.531.531,0,0,0-.126-1.054Zm-.016,5.341H16.649a.514.514,0,0,0-.5.449.527.527,0,0,0,.323.572,1,1,0,0,0,.323.039H21.9a1.222,1.222,0,0,0,.217-.016.53.53,0,0,0-.129-1.051Zm.019-1.429h2.651a.533.533,0,1,0,0-1.064H16.678a.511.511,0,0,0-.44.233.5.5,0,0,0-.039.537.517.517,0,0,0,.5.3Zm-.019,4.265H16.707a.533.533,0,1,0,0,1.064h5.267a.559.559,0,0,0,.165,0A.537.537,0,1,0,22,19.915Z" transform="translate(-9.103 -6.126)"/>
  <path id="Path_4791" data-name="Path 4791" d="M14.62,17l.154-.045A1.95,1.95,0,0,0,16.3,15V4.859a1.927,1.927,0,0,0-1.555-1.969,1.991,1.991,0,0,0-.459-.045H6.3a1.953,1.953,0,0,0-2.02,2.033V14.922a2,2,0,0,0,1.657,2.046.055.055,0,0,1,.042.022H0V0H17V17ZM2.858,14.867V4.92a3.9,3.9,0,0,1,.112-.964,3.334,3.334,0,0,1,3.3-2.505h6.4c-.016-.061-.022-.087-.032-.112A1.927,1.927,0,0,0,10.811.032q-4.066,0-8.135,0a1.722,1.722,0,0,0-.427.051A1.927,1.927,0,0,0,.739,2.043q0,4.207,0,8.415v2.454a1.946,1.946,0,0,0,2.12,1.956Z" fill="#fff"/>
  <path id="Path_4792" data-name="Path 4792" d="M25.3,17.7h2.619a.536.536,0,0,1,.126,1.064.971.971,0,0,1-.175,0H22.7a.569.569,0,0,1-.592-.369.527.527,0,0,1,.5-.7h1.617Z" transform="translate(-15.018 -12.017)" fill="#fff"/>
  <path id="Path_4793" data-name="Path 4793" d="M25.314,34.228h2.651a.53.53,0,0,1,.129,1.051,1.223,1.223,0,0,1-.217.016H22.773a1,1,0,0,1-.323-.039.527.527,0,0,1-.323-.572.514.514,0,0,1,.5-.449h.9Z" transform="translate(-15.043 -23.239)" fill="#fff"/>
  <path id="Path_4794" data-name="Path 4794" d="M25.325,27.574H22.671a.517.517,0,0,1-.5-.3.5.5,0,0,1,.039-.537.511.511,0,0,1,.44-.233h5.338a.533.533,0,1,1,0,1.064C27.094,27.577,26.208,27.574,25.325,27.574Z" transform="translate(-15.039 -17.996)" fill="#fff"/>
  <path id="Path_4795" data-name="Path 4795" d="M25.322,42.963h2.654a.53.53,0,0,1,.142,1.048.559.559,0,0,1-.165,0H22.707a.533.533,0,1,1,0-1.064Z" transform="translate(-15.052 -29.173)" fill="#fff"/>
  <path id="Path_4796" data-name="Path 4796" d="M4.431,14.918a1.969,1.969,0,0,1-1.5-.508A1.938,1.938,0,0,1,2.3,12.963V2.105A1.928,1.928,0,0,1,3.816.148,1.746,1.746,0,0,1,4.246.1q4.1,0,8.19,0a1.939,1.939,0,0,1,1.843,1.3.2.2,0,0,0,.032.112H7.871a3.352,3.352,0,0,0-3.32,2.5,3.87,3.87,0,0,0-.113.963q0,4.855,0,9.716Z" transform="translate(-1.553 -0.064)"/>
</svg>
