<svg xmlns="http://www.w3.org/2000/svg" width="13" height="14" viewBox="0 0 13 14">
  <g id="Layer_1" data-name="Layer 1" transform="translate(-6.301 -7.76)">
    <path id="Path_4823" data-name="Path 4823" d="M12.805,33.969H8.026a1.6,1.6,0,0,1-1.246-.486A1.707,1.707,0,0,1,6.3,32.2c0-.7,0-1.387,0-2.082a.569.569,0,0,1,.136-.435.534.534,0,0,1,.406-.185.542.542,0,0,1,.406.189.577.577,0,0,1,.136.437v2.1a.58.58,0,0,0,.156.464.542.542,0,0,0,.448.166h9.642a.539.539,0,0,0,.443-.163.576.576,0,0,0,.158-.457V30.073a.551.551,0,0,1,.468-.506.54.54,0,0,1,.58.362,1,1,0,0,1,.017.205v2.114a1.7,1.7,0,0,1-.476,1.24,1.6,1.6,0,0,1-1.2.488C16.026,33.973,14.416,33.969,12.805,33.969Z" transform="translate(0 -12.218)" fill="#3a3a3a"/>
    <path id="Path_4824" data-name="Path 4824" d="M18.438,16.094V8.426a1,1,0,0,1,.029-.274.551.551,0,0,1,.591-.389.565.565,0,0,1,.493.511v7.812l.14-.1,1.747-1.4a.561.561,0,1,1,.72.861l-2.777,2.215a.558.558,0,0,1-.778,0l-2.7-2.161a.558.558,0,1,1,.7-.868l1.667,1.329Z" transform="translate(-6.189)" fill="#3a3a3a"/>
  </g>
</svg>
