<svg xmlns="http://www.w3.org/2000/svg" width="22" height="19" viewBox="0 0 22 19">
  <g id="Layer_1" data-name="Layer 1" transform="translate(-0.246 -4.294)">
    <path id="Path_4415" data-name="Path 4415" d="M22.246,17.138,20.764,19.71c-.6,1.045-1.208,2.083-1.8,3.137a.792.792,0,0,1-.762.445H4.387a1.941,1.941,0,0,1-.446-.05.547.547,0,0,1-.274-.151,2.972,2.972,0,0,1-.319-.464C2.369,20.937,1.41,19.259.419,17.584A.9.9,0,0,1,.39,16.564c.433-.74.86-1.484,1.294-2.221Q4.492,9.563,7.3,4.782A.866.866,0,0,1,8.134,4.3c.975.019,1.95.025,2.925.025q1.676,0,3.356-.022a.64.64,0,0,1,.615.314c.386.627.778,1.255,1.147,1.882q2.925,5,5.851,10c.073.125.143.257.217.386ZM7.975,6.36l-.112.173Q4.83,11.708,1.786,16.884a.279.279,0,0,0,0,.314q.931,1.543,1.81,3.09l.558.941c.051-.082.1-.144.134-.21l2.148-3.642q1.979-3.344,3.958-6.691a.309.309,0,0,0,.022-.26C9.613,9.086,8.8,7.74,7.975,6.36ZM5.4,21.919H17.727a.265.265,0,0,0,.268-.151q1.128-1.948,2.269-3.89c.025-.047.041-.094.067-.154H8a.268.268,0,0,0-.261.166Q6.624,19.82,5.512,21.746A.582.582,0,0,0,5.4,21.919Zm14.933-5.574c-.035-.072-.045-.1-.057-.119Q17.217,11,14.151,5.77a.32.32,0,0,0-.236-.119H9.355a.941.941,0,0,0-.147.019c.038.066.061.116.089.166q3.075,5.2,6.166,10.389a.343.343,0,0,0,.252.132H17.65Zm-11.727.022h5.335l-2.655-4.508Z" transform="translate(0 0)" fill="#f9f9f9"/>
    <path id="Path_4416" data-name="Path 4416" d="M11.273,10.88c.841,1.368,1.663,2.7,2.478,4.043a.3.3,0,0,1-.023.258q-2,3.318-4.018,6.621L7.53,25.424c-.039.065-.084.127-.136.208L6.828,24.7Q5.916,23.157,5,21.633a.271.271,0,0,1,0-.311Q8.09,16.194,11.167,11.06Z" transform="translate(-3.181 -4.455)" fill="#4caf50"/>
    <path id="Path_4417" data-name="Path 4417" d="M16.43,51.414c.039-.078.065-.136.1-.188q1.139-1.99,2.265-3.976a.272.272,0,0,1,.265-.171H31.57c-.026.061-.042.11-.068.159q-1.142,2.025-2.29,4.021a.269.269,0,0,1-.272.155H16.43Z" transform="translate(-11.282 -29.539)" fill="#2196f3"/>
    <path id="Path_4418" data-name="Path 4418" d="M39.667,19.669H34.96a.346.346,0,0,1-.256-.136Q31.576,14.2,28.461,8.841c-.029-.052-.052-.1-.091-.171a.941.941,0,0,1,.149-.019h4.629a.323.323,0,0,1,.239.123q3.115,5.38,6.221,10.769C39.621,19.568,39.631,19.594,39.667,19.669Z" transform="translate(-19.359 -2.947)" fill="#ffc107"/>
  </g>
</svg>
