<svg xmlns="http://www.w3.org/2000/svg" width="22" height="19" viewBox="0 0 22 19">
  <g id="Layer_1" data-name="Layer 1" transform="translate(-8.29 -13.894)">
    <path id="Path_4421" data-name="Path 4421" d="M8.3,24.262,13.809,20.8,8.29,17.325l1.982-1.251,3.336-2.108a.264.264,0,0,1,.33-.024q2.613,1.668,5.225,3.3c.03.02.056.044.116.094L13.809,20.8l.793.5c1.513.955,3.025,1.913,4.545,2.861a.325.325,0,0,0,.271.03q2.642-1.654,5.284-3.329c.023,0,.036-.04.073-.081L19.3,17.325l1.278-.807L24.6,13.98c.116-.074.2-.131.357-.037,1.737,1.113,3.491,2.212,5.242,3.315.02,0,.036.037.086.081L24.8,20.8l5.489,3.463c-.1.067-.165.118-.234.161-1.681,1.062-3.366,2.118-5.037,3.187a.352.352,0,0,1-.449,0q-2.527-1.6-5.06-3.2a.326.326,0,0,0-.423,0c-1.691,1.076-3.389,2.142-5.08,3.218a.326.326,0,0,1-.426,0Q11.054,26,8.524,24.413C8.455,24.373,8.392,24.326,8.3,24.262Z" transform="translate(0 0)" fill="#1976d2"/>
    <path id="Path_4422" data-name="Path 4422" d="M35.614,52.633l-.715.5-4.4,3.1c-.112.076-.195.141-.345.036q-2.513-1.786-5.045-3.547L25,52.629c.08-.061.144-.119.214-.17q2.424-1.7,4.847-3.41a.34.34,0,0,1,.463,0c1.619,1.15,3.244,2.285,4.866,3.428A1.5,1.5,0,0,1,35.614,52.633Z" transform="translate(-11.008 -23.428)" fill="#1976d2"/>
  </g>
</svg>
