<svg xmlns="http://www.w3.org/2000/svg" xmlns:xlink="http://www.w3.org/1999/xlink" width="75" height="73" viewBox="0 0 75 73">
  <defs>
    <clipPath id="clip-path">
      <rect id="Rectangle_32" data-name="Rectangle 32" width="75" height="73" transform="translate(0)" fill="#fff"/>
    </clipPath>
  </defs>
  <g id="Group_813" data-name="Group 813" transform="translate(-548.667 -396.667)">
    <g id="icon6" transform="translate(548.667 396.667)" clip-path="url(#clip-path)">
      <path id="Path_3328" data-name="Path 3328" d="M0,32.569a9.323,9.323,0,0,1,9.43-9.2H36.972a9.323,9.323,0,0,1,9.43,9.2V59.442a9.323,9.323,0,0,1-9.43,9.2H9.43a9.551,9.551,0,0,1-6.668-2.7A9.09,9.09,0,0,1,0,59.442Z" transform="translate(2.11 1.372)" fill="#ff8d29"/>
      <path id="Path_3330" data-name="Path 3330" d="M33.423,3.453h27.9A5.84,5.84,0,0,1,65.4,5.1,5.558,5.558,0,0,1,67.085,9.08V36.3a5.559,5.559,0,0,1-1.7,3.965,5.84,5.84,0,0,1-4.07,1.641H49.889v3.453h11.45a9.186,9.186,0,0,0,9.285-9.08V9.059A9.187,9.187,0,0,0,61.318,0h-27.9a9.182,9.182,0,0,0-9.264,9.08V19.764H27.7V9.08a5.558,5.558,0,0,1,1.682-3.971,5.839,5.839,0,0,1,4.064-1.655Z" transform="translate(1.059 2.985)" fill="#ff8d29" fill-rule="evenodd"/>
      <path id="Path_3331" data-name="Path 3331" d="M36.7,14.8a1.738,1.738,0,0,1,1.749-1.706h19.09a1.792,1.792,0,0,1,1.251.506,1.7,1.7,0,0,1,0,2.442,1.792,1.792,0,0,1-1.251.506H38.444a1.806,1.806,0,0,1-.676-.139,1.77,1.77,0,0,1-.57-.381,1.723,1.723,0,0,1-.377-.565A1.687,1.687,0,0,1,36.7,14.8Z" transform="translate(0.513 2.081)" fill="#ff8d29" fill-rule="evenodd"/>
      <path id="Path_3332" data-name="Path 3332" d="M61.316,0a9.191,9.191,0,0,1,9.305,9.08V36.3a9.187,9.187,0,0,1-9.305,9.059H49.887V41.9h11.45A5.839,5.839,0,0,0,65.4,40.249a5.558,5.558,0,0,0,1.682-3.971V9.059a5.559,5.559,0,0,0-1.7-3.965,5.84,5.84,0,0,0-4.07-1.641h-27.9A5.84,5.84,0,0,0,29.343,5.1,5.558,5.558,0,0,0,27.654,9.08V19.764H24.115V9.08A9.191,9.191,0,0,1,33.421,0Z" transform="translate(1.061 2.985)" fill="#ff8d29" fill-rule="evenodd"/>
      <path id="Path_3333" data-name="Path 3333" d="M51.452,23.937a1.573,1.573,0,0,1,1.332-1.726h5.829a1.573,1.573,0,0,1,1.332,1.726,1.573,1.573,0,0,1-1.332,1.727H52.784A1.573,1.573,0,0,1,51.452,23.937Zm0,8.511a1.747,1.747,0,0,1,1.77-1.726h4.955a1.792,1.792,0,0,1,1.251.506,1.7,1.7,0,0,1,0,2.442,1.792,1.792,0,0,1-1.251.506H53.221a1.808,1.808,0,0,1-.677-.131,1.773,1.773,0,0,1-.574-.374,1.725,1.725,0,0,1-.384-.56A1.69,1.69,0,0,1,51.452,32.448Z" transform="translate(-0.129 1.452)" fill="#ff8d29" fill-rule="evenodd"/>
    </g>
    <g id="Layer_1" data-name="Layer 1" transform="translate(562.623 433.167)">
      <path id="Path_3326" data-name="Path 3326" d="M12.46,30.138V11.977c.728,0,1.447-.048,2.137,0a13.077,13.077,0,0,1,4.139.965A8.557,8.557,0,0,1,22.7,16.318a.772.772,0,0,1,.121.381V33.37C19.806,30.789,16.256,30.085,12.46,30.138Z" transform="translate(-12.46 -11.911)" fill="#fff" stroke="#f9f9f9" stroke-width="1"/>
      <path id="Path_3327" data-name="Path 3327" d="M49.186,30.08c-3.787-.034-7.332.661-10.327,3.217a1.48,1.48,0,0,1-.039-.246V16.676a.873.873,0,0,1,.14-.444,8.89,8.89,0,0,1,5.253-3.787,15.257,15.257,0,0,1,4.669-.574h.285Z" transform="translate(-26.105 -11.863)" fill="#ff8d29" stroke="#f9f9f9" stroke-width="1"/>
    </g>
  </g>
</svg>
