<svg xmlns="http://www.w3.org/2000/svg" xmlns:xlink="http://www.w3.org/1999/xlink" width="73" height="75" viewBox="0 0 73 75">
  <defs>
    <clipPath id="clip-path">
      <rect id="Rectangle_14" data-name="Rectangle 14" width="73" height="75" transform="translate(-0.25 -0.128)" fill="#fff"/>
    </clipPath>
  </defs>
  <g id="icon9" transform="translate(0.25 0.128)" clip-path="url(#clip-path)">
    <path id="Path_65" data-name="Path 65" d="M0,35.066c0-5.571,4.265-10.1,9.511-10.1H38.045c5.246,0,9.511,4.529,9.511,10.1v30.3c0,5.571-4.265,10.1-9.511,10.1H9.511C4.265,75.466,0,70.936,0,65.366Z" transform="translate(-0.003 -0.729)" fill="#27ae60" fill-rule="evenodd"/>
    <path id="Path_66" data-name="Path 66" d="M17.779,57.19l4.542-7.02L18.5,43.942a11.748,11.748,0,0,1-.81-1.563,3.527,3.527,0,0,1-.256-1.245,1.459,1.459,0,0,1,.512-1.11,1.773,1.773,0,0,1,1.28-.5,1.618,1.618,0,0,1,.705.124,1.7,1.7,0,0,1,.6.42,13.573,13.573,0,0,1,1.322,1.97l3.05,5.208,3.242-5.208.661-1.132.554-.77a1.716,1.716,0,0,1,.607-.466,2.014,2.014,0,0,1,1.414-.033,1.693,1.693,0,0,1,.581.386,1.575,1.575,0,0,1,.491,1.155,5.382,5.382,0,0,1-1.066,2.672L27.4,50.192l4.308,7.02c.384.589.64,1.132.853,1.517a3.378,3.378,0,0,1,.235,1.132,1.9,1.9,0,0,1-.232.949,1.756,1.756,0,0,1-.664.682,1.888,1.888,0,0,1-.96.226,1.745,1.745,0,0,1-.981-.226,2.064,2.064,0,0,1-.64-.657c-.171-.226-.469-.747-.938-1.472l-3.561-5.956-3.775,6.114-.64,1.042a2.6,2.6,0,0,1-.427.566,1.914,1.914,0,0,1-.674.474,1.818,1.818,0,0,1-.8.137,1.71,1.71,0,0,1-1.237-.475,1.966,1.966,0,0,1-.491-1.427A5.216,5.216,0,0,1,17.8,57.19Z" transform="translate(-1.575 -1.158)" fill="#fff"/>
    <path id="Path_67" data-name="Path 67" d="M35.558,3.85H64.092a5.737,5.737,0,0,1,4.169,1.829A6.473,6.473,0,0,1,70,10.1V40.4a6.475,6.475,0,0,1-1.73,4.435,5.738,5.738,0,0,1-4.177,1.837H52.405v3.85H64.092c5.267,0,9.511-4.529,9.511-10.122V10.1C73.6,4.529,69.338,0,64.092,0H35.558c-5.246,0-9.511,4.529-9.511,10.1V22.011h3.625V10.1a6.476,6.476,0,0,1,1.723-4.428,5.74,5.74,0,0,1,4.163-1.845Z" transform="translate(-2.443 0.007)" fill="#27ae60" fill-rule="evenodd"/>
    <path id="Path_68" data-name="Path 68" d="M39.6,15.9a1.87,1.87,0,0,1,1.813-1.925H60.925a1.761,1.761,0,0,1,1.282.564,2.01,2.01,0,0,1,0,2.722,1.761,1.761,0,0,1-1.282.564H41.413a1.721,1.721,0,0,1-.694-.147,1.81,1.81,0,0,1-.588-.417,1.935,1.935,0,0,1-.393-.624A2.029,2.029,0,0,1,39.6,15.9Z" transform="translate(-3.713 -0.405)" fill="#27ae60" fill-rule="evenodd"/>
    <path id="Path_69" data-name="Path 69" d="M64.092,0C69.359,0,73.6,4.529,73.6,10.1V40.4c0,5.571-4.265,10.1-9.511,10.1H52.405v-3.85H64.092a5.737,5.737,0,0,0,4.169-1.829A6.473,6.473,0,0,0,70,40.4V10.1a6.475,6.475,0,0,0-1.73-4.436,5.738,5.738,0,0,0-4.177-1.837H35.558a5.74,5.74,0,0,0-4.163,1.845A6.476,6.476,0,0,0,29.672,10.1V22.011H26.047V10.1c0-5.571,4.265-10.1,9.511-10.1Z" transform="translate(-2.443 0.007)" fill="#27ae60" fill-rule="evenodd"/>
    <path id="Path_70" data-name="Path 70" d="M55.553,25.655c0-1.064.618-1.925,1.365-1.925h5.971c.746,0,1.344.86,1.344,1.925,0,1.042-.6,1.9-1.365,1.9H56.9C56.171,27.557,55.553,26.7,55.553,25.655Zm0,9.466A1.87,1.87,0,0,1,57.366,33.2H62.42a1.761,1.761,0,0,1,1.282.564,2.01,2.01,0,0,1,0,2.722,1.761,1.761,0,0,1-1.282.564H57.366a1.761,1.761,0,0,1-1.282-.564A1.987,1.987,0,0,1,55.553,35.12Z" transform="translate(-5.207 -0.693)" fill="#27ae60" fill-rule="evenodd"/>
  </g>
</svg>
