<svg xmlns="http://www.w3.org/2000/svg" width="47" height="47" viewBox="0 0 47 47">
  <g id="Layer_1" data-name="Layer 1" transform="translate(-2.858 -2.858)">
    <path id="Path_4457" data-name="Path 4457" d="M39.118,11.222v2.242a3.931,3.931,0,0,0,1.292,3.091,4.554,4.554,0,0,0,3.329,1.171h2.392V34.483a2.376,2.376,0,0,1-.749,2.052,2.772,2.772,0,0,1-2.194.716H28.159a2.775,2.775,0,0,1-2.181-.7A2.38,2.38,0,0,1,25.2,34.53V13.955a2.379,2.379,0,0,1,.765-2.027,2.773,2.773,0,0,1,2.178-.705H39.168Zm-6.112,13a.822.822,0,0,0-.559-.749.922.922,0,0,0-.955.2.776.776,0,0,0-.16.9.885.885,0,0,0,.835.477A.844.844,0,0,0,33.006,24.219Zm3.494,0a.856.856,0,0,0-.839-.841.9.9,0,0,0-.846.375.771.771,0,0,0,0,.873.9.9,0,0,0,.846.375.866.866,0,0,0,.839-.736Zm2.643-.841a.885.885,0,0,0-.836.48.776.776,0,0,0,.165.9.922.922,0,0,0,.96.194.82.82,0,0,0,.55-.758.85.85,0,0,0-.839-.771Z" transform="translate(3.706 2.108)" fill="#537895"/>
    <path id="Path_4458" data-name="Path 4458" d="M23.814,17.726v16.85a2.37,2.37,0,0,1-.771,1.972,2.759,2.759,0,0,1-2.122.7H5.766a2.757,2.757,0,0,1-2.138-.713,2.367,2.367,0,0,1-.756-2V13.907a2.357,2.357,0,0,1,.757-1.98,2.745,2.745,0,0,1,2.124-.706H16.813v2.487a4.089,4.089,0,0,0,3.194,3.853,5.674,5.674,0,0,0,1.34.163C22.174,17.749,22.963,17.726,23.814,17.726Zm-7.878,4.916h3.319c.676,0,1.077-.327,1.065-.829s-.4-.794-1.065-.794H12.667c-.676,0-1.077.327-1.065.841s.4.782,1.052.782Zm-5.21,3.223H7.394c-.639,0-1.027.315-1.027.817s.388.806,1.027.806h6.651c.651,0,1.04-.315,1.04-.806s-.388-.817-1.027-.817Zm6.087,6.5h2.5c.639,0,1.027-.315,1.027-.817s-.388-.806-1.04-.806H14.383c-.651,0-1.04.315-1.04.817s.4.806,1.04.806ZM8.947,17.726h1.691a.9.9,0,0,0,.846-.375.771.771,0,0,0,0-.873.9.9,0,0,0-.846-.375H7.319a.9.9,0,0,0-.846.375.771.771,0,0,0,0,.873.9.9,0,0,0,.846.375C7.858,17.738,8.409,17.726,8.947,17.726Zm0,13.02H7.257a.9.9,0,0,0-.846.375.771.771,0,0,0,0,.873.9.9,0,0,0,.846.375h3.332a.9.9,0,0,0,.846-.375.771.771,0,0,0,0-.873.9.9,0,0,0-.846-.375c-.488-.012-1.027,0-1.578,0Zm-.9-8.1h.927a.834.834,0,0,0,.827-.794A.818.818,0,0,0,9,21.03H7.144a.822.822,0,0,0-.827.794.765.765,0,0,0,.24.577.883.883,0,0,0,.611.241Zm10.483,4.881a8.181,8.181,0,0,0,.927,0,.8.8,0,0,0,0-1.6H17.6a.808.808,0,0,0-.814.806.821.821,0,0,0,.814.794,8.177,8.177,0,0,0,.977-.035Z" transform="translate(0 2.109)" fill="#537895"/>
    <path id="Path_4459" data-name="Path 4459" d="M13.5,38.743a7.064,7.064,0,0,0,3.136,1.616,27.821,27.821,0,0,0,9.327.952,21.7,21.7,0,0,0,7.053-1.378,8.912,8.912,0,0,0,1.912-1.09,2.538,2.538,0,0,0,.641-1.1A.9.9,0,0,1,36.441,37a.786.786,0,0,1,.552.3.906.906,0,0,1,.194.63,2.732,2.732,0,0,1-.781,1.841,7.392,7.392,0,0,1-3.089,1.916,26.192,26.192,0,0,1-9.093,1.4,25.28,25.28,0,0,1-9.432-1.528c-.653-.25-1.282-.614-1.97-.939V42.15a.9.9,0,0,1-.374.846.769.769,0,0,1-.872,0,.9.9,0,0,1-.374-.846V37.942a.9.9,0,0,1,.25-.717A.768.768,0,0,1,12.134,37h3.917a.866.866,0,0,1,0,1.728Z" transform="translate(2.105 6.726)" fill="#537895"/>
    <path id="Path_4460" data-name="Path 4460" d="M34.97,7.232a7.127,7.127,0,0,0-3.1-1.616,27.72,27.72,0,0,0-9.4-.952,21.266,21.266,0,0,0-7.054,1.378A8.119,8.119,0,0,0,13.5,7.119a2.538,2.538,0,0,0-.641,1.1.925.925,0,0,1-.875.739.857.857,0,0,1-.758-.914A2.745,2.745,0,0,1,12.011,6.2a7.718,7.718,0,0,1,3.428-2.016A27.812,27.812,0,0,1,26.015,2.936a23.152,23.152,0,0,1,7.311,1.353c.758.288,1.481.676,2.332,1.04V3.9c0-.639.326-1.027.816-1.027s.8.388.8,1.027V7.933c0,.714-.292,1.027-.956,1.04H32.51a.855.855,0,0,1-.968-.877.842.842,0,0,1,.956-.864Z" transform="translate(2.113)" fill="#537895"/>
    <path id="Path_4461" data-name="Path 4461" d="M19.112,16.137c-2.292.313-4.008-.676-3.695-3.757Z" transform="translate(2.491 1.904)" fill="#537895"/>
    <path id="Path_4462" data-name="Path 4462" d="M37.766,12.37l3.757,3.757C39.256,16.578,37.265,15.388,37.766,12.37Z" transform="translate(6.862 1.901)" fill="#537895"/>
    <path id="Path_4463" data-name="Path 4463" d="M31.782,22.506a.877.877,0,1,1-.87-.772A.877.877,0,0,1,31.782,22.506Z" transform="translate(5.468 3.817)" fill="#fff"/>
    <path id="Path_4464" data-name="Path 4464" d="M34.573,22.572a.872.872,0,1,1-.839-.9.889.889,0,0,1,.839.9Z" transform="translate(6.028 3.803)" fill="#fff"/>
    <path id="Path_4465" data-name="Path 4465" d="M36.509,21.67a.877.877,0,1,1-.889.839.877.877,0,0,1,.889-.839Z" transform="translate(6.339 3.804)" fill="#fff"/>
    <path id="Path_4466" data-name="Path 4466" d="M14.174,21.351H10.892c-.651,0-1.04-.313-1.052-.839s.388-.9,1.065-.9h6.651c.664,0,1.052.326,1.065.852s-.451.889-1.065.889Z" transform="translate(1.342 3.388)" fill="#fff"/>
    <path id="Path_4467" data-name="Path 4467" d="M10.019,23.76H13.35c.639,0,1.027.338,1.027.877s-.388.864-1.04.864H6.687c-.639,0-1.027-.338-1.027-.864s.388-.877,1.027-.877Z" transform="translate(0.707 4.227)" fill="#fff"/>
    <path id="Path_4468" data-name="Path 4468" d="M14.692,29.681H12.3c-.8,0-1.04-.338-1.04-.864s.388-.877,1.04-.877h4.9c.651,0,1.04.338,1.04.864s-.388.877-1.027.877C16.333,29.693,15.493,29.681,14.692,29.681Z" transform="translate(1.637 5.072)" fill="#fff"/>
    <path id="Path_4469" data-name="Path 4469" d="M8.246,17.142H6.618a.877.877,0,1,1,0-1.741H9.949a.877.877,0,1,1,0,1.741C9.373,17.155,8.81,17.142,8.246,17.142Z" transform="translate(0.701 2.535)" fill="#fff"/>
    <path id="Path_4470" data-name="Path 4470" d="M8.309,27.941H9.949a.877.877,0,1,1,0,1.741H6.618a.877.877,0,1,1,0-1.741C7.181,27.929,7.745,27.941,8.309,27.941Z" transform="translate(0.701 5.071)" fill="#fff"/>
    <path id="Path_4471" data-name="Path 4471" d="M7.348,21.348H6.472a.865.865,0,0,1-.025-1.728H8.3a.852.852,0,0,1,.8.877.864.864,0,0,1-.827.852H7.348Z" transform="translate(0.697 3.39)" fill="#fff"/>
    <path id="Path_4472" data-name="Path 4472" d="M15.761,25.5a7.628,7.628,0,0,1-.927,0,.852.852,0,0,1-.814-.852.839.839,0,0,1,.814-.864h1.854a.864.864,0,0,1,0,1.716A7.628,7.628,0,0,1,15.761,25.5Z" transform="translate(2.224 4.231)" fill="#fff"/>
  </g>
</svg>
