<svg xmlns="http://www.w3.org/2000/svg" xmlns:xlink="http://www.w3.org/1999/xlink" width="74" height="72" viewBox="0 0 74 72">
  <defs>
    <clipPath id="clip-path">
      <rect id="Rectangle_12" data-name="Rectangle 12" width="74" height="72" fill="#fff"/>
    </clipPath>
  </defs>
  <g id="icon6" clip-path="url(#clip-path)">
    <path id="Path_44" data-name="Path 44" d="M0,33.251a9.877,9.877,0,0,1,9.859-9.884H38.654a9.877,9.877,0,0,1,9.859,9.884V62.116A9.877,9.877,0,0,1,38.654,72H9.859A9.872,9.872,0,0,1,0,62.116Z" fill="#9b59b6"/>
    <path id="Path_45" data-name="Path 45" d="M15.518,46.3,9.859,53.716a.763.763,0,0,0,.631,1.222h27.6a.766.766,0,0,0,.609-1.244L28.9,41.193a.761.761,0,0,0-1.2,0l-6.834,8.378a.761.761,0,0,1-1.175,0l-2.982-3.316a.761.761,0,0,0-1.2.044Z" fill="#fff"/>
    <path id="Path_46" data-name="Path 46" d="M33.844,3.709H63.009a6.036,6.036,0,0,1,6.029,6.044V38.989a6.036,6.036,0,0,1-6.029,6.022H51.06V48.72H63.031a9.733,9.733,0,0,0,9.707-9.753V9.731A9.733,9.733,0,0,0,63.009,0H33.844a9.728,9.728,0,0,0-9.685,9.753V21.229h3.7V9.753a6.036,6.036,0,0,1,6.007-6.044Z" fill="#9b59b6" fill-rule="evenodd"/>
    <path id="Path_47" data-name="Path 47" d="M36.7,14.924a1.842,1.842,0,0,1,1.828-1.833H58.482a1.855,1.855,0,0,1,0,3.709H38.523A1.854,1.854,0,0,1,36.7,14.924Z" fill="#9b59b6" fill-rule="evenodd"/>
    <path id="Path_48" data-name="Path 48" d="M63.009,0a9.737,9.737,0,0,1,9.729,9.753V38.989a9.732,9.732,0,0,1-9.729,9.731H51.06V45.011H63.031a6.036,6.036,0,0,0,6.007-6.044V9.731a6.036,6.036,0,0,0-6.029-6.022H33.844a6.036,6.036,0,0,0-6.029,6.044V21.229h-3.7V9.753A9.737,9.737,0,0,1,33.844,0Z" fill="#9b59b6" fill-rule="evenodd"/>
    <path id="Path_49" data-name="Path 49" d="M51.452,24.065c0-1.025.631-1.854,1.393-1.854h6.094c.762,0,1.393.829,1.393,1.854S59.7,25.92,58.939,25.92H52.845C52.083,25.92,51.452,25.091,51.452,24.065Zm0,9.142a1.851,1.851,0,0,1,1.85-1.854h5.18a1.855,1.855,0,0,1,0,3.709H53.3a1.854,1.854,0,0,1-1.85-1.855Z" fill="#9b59b6" fill-rule="evenodd"/>
  </g>
</svg>
