<svg xmlns="http://www.w3.org/2000/svg" xmlns:xlink="http://www.w3.org/1999/xlink" width="274" height="270" viewBox="0 0 274 270">
  <defs>
    <radialGradient id="radial-gradient" cx="0.794" cy="0.805" r="3.12" gradientTransform="translate(-0.017 -3.327) scale(0.187 0.239)" gradientUnits="objectBoundingBox">
      <stop offset="0.003" stop-color="#222b3d" stop-opacity="0.18"/>
      <stop offset="1" stop-color="#132d5b" stop-opacity="0"/>
    </radialGradient>
    <clipPath id="clip-path">
      <rect id="Rectangle_448" data-name="Rectangle 448" width="213.348" height="153.972" rx="8" fill="#fff"/>
    </clipPath>
  </defs>
  <g id="instructions" transform="translate(-5.49 -3.248)">
    <path id="Path_4425" data-name="Path 4425" d="M129.01,198.531s-54.806,6.7-88.27,6.7c-41.831,0-51.9,28.143,0,28.143,33.465,0,71.113,16.083,119.217,16.083,52.289,0,57.517-20.1,89.937-20.1s46.839-30.825-16.732-30.825H129.01Z" transform="translate(0 23.789)" opacity="0.5" fill="url(#radial-gradient)"/>
    <path id="Path_4426" data-name="Path 4426" d="M248.394,214.2c0-6.9-50.431-5.615-112.642-5.615S23.11,207.3,23.11,214.2s50.431,12.5,112.642,12.5S248.394,221.1,248.394,214.2Z" transform="translate(2.183 25.023)" fill="#b5b5b5" opacity="0.2"/>
    <g id="Group_842" data-name="Group 842" transform="translate(38.458 53.496)" clip-path="url(#clip-path)">
      <rect id="Rectangle_439" data-name="Rectangle 439" width="213.348" height="153.972" rx="8" fill="#f1f3f5"/>
      <path id="Path_4427" data-name="Path 4427" d="M205.262,68.585h42.91V206.354h-42.91ZM34.824,48.113H248.172v18.7H34.824Z" transform="translate(-34.824 -48.113)" fill="#fff"/>
      <path id="Path_4428" data-name="Path 4428" d="M44.121,59.323V56.566a.074.074,0,0,1,.064-.073,5.444,5.444,0,0,0,2.619-1.15V54.326a4.746,4.746,0,0,1-3.013,1.463.449.449,0,0,0-.414.447v3.511a.449.449,0,0,0,.491.446,5.637,5.637,0,0,0,2.936-1.15v-.991A4.867,4.867,0,0,1,44.21,59.4a.074.074,0,0,1-.081-.043.075.075,0,0,1-.007-.031Z" transform="translate(-33.773 -47.343)" fill="#2651a1"/>
      <path id="Path_4429" data-name="Path 4429" d="M49.111,57.732q.167-.026.335-.04a.449.449,0,0,0,.411-.447V53.733a.453.453,0,0,0-.449-.45l-.042,0a5.637,5.637,0,0,0-2.936,1.15v.991a4.867,4.867,0,0,1,2.594-1.343.074.074,0,0,1,.081.043.075.075,0,0,1,.007.031v2.757a.074.074,0,0,1-.063.073,5.444,5.444,0,0,0-2.619,1.15v1.016a4.718,4.718,0,0,1,2.681-1.421Z" transform="translate(-33.398 -47.473)" fill="#ff723f"/>
      <path id="Path_4430" data-name="Path 4430" d="M42.8,56.353v-2.83a.075.075,0,0,1,.084-.074,6.689,6.689,0,0,1,4.088,2.108V54.508a7.453,7.453,0,0,0-4.442-1.845.449.449,0,0,0-.475.448v3.514a.525.525,0,0,0,.492.521,6.719,6.719,0,0,1,4.425,2.106v-1.04a7.408,7.408,0,0,0-4.105-1.787.074.074,0,0,1-.067-.074Z" transform="translate(-33.936 -47.549)" fill="#09bdf8"/>
      <path id="Path_4431" data-name="Path 4431" d="M45.976,54.768c-.1.079-.205.152-.313.223a6.331,6.331,0,0,1,.557.527c.1-.072.2-.146.3-.225a6.794,6.794,0,0,0-.545-.525Zm0,3.7q-.156.115-.321.218a6.59,6.59,0,0,1,.566.526q.156-.106.305-.221a6.793,6.793,0,0,0-.55-.521Z" transform="translate(-33.493 -47.289)" fill="#1e3c74"/>
      <path id="Path_4432" data-name="Path 4432" d="M46.43,54.3V55.35a7.408,7.408,0,0,0,4.105,1.816.074.074,0,0,1,.067.073v2.829a.075.075,0,0,1-.085.074A6.691,6.691,0,0,1,46.43,58v1.055a7.451,7.451,0,0,0,4.44,1.876.447.447,0,0,0,.477-.448V56.969a.525.525,0,0,0-.488-.521A6.724,6.724,0,0,1,46.43,54.3Z" transform="translate(-33.398 -47.346)" fill="#ffbc5c"/>
      <path id="Path_4433" data-name="Path 4433" d="M46.974,58.558c.1-.079.205-.154.313-.224a6.378,6.378,0,0,1-.55-.53q-.155.107-.3.225a6.464,6.464,0,0,0,.539.528Zm0-3.7c.1-.076.21-.149.32-.217a6.4,6.4,0,0,1-.559-.528q-.156.1-.305.219a7.081,7.081,0,0,0,.545.526Z" transform="translate(-33.397 -47.37)" fill="#ff4949"/>
      <rect id="Rectangle_440" data-name="Rectangle 440" width="13.475" height="3.372" rx="1.5" transform="translate(23.564 7.664)" fill="#e9ebed"/>
      <rect id="Rectangle_441" data-name="Rectangle 441" width="13.475" height="3.372" rx="1.5" transform="translate(39.284 7.664)" fill="#e9ebed"/>
      <rect id="Rectangle_442" data-name="Rectangle 442" width="13.475" height="3.372" rx="1.5" transform="translate(55.005 7.664)" fill="#e9ebed"/>
      <rect id="Rectangle_443" data-name="Rectangle 443" width="13.475" height="3.372" rx="1.5" transform="translate(70.725 7.664)" fill="#e9ebed"/>
      <rect id="Rectangle_444" data-name="Rectangle 444" width="70.5" height="4.642" rx="2.065" transform="translate(134.73 7.029)" fill="#e9ebed"/>
      <path id="Path_4434" data-name="Path 4434" d="M34.648,66.195H205.327V190.4H34.648Z" transform="translate(-34.846 -45.873)" fill="#edf2f7"/>
      <rect id="Rectangle_445" data-name="Rectangle 445" width="37.256" height="42.327" rx="1" transform="translate(4.294 24.818)" fill="#fbfcfd"/>
      <rect id="Rectangle_446" data-name="Rectangle 446" width="37.256" height="42.327" rx="1" transform="translate(46.042 24.818)" fill="#fbfcfd"/>
      <rect id="Rectangle_447" data-name="Rectangle 447" width="71.856" height="15.286" rx="3" transform="translate(53.882 84.291)" fill="#5179b6"/>
      <path id="Path_4435" data-name="Path 4435" d="M31.6,176.258H252.189v12.1H31.6Z" transform="translate(-35.22 -32.238)" fill="#fff" stroke="#edf2f7" stroke-width="0.5"/>
    </g>
    <rect id="Rectangle_449" data-name="Rectangle 449" width="215.596" height="156.22" rx="9" transform="translate(37.334 52.373)" fill="none" stroke="#ebeef0" stroke-width="2"/>
    <path id="Path_4436" data-name="Path 4436" d="M179.463,14.486l2.156,8.323A6.4,6.4,0,0,0,186.2,27.4l8.3,2.161-8.3,2.162a6.4,6.4,0,0,0-4.581,4.592l-2.156,8.325-2.157-8.325a6.4,6.4,0,0,0-4.58-4.592l-8.3-2.162,8.3-2.161a6.4,6.4,0,0,0,4.58-4.593l2.157-8.323Z" transform="translate(19.551 1.392)" fill="#e3e3e3"/>
    <path id="Path_4437" data-name="Path 4437" d="M200.9,125.832l1.542,2.678,3.017.643-2.063,2.3.323,3.075-2.818-1.258-2.816,1.258.323-3.075-2.063-2.3,3.017-.643,1.541-2.678Z" transform="translate(23.491 14.974)" fill="#ffac07"/>
    <path id="Path_4438" data-name="Path 4438" d="M211.015,125.832l1.542,2.678,3.017.643-2.063,2.3.323,3.075-2.818-1.258-2.816,1.258.323-3.075-2.065-2.3,3.017-.643,1.542-2.678Z" transform="translate(24.707 14.974)" fill="#ffac07"/>
    <path id="Path_4439" data-name="Path 4439" d="M221.127,125.832l1.541,2.678,3.018.643-2.065,2.3.323,3.075-2.816-1.258-2.818,1.258.323-3.075-2.063-2.3,3.017-.643,1.542-2.678Z" transform="translate(25.96 14.974)" fill="#ffac07"/>
    <path id="Path_4440" data-name="Path 4440" d="M231.238,125.832l1.542,2.678,3.017.643-2.063,2.3.323,3.075-2.818-1.258-2.816,1.258.323-3.075-2.063-2.3,3.017-.643,1.541-2.678Z" transform="translate(27.213 14.974)" fill="#ffac07"/>
    <path id="Path_4441" data-name="Path 4441" d="M241.35,125.832l1.542,2.678,3.017.643-2.063,2.3.323,3.075-2.818-1.258-2.818,1.258.324-3.075-2.065-2.3,3.017-.643,1.542-2.678Z" transform="translate(28.465 14.974)" fill="#ffac07"/>
    <path id="Path_4442" data-name="Path 4442" d="M160.932,3.248l1.273,4.917a3.783,3.783,0,0,0,2.706,2.712l4.9,1.278-4.9,1.277a3.783,3.783,0,0,0-2.706,2.713l-1.273,4.917-1.273-4.917a3.782,3.782,0,0,0-2.706-2.713l-4.9-1.277,4.9-1.278a3.783,3.783,0,0,0,2.706-2.712l1.273-4.917Z" transform="translate(18.035 0)" fill="#e3e3e3"/>
    <path id="Path_4443" data-name="Path 4443" d="M147.612,27.9l1.054,4.073a3.132,3.132,0,0,0,2.241,2.247l4.062,1.058-4.062,1.058a3.132,3.132,0,0,0-2.241,2.248l-1.054,4.071-1.055-4.072a3.131,3.131,0,0,0-2.24-2.247l-4.062-1.058,4.062-1.058a3.131,3.131,0,0,0,2.24-2.247l1.055-4.072Z" transform="translate(16.585 3.054)" fill="#e3e3e3"/>
    <path id="Path_4444" data-name="Path 4444" d="M217.495,14.195l.788,3.042a2.342,2.342,0,0,0,1.675,1.678l3.033.79-3.033.79a2.34,2.34,0,0,0-1.675,1.678l-.788,3.041-.788-3.041a2.338,2.338,0,0,0-1.673-1.678L212,19.705l3.033-.79a2.338,2.338,0,0,0,1.673-1.678l.788-3.042Z" transform="translate(25.394 1.356)" fill="#e3e3e3"/>
    <path id="Path_4445" data-name="Path 4445" d="M176.812,48.68h53.98v81.786H183.357a6.474,6.474,0,0,1-6.546-6.4V48.68Z" transform="translate(21.035 5.519)" fill="#e3e3e3"/>
    <path id="Path_4446" data-name="Path 4446" d="M66.606,116.723H35v65.972H73.9a5.271,5.271,0,0,0,5.329-5.21V121.219a4.5,4.5,0,0,0-4.5-4.5H66.606Z" transform="translate(3.656 13.806)" fill="#e3e3e3"/>
    <path id="Path_4447" data-name="Path 4447" d="M200.88,41.757h35.1a2.682,2.682,0,0,1,1.916.807l17.6,18,.354-.346-.354.346a1.96,1.96,0,0,1,.559,1.371v50.075a8.647,8.647,0,0,1-8.647,8.647H200.88a8.647,8.647,0,0,1-8.647-8.647V50.4a8.646,8.646,0,0,1,8.648-8.647Z" transform="translate(22.945 4.68)" fill="#507cf6" stroke="#707070" stroke-width="0.881"/>
    <path id="Path_4448" data-name="Path 4448" d="M241.71,76.328H204.031a1.506,1.506,0,1,0,0,3.012H241.71a1.506,1.506,0,1,0,0-3.012Zm0-8.331H204.031a1.506,1.506,0,1,0,0,3.012H241.71a1.506,1.506,0,1,0,0-3.012Zm0,16.764H204.031a1.506,1.506,0,1,0,0,3.012H241.71a1.553,1.553,0,0,0,1.523-1.506A1.487,1.487,0,0,0,241.71,84.761Zm0,8.331H204.031a1.506,1.506,0,1,0,0,3.012H241.71a1.552,1.552,0,0,0,1.523-1.506A1.487,1.487,0,0,0,241.71,93.092Zm-21.924,8.332H204.031a1.506,1.506,0,1,0,0,3.011h15.756a1.553,1.553,0,0,0,1.524-1.506,1.488,1.488,0,0,0-1.524-1.506Z" transform="translate(24.218 7.896)" fill="#fff" opacity="0.4"/>
    <g id="Group_843" data-name="Group 843" transform="translate(258.78 45.963)">
      <path id="Path_4449" data-name="Path 4449" d="M232.583,42.871v13.47a4.145,4.145,0,0,0,4.145,4.145H250.2a1.555,1.555,0,0,1,1.541,1.346,4.149,4.149,0,0,0-1.161-2.553L234.322,42.571a4.145,4.145,0,0,0-2.97-1.255h-.323a1.555,1.555,0,0,1,1.554,1.554Z" transform="translate(-231.029 -41.316)" fill="#507cf6" fill-rule="evenodd"/>
    </g>
    <path id="Path_4450" data-name="Path 4450" d="M176.513,98.316l.02,4.6c-8.409.426-15.86,7.2-16.581,15.488a16.474,16.474,0,0,1,16.613-7.918l.022,5.163,10.559-8.712-10.634-8.62Z" transform="translate(19.002 11.605)" fill="#ffac07"/>
    <path id="Path_4451" data-name="Path 4451" d="M40.627,98.316H9.3a3.808,3.808,0,0,0-3.808,3.808v53.127A3.808,3.808,0,0,0,9.3,159.059H52.451a3.808,3.808,0,0,0,3.808-3.808v-41.3a2.724,2.724,0,0,0-.8-1.923L42.55,99.113a2.72,2.72,0,0,0-1.922-.8Z" transform="translate(0 11.572)" fill="#e3e3e3"/>
    <path id="Path_4452" data-name="Path 4452" d="M63.989,168.286H13.748a2.187,2.187,0,0,1-2.183-2.19V106.3a2.186,2.186,0,0,1,2.184-2.189h50.24a2.186,2.186,0,0,1,2.184,2.189V166.1A2.187,2.187,0,0,1,63.989,168.286Z" transform="translate(0.753 12.274)" fill="#e3e3e3"/>
    <path id="Path_4453" data-name="Path 4453" d="M53.116,126.142H21.944a1.246,1.246,0,1,0,0,2.492H53.115a1.246,1.246,0,1,0,0-2.492Zm0-6.893H21.944a1.246,1.246,0,1,0,0,2.492H53.115a1.246,1.246,0,1,0,0-2.492Zm0,13.869H21.944a1.246,1.246,0,1,0,0,2.492H53.115a1.285,1.285,0,0,0,1.261-1.245,1.232,1.232,0,0,0-1.261-1.246Zm0,6.894H21.944a1.245,1.245,0,1,0,0,2.491H53.115a1.285,1.285,0,0,0,1.261-1.245,1.23,1.23,0,0,0-1.261-1.245ZM34.979,146.9H21.944a1.246,1.246,0,1,0,0,2.492H34.979a1.285,1.285,0,0,0,1.26-1.246A1.229,1.229,0,0,0,34.979,146.9Z" transform="translate(1.882 14.152)" fill="#fff" opacity="0.7"/>
    <path id="Path_4454" data-name="Path 4454" d="M79.813,171.166l.017-4.106c-7.508-.381-14.161-6.429-14.8-13.829A14.708,14.708,0,0,0,79.86,160.3l.02-4.611,9.427,7.78-9.495,7.7Z" transform="translate(7.325 18.311)" fill="#507cf6"/>
  </g>
</svg>
