<svg xmlns="http://www.w3.org/2000/svg" width="100" height="140" viewBox="0 0 100 140">
  <g id="word" transform="translate(-24.532)">
    <path id="Path_4847" data-name="Path 4847" d="M68.16,0a20.9,20.9,0,0,1,10.86,7.182c6.945,7.15,13.981,14.2,21.017,21.253a16.855,16.855,0,0,1,5.048,12.5V124.45c.257,7.17-4.305,13.519-10.86,15.116a15.467,15.467,0,0,1-3.671.424H19.671a13.614,13.614,0,0,1-10.484-4.422,15.582,15.582,0,0,1-4.078-11.215V15.834C4.84,8.163,9.946,1.47,17.04.2a1.793,1.793,0,0,0,.367-.2ZM65.1,8.194H19.885a6.22,6.22,0,0,0-5.23,1.969,7.165,7.165,0,0,0-1.868,5.572V124.287a7.162,7.162,0,0,0,1.881,5.55,6.219,6.219,0,0,0,5.217,1.959H90.248a6.253,6.253,0,0,0,5.317-2.029,7.211,7.211,0,0,0,1.811-5.708V41H74.921a8.858,8.858,0,0,1-7.2-2.851A10.18,10.18,0,0,1,65.07,30.46V8.194ZM72.78,12.21V31.145c0,1.339.765,1.7,1.866,1.665H93.124Z" transform="translate(19.436 0)" fill="#223D40"/>
    <path id="Path_4850" data-name="Path 4850" d="M43.466,24.64H14.917a3.909,3.909,0,0,1-3.909-5.378,3.846,3.846,0,0,1,3.721-2.5H71.89a3.94,3.94,0,0,1,3.971,5.472,4,4,0,0,1-4,2.408Z" transform="translate(30.333 38.067)" fill="#223D40"/>
    <path id="Path_4851" data-name="Path 4851" d="M43.828,23.461H72.252a3.94,3.94,0,1,1,0,7.849H15.779a7.849,7.849,0,0,1-1.72,0A3.937,3.937,0,0,1,15,23.492Z" transform="translate(30.075 53.298)" fill="#223D40"/>
    <path id="Path_4852" data-name="Path 4852" d="M24.125,30.161h9.162a3.94,3.94,0,1,1,0,7.849H15.025a3.94,3.94,0,1,1,0-7.849Z" transform="translate(30.861 68.529)" fill="#223D40"/>
  </g>
</svg>