<svg xmlns="http://www.w3.org/2000/svg" xmlns:xlink="http://www.w3.org/1999/xlink" width="73" height="75" viewBox="0 0 73 75">
  <defs>
    <clipPath id="clip-path">
      <rect id="Rectangle_32" data-name="Rectangle 32" width="73" height="75" transform="translate(0 0)" fill="#fff"/>
    </clipPath>
  </defs>
  <g id="Group_814" data-name="Group 814" transform="translate(-548 -396)">
    <g id="icon6" transform="translate(548 396)" clip-path="url(#clip-path)">
      <path id="Path_3328" data-name="Path 3328" d="M0,32.65a9.155,9.155,0,0,1,9.013-9.282H35.335a9.155,9.155,0,0,1,9.013,9.282V59.759a9.155,9.155,0,0,1-9.013,9.282H9.013A8.882,8.882,0,0,1,2.64,66.323,9.425,9.425,0,0,1,0,59.759Z" transform="translate(2.677 2.268)" fill="#223d40"/>
      <path id="Path_3330" data-name="Path 3330" d="M33.012,3.483h26.66a5.431,5.431,0,0,1,3.9,1.662,5.763,5.763,0,0,1,1.614,4.014V36.617a5.763,5.763,0,0,1-1.621,4,5.431,5.431,0,0,1-3.89,1.655H48.75v3.483H59.693A9.022,9.022,0,0,0,68.566,36.6V9.139A9.021,9.021,0,0,0,59.673,0H33.012a9.019,9.019,0,0,0-8.854,9.159V19.938h3.382V9.159a5.764,5.764,0,0,1,1.607-4.006,5.432,5.432,0,0,1,3.884-1.67Z" transform="translate(0.603 3.69)" fill="#223d40" fill-rule="evenodd"/>
      <path id="Path_3331" data-name="Path 3331" d="M36.7,14.812a1.707,1.707,0,0,1,1.671-1.721H56.611a1.666,1.666,0,0,1,1.2.51,1.779,1.779,0,0,1,0,2.463,1.666,1.666,0,0,1-1.2.51H38.366a1.648,1.648,0,0,1-.646-.14,1.689,1.689,0,0,1-.544-.384,1.748,1.748,0,0,1-.36-.57A1.786,1.786,0,0,1,36.7,14.812Z" transform="translate(-0.474 2.894)" fill="#223d40" fill-rule="evenodd"/>
      <path id="Path_3332" data-name="Path 3332" d="M59.669,0a9.026,9.026,0,0,1,8.893,9.159V36.617a9.021,9.021,0,0,1-8.893,9.139H48.746V42.273H59.689a5.432,5.432,0,0,0,3.884-1.67A5.764,5.764,0,0,0,65.18,36.6V9.139a5.762,5.762,0,0,0-1.621-4,5.431,5.431,0,0,0-3.89-1.655H33.009a5.431,5.431,0,0,0-3.9,1.662A5.763,5.763,0,0,0,27.5,9.159V19.938H24.115V9.159A9.026,9.026,0,0,1,33.009,0Z" transform="translate(0.606 3.69)" fill="#223d40" fill-rule="evenodd"/>
      <path id="Path_3333" data-name="Path 3333" d="M51.452,23.953c0-.963.577-1.742,1.273-1.742H58.3c.7,0,1.273.779,1.273,1.742s-.577,1.742-1.273,1.742H52.725C52.029,25.694,51.452,24.916,51.452,23.953Zm0,8.586A1.716,1.716,0,0,1,53.143,30.8h4.735a1.666,1.666,0,0,1,1.2.51,1.779,1.779,0,0,1,0,2.463,1.666,1.666,0,0,1-1.2.51H53.143a1.649,1.649,0,0,1-.647-.133,1.689,1.689,0,0,1-.549-.378,1.747,1.747,0,0,1-.367-.565A1.786,1.786,0,0,1,51.452,32.538Z" transform="translate(-1.741 2.339)" fill="#223d40" fill-rule="evenodd"/>
    </g>
    <g id="Layer_1" data-name="Layer 1" transform="translate(561.476 430.247)">
      <path id="Path_3335" data-name="Path 3335" d="M11.165,32.615c-2.7-1.429-4.115-3.925-5.259-6.568a14.463,14.463,0,0,1-1.062-8.831,6.93,6.93,0,0,1,6.131-5.891,8.274,8.274,0,0,1,3.413.632,4.8,4.8,0,0,0,3.729-.044c3.426-1.378,6.479-.733,8.426,1.662a2.637,2.637,0,0,1,.234.354c-4.627,3.464-3.47,9.083.822,11.214-1.321,2.971-2.528,6-5.79,7.472h-1.8a5.689,5.689,0,0,0-5.272-.841c-.834.253-1.65.556-2.472.841Z" transform="translate(-4.576 -4.379)" fill="#f9f9f9"/>
      <path id="Path_3337" data-name="Path 3337" d="M28.3.41c.512,2.99-2.44,6.694-5.461,6.378C22.411,3.767,24.82.9,28.3.41Z" transform="translate(-11.277 -0.41)" fill="#f9f9f9"/>
    </g>
  </g>
</svg>
