<svg xmlns="http://www.w3.org/2000/svg" width="138" height="138" viewBox="0 0 138 138">
  <g id="ley_icon" data-name="ley icon" transform="translate(-881 -394)">
    <g id="Ellipse_235" data-name="Ellipse 235" transform="translate(881 394)" fill="#537895" stroke="#fff" stroke-width="7">
      <circle cx="69" cy="69" r="69" stroke="none"/>
      <circle cx="69" cy="69" r="65.5" fill="none"/>
    </g>
    <g id="Layer_1" data-name="Layer 1" transform="translate(918.816 504.491) rotate(-115)">
      <path id="Path_4406" data-name="Path 4406" d="M28.089,0c7.54,2.043,13.885,5.56,17.8,12.594a23.1,23.1,0,0,1,1.391,19.675,23.978,23.978,0,0,1-14.4,13.859c-2.666.92-3.249,2.164-3.166,4.6.139,5.1,0,10.2,0,15.759a31.621,31.621,0,0,1,6.859.122,5.924,5.924,0,0,1,3.8,2.854c.319.8-1.389,2.448-2.4,3.652-.722.92-2.027,1.65-2.222,2.705-.111.582,1.5,1.353,2.18,2.246.972,1.177,2.777,2.814,2.444,3.612A5.933,5.933,0,0,1,36.6,84.573a27.731,27.731,0,0,1-6.4.122c-.25,1.055-.444,1.948-.68,2.827a4.959,4.959,0,0,1-5.276,4.058,4.906,4.906,0,0,1-3.551-1.291,4.651,4.651,0,0,1-1.5-3.39c-.222-3.8-.139-7.629-.153-11.431v-25.4c0-1.623-.083-2.787-2.111-3.531C5.387,42.246-.556,33.656.041,22.523.68,11.755,7.817,3.693,19.439.582A10.112,10.112,0,0,0,20.744,0ZM24.521,37.254a13.536,13.536,0,0,0,13.551-13.5A13.554,13.554,0,0,0,24.234,10.526a13.539,13.539,0,0,0-13.6,13.458A13.718,13.718,0,0,0,24.521,37.254Z" transform="translate(0 0)" fill="#fff"/>
    </g>
  </g>
</svg>
