<svg xmlns="http://www.w3.org/2000/svg" width="21.68" height="19.968" viewBox="0 0 21.68 19.968">
  <g id="icon" transform="translate(-258.127 -1003.081)">
    <g id="Layer_1" data-name="Layer 1" transform="translate(285.063 1002.976) rotate(90)">
      <path id="Path_4862" data-name="Path 4862" d="M19.105,10.107a4.2,4.2,0,0,1-1.175.426H2.727l2.053,2.1c.162.161.411.293.449.473a1.474,1.474,0,0,1,0,1.022.962.962,0,0,1-.955,0C2.937,12.9,1.657,11.612.368,10.343a.715.715,0,0,1,0-1.108L4.092,5.563A.72.72,0,0,1,5.2,5.478c.4.388.287.786-.086,1.155L2.679,9.075H17.9a3.678,3.678,0,0,1,1.2.445Z" transform="translate(0 0)" fill="#fff"/>
    </g>
    <g id="Layer_1-2" data-name="Layer 1" transform="translate(252.869 1022.905) rotate(-89)">
      <path id="Path_4862-2" data-name="Path 4862" d="M19.105,10.107a4.2,4.2,0,0,1-1.175.426H2.727l2.053,2.1c.162.161.411.293.449.473a1.474,1.474,0,0,1,0,1.022.962.962,0,0,1-.955,0C2.937,12.9,1.657,11.612.368,10.343a.715.715,0,0,1,0-1.108L4.092,5.563A.72.72,0,0,1,5.2,5.478c.4.388.287.786-.086,1.155L2.679,9.075H17.9a3.678,3.678,0,0,1,1.2.445Z" transform="translate(0 0)" fill="#fff"/>
    </g>
  </g>
</svg>
