<svg xmlns="http://www.w3.org/2000/svg" width="48" height="48" viewBox="0 0 48 48">
  <path id="f234813e85a82cf571e7dec8f4e341ad" d="M20.2,16.971C20.2,10.912,25.931,6,33,6s12.8,4.912,12.8,10.971v6.857h6.4c2.652,0,4.8,1.843,4.8,4.116V49.886C57,52.157,54.85,54,52.2,54H13.8C11.148,54,9,52.157,9,49.884V27.943c0-2.271,2.15-4.112,4.8-4.114h6.4Zm1.6,0v6.857H44.2V16.971c0-5.3-5.014-9.6-11.2-9.6s-11.2,4.3-11.2,9.6Zm24,8.229h-32a3,3,0,0,0-3.2,2.744V49.886a3,3,0,0,0,3.2,2.743H52.2a3,3,0,0,0,3.2-2.744V27.943A3,3,0,0,0,52.2,25.2ZM33,33.429A1.5,1.5,0,0,1,34.6,34.8v9.6a1.619,1.619,0,0,1-3.2,0V34.8A1.5,1.5,0,0,1,33,33.429Z" transform="translate(-9 -6)" fill="#537895"/>
</svg>
