<svg xmlns="http://www.w3.org/2000/svg" width="40" height="47" viewBox="0 0 40 47">
  <g id="Layer_1" data-name="Layer 1" transform="translate(-5.098 -0.064)">
    <path id="Path_4480" data-name="Path 4480" d="M23.683,45.767c-.973-.137-1.971-.229-2.931-.435A19.119,19.119,0,0,1,6.759,34.291,17.565,17.565,0,0,1,5.1,26.546c.066-4.976,4.429-9,9.853-9.1H34.534c5.8.086,10.483,4.389,10.564,9.714.057,9.131-7.157,16.935-16.987,18.375l-1.671.217Zm2.968-14.45a4.206,4.206,0,0,0,3.014-4.706,4.52,4.52,0,0,0-4.548-3.519,4.52,4.52,0,0,0-4.548,3.519,4.206,4.206,0,0,0,3.014,4.706v7.277a1.377,1.377,0,0,0,.736,1.316,1.517,1.517,0,0,0,1.509,0,1.363,1.363,0,0,0,.811-1.236Z" transform="translate(0 1.297)" fill="#537895"/>
    <path id="Path_4481" data-name="Path 4481" d="M38.762,17.908a17.735,17.735,0,0,0-6.386-.755v-.595a42.132,42.132,0,0,0-.129-4.782c-.529-3.437-3.837-6-7.756-6.018-3.957-.016-7.327,2.543-7.911,6.007a14.2,14.2,0,0,0-.116,1.8v3.558A18.869,18.869,0,0,0,10,17.77c.181-2.975-.323-5.869.646-8.707C12.6,3.414,18.685-.3,25.344.093s12.133,4.8,13.211,10.63a14.219,14.219,0,0,1,.194,2.105C38.774,14.5,38.762,16.169,38.762,17.908Z" transform="translate(0.707 0)" fill="#537895"/>
    <path id="Path_4482" data-name="Path 4482" d="M23.081,30.606v7.357a1.373,1.373,0,0,1-.755,1.3,1.293,1.293,0,0,1-1.384,0,1.407,1.407,0,0,1-.675-1.316V30.606a4.233,4.233,0,1,1,2.815,0Zm-1.4-2.586a1.419,1.419,0,1,0-1.419-1.384,1.419,1.419,0,0,0,1.419,1.384Z" transform="translate(3.432 2.007)" fill="#fff"/>
    <path id="Path_4483" data-name="Path 4483" d="M21.332,27.667a1.419,1.419,0,1,1,1.4-1.407A1.419,1.419,0,0,1,21.332,27.667Z" transform="translate(3.784 2.814)" fill="#537895"/>
  </g>
</svg>
