<svg xmlns="http://www.w3.org/2000/svg" width="16" height="16" viewBox="0 0 16 16">
  <g id="Layer_1" data-name="Layer 1" transform="translate(-12.328 -11.42)">
    <path id="Path_4875" data-name="Path 4875" d="M12.329,22.545A7.239,7.239,0,0,1,15.1,16.787a1.737,1.737,0,0,1,.7-.362.912.912,0,0,1,1.106.5.948.948,0,0,1-.3,1.23,5.4,5.4,0,0,0-2.025,3.06,5.463,5.463,0,0,0,3.46,6.319,6.125,6.125,0,0,0,7.245-2.073,5.289,5.289,0,0,0-.891-7.054c-.328-.289-.744-.5-.685-1.06.039-.39.137-.72.489-.83a1.243,1.243,0,0,1,1.233.142,7.241,7.241,0,0,1,2.609,7.761,7.851,7.851,0,0,1-6.454,5.439,8.42,8.42,0,0,1-5.978-1.35,7.454,7.454,0,0,1-3.2-4.926A10.245,10.245,0,0,1,12.329,22.545Z" transform="translate(0 -2.536)" fill="#3a3a3a"/>
    <path id="Path_4876" data-name="Path 4876" d="M26.535,16v-3.39c0-.749.411-1.2,1.057-1.194s1.027.465,1.032,1.223v6.849a1.067,1.067,0,0,1-1.062,1.2c-.631,0-1.027-.489-1.032-1.228C26.53,18.3,26.535,17.154,26.535,16Z" transform="translate(-7.254 0)" fill="#3a3a3a"/>
  </g>
</svg>
