<svg xmlns="http://www.w3.org/2000/svg" width="478.206" height="48" viewBox="0 0 478.206 48">
  <g id="logo" transform="translate(-233.57 -366.84)">
    <g id="OBJECTS" transform="translate(233.57 372.84)">
      <g id="Group_812" data-name="Group 812" transform="translate(32.206 0)">
        <text id="SMALL_C" data-name="SMALL C" transform="translate(0 33)" fill="#3a3a3a" font-size="36" font-family="SegoeUI, Segoe UI" letter-spacing="0.05em"><tspan x="0" y="0">MALL CONVERTER TOOLS</tspan></text>
      </g>
      <g id="Group_811" data-name="Group 811" transform="translate(0 3.159)">
        <path id="Path_3271" data-name="Path 3271" d="M21.527,23.2H13.083A11.631,11.631,0,0,1,4.695,3.5,11.34,11.34,0,0,1,12.854,0H28.537a3.146,3.146,0,0,1,3.12,3.171h0a3.146,3.146,0,0,1-3.12,3.171H13.015A5.192,5.192,0,0,0,9.127,7.993,5.367,5.367,0,0,0,7.7,12.021a5.211,5.211,0,0,0,5.156,4.836h8.668a.014.014,0,0,1,0,.013v6.314a.014.014,0,0,1,.005.013Z" transform="translate(-1.439)" fill="#3a3a3a"/>
        <path id="Path_3272" data-name="Path 3272" d="M25.295,54.738H9.841A3.146,3.146,0,0,1,6.72,51.566h0A3.146,3.146,0,0,1,9.841,48.4H25.363a5.2,5.2,0,0,0,3.886-1.653,5.371,5.371,0,0,0,1.43-4.027,5.214,5.214,0,0,0-5.156-4.835H16.856V31.54h8.667a11.34,11.34,0,0,1,8.16,3.5,11.631,11.631,0,0,1-8.389,19.7Z" transform="translate(-5.31 -23.11)" fill="#3a3a3a"/>
        <circle id="Ellipse_232" data-name="Ellipse 232" cx="3.963" cy="3.963" r="3.963" transform="translate(15.314 22.974) rotate(-76.63)" fill="#537895"/>
        <circle id="Ellipse_233" data-name="Ellipse 233" cx="3.963" cy="3.963" r="3.963" transform="translate(7.572 7.629)" fill="#537895"/>
      </g>
    </g>
  </g>
</svg>
