<svg xmlns="http://www.w3.org/2000/svg" width="24" height="13" viewBox="0 0 24 13">
  <g id="Layer_1" data-name="Layer 1" transform="translate(-13.04 -22.357)">
    <path id="Path_4887" data-name="Path 4887" d="M27.155,5.59c.31,1.214-.109,1.577-1.348,1.577H4.543c-.6,0-1.385.095-1.257-.71a1.374,1.374,0,0,1,1.039-.789C11.886,5.575,19.52,5.59,27.155,5.59Z" transform="translate(9.787 16.768)" fill="#171717"/>
    <path id="Path_4888" data-name="Path 4888" d="M27.14,10.99H4.736c-.5,0-1-.457-1.476-.71.5-.237,1-.71,1.5-.71h21C27.14,9.524,27.474,10.076,27.14,10.99Z" transform="translate(9.78 18.519)" fill="#171717"/>
    <path id="Path_4889" data-name="Path 4889" d="M3.322,13.61H26.986c.552,1.388.483,1.451-2.311,1.451H6.22C4.15,15.077,2.977,14.761,3.322,13.61Z" transform="translate(9.782 20.296)" fill="#171717"/>
  </g>
</svg>
