<svg xmlns="http://www.w3.org/2000/svg" width="1061.393" height="296.657" viewBox="0 0 1061.393 296.657">
  <g id="Layer_2" data-name="Layer 2" transform="translate(-14.607 -24.63)">
    <g id="Envelope_1" data-name="Envelope 1">
      <g id="Group_861" data-name="Group 861">
        <g id="Group_858" data-name="Group 858">
          <path id="Path_4545" data-name="Path 4545" d="M316.324,176.51c.269,0,.377,1.059.251,2.28s-.431,2.226-.682,2.19-.377-1.041-.251-2.28S316.109,176.492,316.324,176.51Z" transform="translate(250.863 140.307)" fill="#263238"/>
          <path id="Path_4546" data-name="Path 4546" d="M317.952,166.77a20.857,20.857,0,0,1-1.328,8.723,21.645,21.645,0,0,1,1.328-8.723Z" transform="translate(251.658 132.565)" fill="#263238"/>
          <path id="Path_4547" data-name="Path 4547" d="M320.19,157.14a11.058,11.058,0,0,1-.5,4.415,10.768,10.768,0,0,1-1.418,4.2,11.056,11.056,0,0,1,.5-4.415A10.877,10.877,0,0,1,320.19,157.14Z" transform="translate(252.956 124.91)" fill="#263238"/>
          <path id="Path_4548" data-name="Path 4548" d="M323.131,147.68a20.84,20.84,0,0,1-2.549,8.436,10.768,10.768,0,0,1,.754-4.272,11.039,11.039,0,0,1,1.795-4.164Z" transform="translate(254.826 117.39)" fill="#263238"/>
          <path id="Path_4549" data-name="Path 4549" d="M326.849,138.47a10.517,10.517,0,0,1-1.185,4.272A11.04,11.04,0,0,1,323.6,146.6a10.591,10.591,0,0,1,1.185-4.272,10.95,10.95,0,0,1,2.064-3.859Z" transform="translate(257.228 110.069)" fill="#263238"/>
          <path id="Path_4550" data-name="Path 4550" d="M331.443,129.62a10.769,10.769,0,0,1-1.579,4.128,10.931,10.931,0,0,1-2.423,3.715,20.533,20.533,0,0,1,4-7.844Z" transform="translate(260.281 103.034)" fill="#263238"/>
          <path id="Path_4551" data-name="Path 4551" d="M336.94,121.244a10.769,10.769,0,0,1-2.064,3.913c-1.292,2.064-2.531,3.59-2.746,3.482a10.986,10.986,0,0,1,1.974-3.985C335.486,122.608,336.743,121.1,336.94,121.244Z" transform="translate(264.009 96.369)" fill="#263238"/>
          <path id="Path_4552" data-name="Path 4552" d="M343.376,113.507a11.021,11.021,0,0,1-2.459,3.7c-1.544,1.795-2.98,3.249-3.177,3.087s.9-1.795,2.459-3.7S343.179,113.328,343.376,113.507Z" transform="translate(268.45 90.213)" fill="#263238"/>
          <path id="Path_4553" data-name="Path 4553" d="M350.683,106.539c.162.2-1.113,1.795-2.89,3.374s-3.338,2.872-3.59,2.692,1.113-1.687,2.89-3.374S350.5,106.342,350.683,106.539Z" transform="translate(273.582 84.671)" fill="#263238"/>
          <path id="Path_4554" data-name="Path 4554" d="M358.7,100.47c.144.215-1.328,1.544-3.285,2.98a11.092,11.092,0,0,1-3.841,2.244c-.162-.215,1.31-1.544,3.285-3a10.771,10.771,0,0,1,3.841-2.226Z" transform="translate(279.456 79.863)" fill="#263238"/>
          <path id="Path_4555" data-name="Path 4555" d="M367.406,95.49A10.858,10.858,0,0,1,363.816,98a11.039,11.039,0,0,1-4.092,1.795c-.143-.233,1.508-1.364,3.59-2.513a10.769,10.769,0,0,1,4.092-1.795Z" transform="translate(285.936 75.905)" fill="#263238"/>
          <path id="Path_4556" data-name="Path 4556" d="M376.782,91.79a10.554,10.554,0,0,1-3.985,1.956,10.949,10.949,0,0,1-4.308,1.059,10.769,10.769,0,0,1,3.985-1.938,11.038,11.038,0,0,1,4.308-1.077Z" transform="translate(292.911 72.963)" fill="#263238"/>
          <path id="Path_4557" data-name="Path 4557" d="M386.519,89.629a11.29,11.29,0,0,1-4.272,1.185,10.769,10.769,0,0,1-4.4.449,10.769,10.769,0,0,1,4.236-1.364,10.033,10.033,0,0,1,4.433-.269Z" transform="translate(300.351 71.14)" fill="#263238"/>
          <path id="Path_4558" data-name="Path 4558" d="M396.4,89.211a10.572,10.572,0,0,1-4.415.521,10.93,10.93,0,0,1-4.415-.413,11,11,0,0,1,4.415-.521A11.183,11.183,0,0,1,396.4,89.211Z" transform="translate(308.078 70.535)" fill="#263238"/>
          <path id="Path_4559" data-name="Path 4559" d="M406.1,90.844a20.749,20.749,0,0,1-8.705-1.4,10.77,10.77,0,0,1,4.433.251,10.643,10.643,0,0,1,4.272,1.149Z" transform="translate(315.883 71.001)" fill="#263238"/>
          <path id="Path_4560" data-name="Path 4560" d="M415.338,94.24a10.374,10.374,0,0,1-4.308-1.005,10.77,10.77,0,0,1-4.021-1.795,10.591,10.591,0,0,1,4.326,1.005,10.769,10.769,0,0,1,4,1.795Z" transform="translate(323.53 72.685)" fill="#263238"/>
          <path id="Path_4561" data-name="Path 4561" d="M423.786,99.38a10.949,10.949,0,0,1-4.056-1.795A11.219,11.219,0,0,1,416.14,95a10.5,10.5,0,0,1,4.074,1.795C422.314,98.015,423.93,99.164,423.786,99.38Z" transform="translate(330.788 75.515)" fill="#263238"/>
          <path id="Path_4562" data-name="Path 4562" d="M431.041,106.115c-.2.179-1.795-.969-3.59-2.567s-3.177-3.051-3.015-3.249,1.795.933,3.59,2.549S431.22,105.936,431.041,106.115Z" transform="translate(337.372 79.71)" fill="#263238"/>
          <path id="Path_4563" data-name="Path 4563" d="M434.262,110.715c-.2.144-.987-.521-1.795-1.49s-1.2-1.9-1.005-2.064.987.5,1.795,1.49S434.406,110.481,434.262,110.715Z" transform="translate(342.927 85.162)" fill="#263238"/>
        </g>
        <g id="Group_852" data-name="Group 852" transform="translate(-38 106.951)">
          <rect id="Rectangle_466" data-name="Rectangle 466" width="74.793" height="50.419" transform="translate(780.433 66.173) rotate(-23.25)" fill="#f5f5f5"/>
          <path id="Path_4542" data-name="Path 4542" d="M503.769,20.63a4,4,0,0,1-.359.9l-1.2,2.495-4.433,9.136c-3.895,7.754-9.208,18.38-15.113,30.118l-.126.251h-.269l-.646-.179-32.99-9.208L438.686,51.3l-2.71-.808a5.9,5.9,0,0,1-.915-.323,3.948,3.948,0,0,1,.969.179l2.728.7,10,2.549,32.972,8.974.646.179-.395.162c5.977-11.7,11.362-22.293,15.31-30.011,1.956-3.787,3.59-6.857,4.685-8.974.538-1.023.987-1.795,1.31-2.441a8.618,8.618,0,0,1,.485-.862Z" transform="translate(345.827 16.399)" fill="#e0e0e0"/>
          <path id="Path_4543" data-name="Path 4543" d="M446.154,79.75c-.18,0,2.262-8.615,5.385-19.134s5.923-19.008,6.1-18.936-2.262,8.616-5.385,19.134S446.334,79.8,446.154,79.75Z" transform="translate(354.638 33.131)" fill="#e0e0e0"/>
          <path id="Path_4544" data-name="Path 4544" d="M465.17,35.882c.09-.162,7.9,3.949,17.446,9.19s17.231,9.6,17.123,9.764-7.9-3.949-17.446-9.172S465.081,36.1,465.17,35.882Z" transform="translate(369.761 28.519)" fill="#e0e0e0"/>
        </g>
      </g>
      <g id="Group_863" data-name="Group 863">
        <g id="Group_857" data-name="Group 857">
          <path id="Path_4564" data-name="Path 4564" d="M482.819,171.057a11.414,11.414,0,0,1-4.272-1.472,11.022,11.022,0,0,1-3.877-2.315A21.9,21.9,0,0,1,482.819,171.057Z" transform="translate(377.313 132.962)" fill="#263238"/>
          <path id="Path_4565" data-name="Path 4565" d="M492.45,173.837a10.877,10.877,0,0,1-4.433-.862,11.092,11.092,0,0,1-4.146-1.795,11.451,11.451,0,0,1,4.415.862,11.29,11.29,0,0,1,4.164,1.795Z" transform="translate(384.626 136.07)" fill="#263238"/>
          <path id="Path_4566" data-name="Path 4566" d="M502.461,174.752a10.769,10.769,0,0,1-4.505,0,11.2,11.2,0,0,1-4.416-.951,11.272,11.272,0,0,1,4.505,0,11.435,11.435,0,0,1,4.415.951Z" transform="translate(392.313 137.973)" fill="#263238"/>
          <path id="Path_4567" data-name="Path 4567" d="M512.449,174a10.607,10.607,0,0,1-4.433.808,11.021,11.021,0,0,1-4.505-.126,21.7,21.7,0,0,1,8.974-.682Z" transform="translate(400.238 138.163)" fill="#263238"/>
          <path id="Path_4568" data-name="Path 4568" d="M522.181,172.088a11.018,11.018,0,0,1-4.254,1.526,10.589,10.589,0,0,1-4.487.431,11.884,11.884,0,0,1,4.29-1.346A11.759,11.759,0,0,1,522.181,172.088Z" transform="translate(408.131 136.777)" fill="#263238"/>
          <path id="Path_4569" data-name="Path 4569" d="M531.217,168.4a22.079,22.079,0,0,1-8.167,3.751,11.471,11.471,0,0,1,3.9-2.3,11.271,11.271,0,0,1,4.272-1.454Z" transform="translate(415.77 133.86)" fill="#263238"/>
          <path id="Path_4570" data-name="Path 4570" d="M539.056,162.83c.162.2-1.221,1.669-3.231,3.177a9.783,9.783,0,0,1-3.931,2.226c-.144-.215,1.418-1.49,3.375-2.979A13.248,13.248,0,0,1,539.056,162.83Z" transform="translate(422.793 129.433)" fill="#263238"/>
          <path id="Path_4571" data-name="Path 4571" d="M545.216,155.535a9.584,9.584,0,0,1-2.387,3.841c-1.58,1.939-3.141,3.249-3.32,3.087s1.041-1.795,2.6-3.59S545,155.373,545.216,155.535Z" transform="translate(428.838 123.625)" fill="#263238"/>
          <path id="Path_4572" data-name="Path 4572" d="M548.992,146.73a9.658,9.658,0,0,1-1.256,4.344c-1.023,2.3-2.172,3.967-2.405,3.841a13.59,13.59,0,0,1,1.544-4.218A13.118,13.118,0,0,1,548.992,146.73Z" transform="translate(433.48 116.635)" fill="#263238"/>
          <path id="Path_4573" data-name="Path 4573" d="M549.656,137a9.334,9.334,0,0,1,.215,4.523,9.19,9.19,0,0,1-1.131,4.4,14.361,14.361,0,0,1,.2-4.487,14.54,14.54,0,0,1,.718-4.433Z" transform="translate(436.119 108.901)" fill="#263238"/>
          <path id="Path_4574" data-name="Path 4574" d="M547.77,127.09a9.531,9.531,0,0,1,1.615,4.236,9.279,9.279,0,0,1,.377,4.505,13.6,13.6,0,0,1-1.274-4.308,13.28,13.28,0,0,1-.718-4.433Z" transform="translate(435.42 101.023)" fill="#263238"/>
          <path id="Path_4575" data-name="Path 4575" d="M543.42,118.124c.215-.144,1.562,1.4,2.818,3.59a9.6,9.6,0,0,1,1.795,4.2,13.677,13.677,0,0,1-2.513-3.715,13.605,13.605,0,0,1-2.1-4.074Z" transform="translate(431.962 93.889)" fill="#263238"/>
          <path id="Path_4576" data-name="Path 4576" d="M536.5,111.013c.144-.215,1.921.79,3.823,2.423s3.123,3.267,2.944,3.446-1.795-1.131-3.59-2.728S536.334,111.21,536.5,111.013Z" transform="translate(426.448 88.221)" fill="#263238"/>
          <path id="Path_4577" data-name="Path 4577" d="M527.42,106.947a8.975,8.975,0,0,1,4.469.736,8.759,8.759,0,0,1,4.039,2.064,14.809,14.809,0,0,1-4.326-1.185A15.365,15.365,0,0,1,527.42,106.947Z" transform="translate(419.244 84.981)" fill="#263238"/>
          <path id="Path_4578" data-name="Path 4578" d="M517.54,107.764a8.976,8.976,0,0,1,4.344-1.292,9.083,9.083,0,0,1,4.541.126,44.533,44.533,0,0,1-8.975,1.167Z" transform="translate(411.319 84.452)" fill="#263238"/>
          <path id="Path_4579" data-name="Path 4579" d="M508.888,114.321c-.18-.162,1.059-1.795,3.069-3.356a8.6,8.6,0,0,1,4.056-2.064c.126.233-1.544,1.328-3.482,2.818S509.1,114.464,508.888,114.321Z" transform="translate(404.499 86.564)" fill="#263238"/>
          <path id="Path_4580" data-name="Path 4580" d="M504.977,124.729a12.259,12.259,0,0,1,2.136-8.669,18.85,18.85,0,0,1-.969,4.362,18.246,18.246,0,0,1-1.167,4.308Z" transform="translate(401.32 92.255)" fill="#263238"/>
          <path id="Path_4581" data-name="Path 4581" d="M508.2,134.342a8.777,8.777,0,0,1-2.19-3.985,8.975,8.975,0,0,1-.754-4.487,15.745,15.745,0,0,1,1.633,4.182,15.905,15.905,0,0,1,1.31,4.29Z" transform="translate(401.597 100.054)" fill="#263238"/>
          <path id="Path_4582" data-name="Path 4582" d="M516.384,140.682a9.262,9.262,0,0,1-3.823-2.441c-1.795-1.669-3.069-3.356-2.872-3.59s1.651,1.2,3.5,2.818S516.545,140.5,516.384,140.682Z" transform="translate(405.133 107.014)" fill="#263238"/>
          <path id="Path_4583" data-name="Path 4583" d="M526.242,143.37a9.352,9.352,0,0,1-4.451-.826,9.531,9.531,0,0,1-4.021-2.064,13.571,13.571,0,0,1,4.326,1.185,14.054,14.054,0,0,1,4.146,1.705Z" transform="translate(411.573 111.667)" fill="#263238"/>
          <path id="Path_4584" data-name="Path 4584" d="M536.385,143.226a16.513,16.513,0,0,1-8.974-.2,13.443,13.443,0,0,1,4.487-.215A12.924,12.924,0,0,1,536.385,143.226Z" transform="translate(419.236 113.444)" fill="#263238"/>
          <path id="Path_4585" data-name="Path 4585" d="M546.057,141.22a9.585,9.585,0,0,1-4.182,1.705,9.8,9.8,0,0,1-4.505.5,13.5,13.5,0,0,1,4.272-1.418,13.355,13.355,0,0,1,4.416-.79Z" transform="translate(427.153 112.255)" fill="#263238"/>
          <path id="Path_4586" data-name="Path 4586" d="M554.794,137.07c.144.215-1.544,1.346-3.751,2.513a10.769,10.769,0,0,1-4.182,1.669,11.955,11.955,0,0,1,3.841-2.513A10.93,10.93,0,0,1,554.794,137.07Z" transform="translate(434.697 108.957)" fill="#263238"/>
          <path id="Path_4587" data-name="Path 4587" d="M562.383,131.12c.18.2-1.256,1.633-3.177,3.213s-3.59,2.692-3.769,2.477,1.274-1.633,3.177-3.213S562.2,130.923,562.383,131.12Z" transform="translate(441.502 104.208)" fill="#263238"/>
          <path id="Path_4588" data-name="Path 4588" d="M568.693,123.806c.2.162-.951,1.795-2.567,3.715s-3.069,3.285-3.267,3.105a11.363,11.363,0,0,1,2.567-3.715C567.024,125.044,568.5,123.644,568.693,123.806Z" transform="translate(447.415 98.402)" fill="#263238"/>
          <path id="Path_4589" data-name="Path 4589" d="M573.661,115.463a11.379,11.379,0,0,1-1.921,4.074c-1.275,2.136-2.495,3.751-2.71,3.59a11.2,11.2,0,0,1,1.921-4.074C572.207,116.953,573.427,115.337,573.661,115.463Z" transform="translate(452.319 91.775)" fill="#263238"/>
          <path id="Path_4590" data-name="Path 4590" d="M577.123,106.32a10.767,10.767,0,0,1-1.2,4.344,9.979,9.979,0,0,1-2.1,4,12.37,12.37,0,0,1,1.238-4.344A11.36,11.36,0,0,1,577.123,106.32Z" transform="translate(456.127 84.513)" fill="#263238"/>
          <path id="Path_4591" data-name="Path 4591" d="M579.467,96.73a11.092,11.092,0,0,1-.682,4.451,11.236,11.236,0,0,1-1.58,4.236,11.488,11.488,0,0,1,.682-4.469,10.893,10.893,0,0,1,1.579-4.218Z" transform="translate(458.808 76.89)" fill="#263238"/>
          <path id="Path_4592" data-name="Path 4592" d="M580.874,86.88a11.2,11.2,0,0,1-.215,4.505,11.312,11.312,0,0,1-1.149,4.38,11.292,11.292,0,0,1,.216-4.523,11.413,11.413,0,0,1,1.148-4.362Z" transform="translate(460.543 69.061)" fill="#263238"/>
          <path id="Path_4593" data-name="Path 4593" d="M581.563,76.93a11.056,11.056,0,0,1,.126,4.505,11.13,11.13,0,0,1-.79,4.433,10.856,10.856,0,0,1-.144-4.505,11.522,11.522,0,0,1,.808-4.433Z" transform="translate(461.505 61.151)" fill="#263238"/>
          <path id="Path_4594" data-name="Path 4594" d="M581.731,66.94a11.556,11.556,0,0,1,.377,4.487,11.524,11.524,0,0,1-.557,4.487,11.345,11.345,0,0,1-.377-4.505A10.662,10.662,0,0,1,581.731,66.94Z" transform="translate(461.911 53.21)" fill="#263238"/>
          <path id="Path_4595" data-name="Path 4595" d="M581.576,56.94a10.766,10.766,0,0,1,.538,4.469,11.467,11.467,0,0,1-.395,4.505,10.951,10.951,0,0,1-.538-4.487,11.345,11.345,0,0,1,.395-4.487Z" transform="translate(461.922 45.261)" fill="#263238"/>
          <path id="Path_4596" data-name="Path 4596" d="M581.411,50.79c.269,0,.485.449.5,1.005s-.18,1.041-.431,1.059-.485-.449-.5-1.023S581.16,50.79,581.411,50.79Z" transform="translate(461.818 40.373)" fill="#263238"/>
        </g>
        <g id="Group_853" data-name="Group 853" transform="translate(16 11.736)">
          <rect id="Rectangle_467" data-name="Rectangle 467" width="92.858" height="62.598" transform="translate(960.541 47.913) rotate(-6.2)" fill="#537895"/>
          <path id="Path_4597" data-name="Path 4597" d="M541.911,93.415h0L535.12,31.143h0L627.476,21.12h0l6.791,62.258h0Zm-6.7-62.231,6.791,62.15,92.26-10.01-6.791-62.163Z" transform="translate(425.364 16.782)" fill="#263238"/>
          <path id="Path_4598" data-name="Path 4598" d="M627.755,21.65a5.592,5.592,0,0,1-.761.924L624.658,25.1l-8.665,9.249L587.078,64.555l-.244.244-.285-.177-.706-.448L550.108,41.343l-10.784-6.995-2.906-1.929a7.379,7.379,0,0,1-.978-.733,6.608,6.608,0,0,1,1.073.584l2.988,1.806,10.865,6.791,35.869,22.614.706.448-.53.068L615.5,33.928l8.978-9.086,2.445-2.431a7.66,7.66,0,0,1,.829-.761Z" transform="translate(425.479 16.972)" fill="#263238"/>
          <path id="Path_4599" data-name="Path 4599" d="M540.421,85.663c-.2-.136,5.813-9.412,13.432-20.739s13.935-20.373,14.138-20.264-5.827,9.412-13.446,20.739S540.612,85.867,540.421,85.663Z" transform="translate(427.261 25.214)" fill="#263238"/>
          <path id="Path_4600" data-name="Path 4600" d="M583.251,41.641c.163-.163,7.945,7.551,17.371,17.235S617.558,76.532,617.4,76.722s-7.945-7.565-17.371-17.249S583.088,41.8,583.251,41.641Z" transform="translate(442.602 24.132)" fill="#263238"/>
        </g>
      </g>
      <g id="Group_860" data-name="Group 860">
        <g id="Group_856" data-name="Group 856">
          <path id="Path_4601" data-name="Path 4601" d="M292.838,160c.251,0,.628.915.826,2.154s.18,2.244-.09,2.28-.628-.915-.826-2.136S292.569,160.108,292.838,160Z" transform="translate(232.599 127.183)" fill="#263238"/>
          <path id="Path_4602" data-name="Path 4602" d="M291.183,150.28a10.626,10.626,0,0,1,1.185,4.308,11.146,11.146,0,0,1,.233,4.451,11.129,11.129,0,0,1-1.167-4.308A10.967,10.967,0,0,1,291.183,150.28Z" transform="translate(231.365 119.457)" fill="#263238"/>
          <path id="Path_4603" data-name="Path 4603" d="M289.784,140.5a11.057,11.057,0,0,1,1.077,4.326,10.859,10.859,0,0,1,.144,4.451,11.055,11.055,0,0,1-1.077-4.326,10.77,10.77,0,0,1-.143-4.451Z" transform="translate(230.215 111.683)" fill="#263238"/>
          <path id="Path_4604" data-name="Path 4604" d="M288.632,130.67a10.768,10.768,0,0,1,.933,4.362,11.217,11.217,0,0,1,0,4.469A21.216,21.216,0,0,1,288.632,130.67Z" transform="translate(229.339 103.869)" fill="#263238"/>
          <path id="Path_4605" data-name="Path 4605" d="M288.058,120.81a11.236,11.236,0,0,1,.718,4.4,11.469,11.469,0,0,1-.215,4.469,10.465,10.465,0,0,1-.718-4.415,10.608,10.608,0,0,1,.215-4.451Z" transform="translate(228.693 96.031)" fill="#263238"/>
          <path id="Path_4606" data-name="Path 4606" d="M288.032,110.92a11.415,11.415,0,0,1,.449,4.451,10.77,10.77,0,0,1-.5,4.433,11.164,11.164,0,0,1-.431-4.451,10.915,10.915,0,0,1,.485-4.433Z" transform="translate(228.521 88.17)" fill="#263238"/>
          <path id="Path_4607" data-name="Path 4607" d="M288.859,101.06a11.164,11.164,0,0,1,.108,4.469,11.308,11.308,0,0,1-.844,4.4,10.913,10.913,0,0,1-.09-4.469,11.022,11.022,0,0,1,.826-4.4Z" transform="translate(228.807 80.332)" fill="#263238"/>
          <path id="Path_4608" data-name="Path 4608" d="M290.63,91.29a11.218,11.218,0,0,1-.305,4.451,11.163,11.163,0,0,1-1.238,4.29,10.77,10.77,0,0,1,.305-4.451,10.9,10.9,0,0,1,1.239-4.29Z" transform="translate(229.71 72.566)" fill="#263238"/>
          <path id="Path_4609" data-name="Path 4609" d="M293.573,81.73a11.109,11.109,0,0,1-.808,4.4,10.893,10.893,0,0,1-1.795,4.11,10.948,10.948,0,0,1,.826-4.38,11.02,11.02,0,0,1,1.777-4.128Z" transform="translate(231.29 64.967)" fill="#263238"/>
          <path id="Path_4610" data-name="Path 4610" d="M297.71,72.57a11.039,11.039,0,0,1-1.364,4.254c-.987,2.226-1.974,3.967-2.226,3.859a11.094,11.094,0,0,1,1.364-4.236A10.769,10.769,0,0,1,297.71,72.57Z" transform="translate(233.795 57.686)" fill="#263238"/>
          <path id="Path_4611" data-name="Path 4611" d="M302.967,63.943A11.091,11.091,0,0,1,301.082,68a13.863,13.863,0,0,1-2.692,3.59,10.518,10.518,0,0,1,1.885-4.039C301.549,65.4,302.752,63.817,302.967,63.943Z" transform="translate(237.189 50.822)" fill="#263238"/>
          <path id="Path_4612" data-name="Path 4612" d="M309.345,56a11.218,11.218,0,0,1-2.423,3.751c-1.526,1.9-2.944,3.3-3.141,3.159s.862-1.795,2.405-3.751S309.147,55.9,309.345,56Z" transform="translate(241.455 44.511)" fill="#263238"/>
          <path id="Path_4613" data-name="Path 4613" d="M316.8,49.1c.162.2-1.149,1.705-2.962,3.339s-3.392,2.836-3.59,2.656,1.149-1.687,2.962-3.339S316.638,48.935,316.8,49.1Z" transform="translate(246.6 39.015)" fill="#263238"/>
          <path id="Path_4614" data-name="Path 4614" d="M325.312,43.41c.126.233-1.436,1.472-3.482,2.782a11.074,11.074,0,0,1-3.985,1.992c-.162-.215,1.4-1.454,3.482-2.782A11,11,0,0,1,325.312,43.41Z" transform="translate(252.644 34.506)" fill="#263238"/>
          <path id="Path_4615" data-name="Path 4615" d="M334.664,39.36a11.074,11.074,0,0,1-3.967,2.046,10.913,10.913,0,0,1-4.308,1.185,10.913,10.913,0,0,1,3.931-2.082,10.769,10.769,0,0,1,4.344-1.149Z" transform="translate(259.446 31.287)" fill="#263238"/>
          <path id="Path_4616" data-name="Path 4616" d="M340.149,37.661c0,.251-.915.646-2.118.88s-2.226.215-2.28,0,.879-.646,2.1-.88S340.095,37.409,340.149,37.661Z" transform="translate(266.885 29.792)" fill="#263238"/>
        </g>
        <g id="Group_851" data-name="Group 851" transform="translate(29.023 24.63)">
          <rect id="Rectangle_468" data-name="Rectangle 468" width="56.688" height="84.099" transform="translate(479.09 52.91) rotate(-68.86)" fill="#537895"/>
          <path id="Path_4617" data-name="Path 4617" d="M345.4,83.285h0L266.9,52.921h0L287.376,0h0l78.477,30.341h0ZM267.013,52.9l78.4,30.307,20.42-52.819L287.376.068Z" transform="translate(212.158)" fill="#263238"/>
          <path id="Path_4618" data-name="Path 4618" d="M363.454,31.01a6.326,6.326,0,0,1-1.007.43L359.529,32.5l-10.815,3.8L312.875,48.612l-.294.1-.158-.272c-.113-.215-.249-.43-.373-.656-7.512-12.953-14.3-24.662-19.232-33.237-2.432-4.208-4.423-7.647-5.781-10.114-.645-1.131-1.131-2.07-1.539-2.76a6.577,6.577,0,0,1-.5-1,6.252,6.252,0,0,1,.622.916l1.64,2.692,5.973,9.989,19.469,33.146c.124.226.26.441.385.656l-.453-.17,35.907-12.093,10.883-3.575,2.975-.928a6.708,6.708,0,0,1,1.052-.305Z" transform="translate(214.534 0.089)" fill="#263238"/>
          <path id="Path_4619" data-name="Path 4619" d="M266.94,49.917c-.1-.192,8.6-5.159,19.424-11.1s19.707-10.6,19.809-10.419-8.62,5.2-19.435,11.087S267.008,50.1,266.94,49.917Z" transform="translate(212.163 3.728)" fill="#263238"/>
          <path id="Path_4620" data-name="Path 4620" d="M324.891,36.73c.2-.068,3.247,9.39,6.788,21.1s6.267,21.268,6.075,21.325-3.247-9.39-6.788-21.1S324.688,36.787,324.891,36.73Z" transform="translate(219.769 4.822)" fill="#263238"/>
        </g>
      </g>
      <g id="Group_859" data-name="Group 859">
        <g id="Group_855" data-name="Group 855">
          <path id="Path_4621" data-name="Path 4621" d="M263.909,171c.269,0,.395,1.041.287,2.28s-.395,2.226-.646,2.208-.377-1.059-.287-2.28S263.658,171,263.909,171Z" transform="translate(209.243 135.927)" fill="#263238"/>
          <path id="Path_4622" data-name="Path 4622" d="M264.11,160.81a11.5,11.5,0,0,1,.449,4.559,11.756,11.756,0,0,1-.467,4.577,11.432,11.432,0,0,1-.467-4.577,11.128,11.128,0,0,1,.485-4.559Z" transform="translate(209.509 127.827)" fill="#263238"/>
          <path id="Path_4623" data-name="Path 4623" d="M263.285,150.66a11.7,11.7,0,0,1,.879,4.505,11.183,11.183,0,0,1,0,4.595,11.916,11.916,0,0,1-.879-4.505A11.219,11.219,0,0,1,263.285,150.66Z" transform="translate(209.095 119.759)" fill="#263238"/>
          <path id="Path_4624" data-name="Path 4624" d="M261.5,140.638a11.542,11.542,0,0,1,1.328,4.4,11.7,11.7,0,0,1,.431,4.559,22.076,22.076,0,0,1-1.795-8.974Z" transform="translate(207.833 111.778)" fill="#263238"/>
          <path id="Path_4625" data-name="Path 4625" d="M258.72,130.84a11.847,11.847,0,0,1,1.795,4.218,12.133,12.133,0,0,1,.933,4.505,11.7,11.7,0,0,1-1.795-4.218A11.4,11.4,0,0,1,258.72,130.84Z" transform="translate(205.655 104.004)" fill="#263238"/>
          <path id="Path_4626" data-name="Path 4626" d="M254.83,121.45a11.236,11.236,0,0,1,2.3,3.967,11.631,11.631,0,0,1,1.454,4.362,22.2,22.2,0,0,1-3.751-8.328Z" transform="translate(202.563 96.54)" fill="#263238"/>
          <path id="Path_4627" data-name="Path 4627" d="M249.78,112.624c.2-.144,1.49,1.472,2.854,3.59a11.416,11.416,0,0,1,1.939,4.164c-.233.126-1.454-1.508-2.728-3.59A11.738,11.738,0,0,1,249.78,112.624Z" transform="translate(198.549 89.517)" fill="#263238"/>
          <path id="Path_4628" data-name="Path 4628" d="M243.54,104.586c.2-.162,1.669,1.274,3.285,3.213s2.782,3.59,2.567,3.805-1.669-1.274-3.285-3.195a12.133,12.133,0,0,1-2.567-3.823Z" transform="translate(193.589 83.125)" fill="#263238"/>
          <path id="Path_4629" data-name="Path 4629" d="M236.246,97.519c.162-.2,1.795,1.023,3.7,2.71s3.267,3.213,3.087,3.41a11.989,11.989,0,0,1-3.626-2.71C237.466,99.242,236.084,97.717,236.246,97.519Z" transform="translate(187.78 77.501)" fill="#263238"/>
          <path id="Path_4630" data-name="Path 4630" d="M228,91.56a11.667,11.667,0,0,1,4.056,2.154c2.118,1.4,3.7,2.71,3.59,2.908a11.272,11.272,0,0,1-4.056-2.136C229.44,93.1,227.86,91.793,228,91.56Z" transform="translate(181.232 72.781)" fill="#263238"/>
          <path id="Path_4631" data-name="Path 4631" d="M218.93,87a11.093,11.093,0,0,1,4.344,1.472,11.505,11.505,0,0,1,3.949,2.351,12.3,12.3,0,0,1-4.344-1.49A12.009,12.009,0,0,1,218.93,87Z" transform="translate(174.026 69.156)" fill="#263238"/>
          <path id="Path_4632" data-name="Path 4632" d="M209.24,83.884a11.344,11.344,0,0,1,4.523.736,11.846,11.846,0,0,1,4.29,1.633,11.272,11.272,0,0,1-4.523-.736,11.632,11.632,0,0,1-4.29-1.633Z" transform="translate(166.324 66.671)" fill="#263238"/>
          <path id="Path_4633" data-name="Path 4633" d="M199.16,82.745a11.577,11.577,0,0,1,4.595-.215,11.721,11.721,0,0,1,4.505.951,11.613,11.613,0,0,1-4.577,0A11.344,11.344,0,0,1,199.16,82.745Z" transform="translate(158.311 65.495)" fill="#263238"/>
          <path id="Path_4634" data-name="Path 4634" d="M189,83.8a22.364,22.364,0,0,1,8.974-1.077,12.026,12.026,0,0,1-4.487,1.005A11.846,11.846,0,0,1,189,83.8Z" transform="translate(150.235 65.695)" fill="#263238"/>
          <path id="Path_4635" data-name="Path 4635" d="M179.2,87.116a11.146,11.146,0,0,1,4.2-1.795,11.954,11.954,0,0,1,4.487-.951,11.38,11.38,0,0,1-4.2,1.795,11.5,11.5,0,0,1-4.487.951Z" transform="translate(142.445 67.065)" fill="#263238"/>
          <path id="Path_4636" data-name="Path 4636" d="M170,92.25c-.144-.215,1.562-1.382,3.787-2.585a11.488,11.488,0,0,1,4.236-1.795,11.775,11.775,0,0,1-3.787,2.585A12.008,12.008,0,0,1,170,92.25Z" transform="translate(135.128 69.848)" fill="#263238"/>
          <path id="Path_4637" data-name="Path 4637" d="M161.917,99.023c-.18-.2,1.256-1.669,3.213-3.285s3.59-2.782,3.805-2.567-1.274,1.669-3.213,3.285A11.955,11.955,0,0,1,161.917,99.023Z" transform="translate(128.695 74.041)" fill="#263238"/>
          <path id="Path_4638" data-name="Path 4638" d="M155.26,107.292a10.483,10.483,0,0,1,2.333-3.967c1.544-2.01,3.069-3.428,3.267-3.249a13.569,13.569,0,0,1-2.477,3.823C156.786,105.874,155.493,107.436,155.26,107.292Z" transform="translate(123.415 79.539)" fill="#263238"/>
          <path id="Path_4639" data-name="Path 4639" d="M151.59,112.488c-.233-.108,0-1.113.574-2.226s1.167-1.938,1.4-1.795,0,1.113-.574,2.226S151.841,112.578,151.59,112.488Z" transform="translate(120.427 86.207)" fill="#263238"/>
          <g id="Group_849" data-name="Group 849" transform="translate(-25 122.854)">
            <rect id="Rectangle_465" data-name="Rectangle 465" width="65.065" height="96.529" transform="translate(238.303 84.144) rotate(-77)" fill="#f5f5f5"/>
            <path id="Path_4539" data-name="Path 4539" d="M235.053,33.772a7.376,7.376,0,0,1-1.059.628l-3.159,1.687-11.667,6.085-38.68,19.8-.323.162-.215-.287-.538-.664L152.128,26.539l-8.185-10.554c-.9-1.2-1.633-2.172-2.19-2.89A7.9,7.9,0,0,1,141,12a5.764,5.764,0,0,1,.862.951l2.315,2.782,8.4,10.392,27.48,34.462.538.682-.538-.108L218.9,41.616,230.745,35.8l3.213-1.544a5.386,5.386,0,0,1,1.095-.485Z" transform="translate(112.08 9.539)" fill="#e0e0e0"/>
            <path id="Path_4540" data-name="Path 4540" d="M132.851,60.99c-.144-.179,8.974-7.18,20.264-15.759s20.659-15.239,20.8-15.059-8.974,7.18-20.264,15.759S132.994,61.187,132.851,60.99Z" transform="translate(105.601 23.98)" fill="#e0e0e0"/>
            <path id="Path_4541" data-name="Path 4541" d="M173.264,33.75c.215,0,5.205,10.141,11.146,22.885S195,79.771,194.785,79.969s-5.223-10.231-11.218-22.975S173.031,33.858,173.264,33.75Z" transform="translate(137.72 26.828)" fill="#e0e0e0"/>
          </g>
        </g>
      </g>
      <g id="Group_862" data-name="Group 862">
        <g id="Group_854" data-name="Group 854">
          <path id="Path_4640" data-name="Path 4640" d="M88,170.062c0-.251.951-.592,2.154-.736s2.244,0,2.3.2-.933.574-2.172.736S88,170.313,88,170.062Z" transform="translate(69.951 134.55)" fill="#263238"/>
          <path id="Path_4641" data-name="Path 4641" d="M78.11,168.59a14.143,14.143,0,0,1,4.451.664,14.555,14.555,0,0,1,4.344,1.167,9.19,9.19,0,0,1-4.541-.251,9.514,9.514,0,0,1-4.254-1.579Z" transform="translate(62.089 134.011)" fill="#263238"/>
          <path id="Path_4642" data-name="Path 4642" d="M69.164,164.16a13.228,13.228,0,0,1,4.021,2.046c2.118,1.256,3.823,2.315,3.7,2.549A9.477,9.477,0,0,1,72.7,166.96C70.546,165.668,69.021,164.375,69.164,164.16Z" transform="translate(54.971 130.49)" fill="#263238"/>
          <path id="Path_4643" data-name="Path 4643" d="M61.73,157.486c.2-.162,1.669,1.2,3.41,2.962s3.087,3.231,2.908,3.428-1.795-.987-3.59-2.782S61.532,157.647,61.73,157.486Z" transform="translate(49.051 125.174)" fill="#263238"/>
          <path id="Path_4644" data-name="Path 4644" d="M55.84,149.383c.215-.126,1.49,1.436,2.854,3.59a11.29,11.29,0,0,1,2.064,4.021c-.2.162-1.49-1.418-2.854-3.5a11.021,11.021,0,0,1-2.064-4.11Z" transform="translate(44.387 118.738)" fill="#263238"/>
          <path id="Path_4645" data-name="Path 4645" d="M51.52,140.35a11.38,11.38,0,0,1,2.19,3.949,11.218,11.218,0,0,1,1.328,4.326,11.146,11.146,0,0,1-2.19-3.967,10.769,10.769,0,0,1-1.328-4.308Z" transform="translate(40.953 111.563)" fill="#263238"/>
          <path id="Path_4646" data-name="Path 4646" d="M48.647,130.75a11.236,11.236,0,0,1,1.6,4.236,11.128,11.128,0,0,1,.682,4.469,11.6,11.6,0,0,1-1.58-4.236,11,11,0,0,1-.7-4.469Z" transform="translate(38.657 103.933)" fill="#263238"/>
          <path id="Path_4647" data-name="Path 4647" d="M46.966,120.88a22.113,22.113,0,0,1,1.346,8.974,11.469,11.469,0,0,1-1.167-4.451,11.272,11.272,0,0,1-.179-4.523Z" transform="translate(37.215 96.087)" fill="#263238"/>
          <path id="Path_4648" data-name="Path 4648" d="M46.045,110.9a11.38,11.38,0,0,1,.826,4.451,11.577,11.577,0,0,1,0,4.523,11.2,11.2,0,0,1-.844-4.451A11.379,11.379,0,0,1,46.045,110.9Z" transform="translate(36.413 88.154)" fill="#263238"/>
          <path id="Path_4649" data-name="Path 4649" d="M45.694,103.4c.251,0,.5.969.574,2.208s-.108,2.262-.359,2.262-.521-.969-.574-2.208S45.425,103.4,45.694,103.4Z" transform="translate(36.028 82.192)" fill="#263238"/>
        </g>
        <g id="Group_850" data-name="Group 850" transform="translate(14.607 10.29)">
          <rect id="Rectangle_469" data-name="Rectangle 469" width="121.162" height="81.673" transform="matrix(0.999, -0.047, 0.047, 0.999, 0.035, 82.462)" fill="#537895"/>
          <path id="Path_4650" data-name="Path 4650" d="M3.843,130.1h0L0,48.446H0L121.1,42.74h0l3.843,81.614h0ZM.073,48.591,3.916,130.1,124.874,124.4l-3.843-81.512Z" transform="translate(0 33.974)" fill="#263238"/>
          <path id="Path_4651" data-name="Path 4651" d="M121.351,43.43a7.278,7.278,0,0,1-1.063,1.135l-3.231,3.115L105.02,58.99,64.962,96.064l-.335.306-.364-.262-.888-.64L18.66,62.891,5.182,52.906,1.543,50.155A10.524,10.524,0,0,1,.32,49.136a8.18,8.18,0,0,1,1.354.844l3.755,2.591,13.682,9.68,44.9,32.328.888.64h-.7C79.911,80.882,94.132,67.9,104.5,58.408L116.766,47.36l3.362-2.911A9.432,9.432,0,0,1,121.351,43.43Z" transform="translate(0.146 34.288)" fill="#263238"/>
          <path id="Path_4652" data-name="Path 4652" d="M3,119.413c-.247-.175,8.326-11.79,19.141-25.924S41.88,68.031,42.128,68.221s-8.34,11.79-19.155,25.88S3.191,119.6,3,119.413Z" transform="translate(1.365 45.581)" fill="#263238"/>
          <path id="Path_4653" data-name="Path 4653" d="M57.481,66.221c.233-.2,9.752,10.48,21.266,23.842s20.64,24.366,20.378,24.57-9.752-10.48-21.266-23.857S57.263,66.41,57.481,66.221Z" transform="translate(26.185 44.67)" fill="#263238"/>
        </g>
      </g>
    </g>
  </g>
</svg>
