<svg xmlns="http://www.w3.org/2000/svg" width="114" height="117" viewBox="0 0 114 117">
  <g id="Layer_2" data-name="Layer 2" transform="translate(0.002 0.003)">
    <g id="Email" transform="translate(-0.002 -0.003)">
      <path id="Path_4654" data-name="Path 4654" d="M.683,55.887,110.776,54.85,114,130.042,0,129.215Z" transform="translate(0.002 -13.043)" fill="#537895"/>
      <path id="Path_4655" data-name="Path 4655" d="M.88,43.811l52-42.462a5.962,5.962,0,0,1,7.559,0l50.509,41.417" transform="translate(-0.192 0.003)" fill="#537895"/>
      <g id="Group_864" data-name="Group 864" transform="translate(0.688)" opacity="0.3">
        <path id="Path_4656" data-name="Path 4656" d="M.88,43.811l52-42.462a5.962,5.962,0,0,1,7.559,0l50.509,41.417" transform="translate(-0.88 0.003)"/>
      </g>
      <path id="Path_4657" data-name="Path 4657" d="M0,138.127c-.14-.125,8.7-9.81,19.73-21.625s20.1-21.3,20.276-21.173-8.734,9.818-19.777,21.64S.14,138.26,0,138.127Z" transform="translate(0.002 -21.955)" fill="#263238"/>
      <path id="Path_4658" data-name="Path 4658" d="M136.1,139.218c-.14.125-8.781-9.358-19.3-21.11S97.867,96.654,98,96.53s8.781,9.358,19.309,21.118S136.212,139.093,136.1,139.218Z" transform="translate(-22.103 -22.219)" fill="#263238"/>
      <g id="Group_865" data-name="Group 865" transform="translate(0.688 42.212)" opacity="0.5">
        <path id="Path_4659" data-name="Path 4659" d="M110.955,54.85,55.774,99.332.88,55.887" transform="translate(-0.88 -54.85)"/>
      </g>
      <path id="Path_4660" data-name="Path 4660" d="M7.968,51.3,7.72,16.759l96.325-1.349L105.2,51.75,57.267,90.072Z" transform="translate(-1.698 -3.391)" fill="#fafafa"/>
      <path id="Path_4661" data-name="Path 4661" d="M7.908,51.241s.318.234.907.694,1.481,1.146,2.629,2.035l9.967,7.8L57.339,89.9h-.2l47.911-38.345-.07.164c-.225-6.933-.458-14.209-.7-21.609-.155-4.983-.31-9.9-.465-14.731l.2.195L7.7,16.827l.124-.125c.085,10.855.085,19.48.085,25.407v6.808c0-1.56-.047-3.813-.078-6.761-.054-5.935-.14-14.575-.24-25.454v-.109h.132l96.287-1.443h.2v.195c.155,4.827.31,9.756.465,14.739.24,7.4.473,14.677.69,21.609v.1l-.085.062L57.324,90.147l-.1.078-.1-.078L21.288,61.823l-9.9-7.8L8.808,51.958C8.226,51.49,7.908,51.241,7.908,51.241Z" transform="translate(-1.669 -3.333)" fill="#263238"/>
      <path id="Path_4662" data-name="Path 4662" d="M93.651,37.732c0,.117-14.817.328-33.081.476s-33.081.179-33.081.07,14.817-.328,33.081-.476S93.651,37.622,93.651,37.732Z" transform="translate(-6.285 -8.533)" fill="#263238"/>
      <path id="Path_4663" data-name="Path 4663" d="M93.674,50.25c0,.109-14.817.32-33.073.468s-33.081.179-33.081.07,14.817-.328,33.081-.476S93.674,50.133,93.674,50.25Z" transform="translate(-6.292 -11.369)" fill="#263238"/>
      <path id="Path_4664" data-name="Path 4664" d="M93.7,64.67c0,.109-14.817.32-33.073.468s-33.081.179-33.081.07,14.817-.328,33.081-.476S93.7,64.553,93.7,64.67Z" transform="translate(-6.299 -14.636)" fill="#263238"/>
      <path id="Path_4665" data-name="Path 4665" d="M94.592,79.093c0,.109-14.123.32-31.552.46s-31.56.164-31.56.055,14.123-.32,31.56-.46S94.592,79.008,94.592,79.093Z" transform="translate(-7.182 -17.908)" fill="#263238"/>
      <path id="Path_4666" data-name="Path 4666" d="M85.779,91.8a1.349,1.349,0,0,1-.39.047l-1.115.047-4.086.1-13.5.242c-5.272.1-10.052.133-13.507.125h-5.2a1.887,1.887,0,0,1-.39,0,1.287,1.287,0,0,1,.39-.047l1.107-.047,4.094-.1,13.5-.25c5.272-.094,10.044-.125,13.5-.125h5.209a1.606,1.606,0,0,1,.39.008Z" transform="translate(-10.733 -20.795)" fill="#263238"/>
      <path id="Path_4667" data-name="Path 4667" d="M76.627,103.939a62.049,62.049,0,0,1-7.019.218,62.384,62.384,0,0,1-7.019-.187,59.839,59.839,0,0,1,7.019-.218,62.479,62.479,0,0,1,7.019.187Z" transform="translate(-14.036 -23.502)" fill="#263238"/>
    </g>
  </g>
</svg>
