<svg xmlns="http://www.w3.org/2000/svg" width="47" height="35" viewBox="0 0 47 35">
  <g id="Layer_1" data-name="Layer 1" transform="translate(-4.347 -12.804)">
    <path id="Path_4474" data-name="Path 4474" d="M7.716,37.269V14.923c0-1.462.618-2.1,2.012-2.1H46a1.691,1.691,0,0,1,1.5.513,1.858,1.858,0,0,1,.48,1.568v4.856c.348.083.681.124.99.223a3.4,3.4,0,0,1,2.376,3.262V44.4a3.515,3.515,0,0,1-1.015,2.444,3.229,3.229,0,0,1-2.383.958H9.561a5.009,5.009,0,0,1-5.124-4.542,12.163,12.163,0,0,1,0-2.94,3.31,3.31,0,0,1,2.709-2.94C7.3,37.335,7.494,37.311,7.716,37.269ZM44.6,16.36H11.113V37.311c2.978,0,5.916.066,8.847,0a3.338,3.338,0,0,1,3.168,1.412.925.925,0,0,0,.863.38h7.651a1.082,1.082,0,0,0,.894-.327,1.185,1.185,0,0,0,.325-.928V23.586a3.588,3.588,0,0,1,.971-2.748,3.281,3.281,0,0,1,2.633-1.018H44.6Zm-8.324,6.986V44.264H47.95V23.346ZM7.716,40.8v1.437a1.859,1.859,0,0,0,.473,1.594,1.691,1.691,0,0,0,1.523.512H32.854V42.555h-.586c-2.756,0-5.544-.066-8.277,0a3.346,3.346,0,0,1-3.168-1.412.9.9,0,0,0-.911-.339Z" transform="translate(0 0)" fill="#537895"/>
    <path id="Path_4475" data-name="Path 4475" d="M45.356,17.11v3.57H37.472a3.081,3.081,0,0,0-2.521,1.047,3.843,3.843,0,0,0-.949,2.8V39.238a1.271,1.271,0,0,1-.315.958,1.014,1.014,0,0,1-.867.337H25.4a.875.875,0,0,1-.837-.392A3.159,3.159,0,0,0,21.5,38.684c-2.841.1-5.689,0-8.575,0V17.11Z" transform="translate(-1.268 -0.637)" fill="#fff"/>
    <path id="Path_4476" data-name="Path 4476" d="M44.66,25.57H57.22V47.153H44.66Zm6.254,19.819h.963a1.8,1.8,0,1,0,0-3.6H49.909a1.8,1.8,0,0,0,0,3.587C50.267,45.406,50.607,45.389,50.914,45.389Z" transform="translate(-9.527 -3.001)" fill="#fff"/>
    <path id="Path_4477" data-name="Path 4477" d="M8.6,46.708H21.718a.988.988,0,0,1,.929.383,3.664,3.664,0,0,0,3.408,1.457c2.965-.1,5.964,0,8.9,0h.631v1.815H10.743A1.866,1.866,0,0,1,8.6,48.233Z" transform="translate(-0.625 -6.127)" fill="#537895" stroke="#537895" stroke-width="1"/>
    <path id="Path_4478" data-name="Path 4478" d="M51.528,48.207H50.514a1.8,1.8,0,0,1,0-3.587h1.968a1.8,1.8,0,0,1,0,3.6C52.193,48.224,51.877,48.207,51.528,48.207Z" transform="translate(-10.141 -5.828)" fill="#537895"/>
  </g>
</svg>
