<svg xmlns="http://www.w3.org/2000/svg" xmlns:xlink="http://www.w3.org/1999/xlink" width="73" height="75" viewBox="0 0 73 75">
  <defs>
    <clipPath id="clip-path">
      <rect id="Rectangle_33" data-name="Rectangle 33" width="73" height="75" transform="translate(0 -0.137)" fill="#fff"/>
    </clipPath>
  </defs>
  <g id="icon9" transform="translate(0 0.137)" clip-path="url(#clip-path)">
    <path id="Path_3338" data-name="Path 3338" d="M0,35.019A9.832,9.832,0,0,1,9.576,24.967H38.3a9.832,9.832,0,0,1,9.576,10.052V65.174A9.832,9.832,0,0,1,38.3,75.226H9.576A9.832,9.832,0,0,1,0,65.174Z" transform="translate(23.768 -24.769)" fill="#27ae60" fill-rule="evenodd"/>
    <path id="Path_3339" data-name="Path 3339" d="M17.786,57.106l4.573-6.987-3.843-6.2a11.646,11.646,0,0,1-.816-1.555,3.475,3.475,0,0,1-.258-1.24,1.445,1.445,0,0,1,.515-1.1,1.8,1.8,0,0,1,1.288-.5,1.646,1.646,0,0,1,.71.123,1.714,1.714,0,0,1,.6.418,13.5,13.5,0,0,1,1.331,1.961l3.07,5.184,3.264-5.184.666-1.127.558-.766a1.725,1.725,0,0,1,.611-.464,2.049,2.049,0,0,1,1.423-.033,1.706,1.706,0,0,1,.585.384,1.559,1.559,0,0,1,.494,1.149,5.321,5.321,0,0,1-1.074,2.659l-4.015,6.311,4.337,6.987c.386.586.644,1.127.859,1.51a3.329,3.329,0,0,1,.236,1.127,1.872,1.872,0,0,1-.234.944,1.758,1.758,0,0,1-.668.678,1.919,1.919,0,0,1-.966.225,1.774,1.774,0,0,1-.988-.225,2.066,2.066,0,0,1-.644-.654c-.172-.225-.472-.744-.945-1.465l-3.586-5.928-3.8,6.085-.644,1.037a2.59,2.59,0,0,1-.429.563,1.927,1.927,0,0,1-.678.472,1.85,1.85,0,0,1-.8.137,1.732,1.732,0,0,1-1.245-.473,1.944,1.944,0,0,1-.494-1.42,5.155,5.155,0,0,1,1.031-2.637Z" transform="translate(22.3 -25.265)" fill="#fff"/>
    <path id="Path_3340" data-name="Path 3340" d="M9.576,3.831H38.3a5.808,5.808,0,0,1,4.2,1.821,6.4,6.4,0,0,1,1.749,4.4V40.208a6.4,6.4,0,0,1-1.742,4.414A5.808,5.808,0,0,1,38.3,46.451H26.538v3.831H38.3A9.823,9.823,0,0,0,47.88,40.208V10.052A9.832,9.832,0,0,0,38.3,0H9.576A9.832,9.832,0,0,0,0,10.052V21.907H3.65V10.052A6.4,6.4,0,0,1,5.384,5.645,5.81,5.81,0,0,1,9.576,3.809Z" transform="translate(49.526 73.184) rotate(180)" fill="#27ae60" fill-rule="evenodd"/>
    <path id="Path_3341" data-name="Path 3341" d="M0,1.916A1.87,1.87,0,0,1,1.825,0H21.471a1.782,1.782,0,0,1,1.29.561,1.984,1.984,0,0,1,0,2.709,1.782,1.782,0,0,1-1.29.561H1.825a1.749,1.749,0,0,1-.7-.146A1.821,1.821,0,0,1,.535,3.27a1.923,1.923,0,0,1-.4-.621A2,2,0,0,1,0,1.916Z" transform="translate(37.159 59.684) rotate(180)" fill="#27ae60" fill-rule="evenodd"/>
    <path id="Path_3342" data-name="Path 3342" d="M38.3,0A9.818,9.818,0,0,1,47.88,10.052V40.208A9.832,9.832,0,0,1,38.3,50.26H26.538V46.428H38.3a5.808,5.808,0,0,0,4.2-1.821,6.4,6.4,0,0,0,1.749-4.4V10.052a6.4,6.4,0,0,0-1.742-4.414A5.808,5.808,0,0,0,38.3,3.809H9.576A5.81,5.81,0,0,0,5.384,5.645,6.4,6.4,0,0,0,3.65,10.052V21.907H0V10.052A9.832,9.832,0,0,1,9.576,0Z" transform="translate(49.526 73.184) rotate(180)" fill="#27ae60" fill-rule="evenodd"/>
    <path id="Path_3343" data-name="Path 3343" d="M0,1.916C0,.856.623,0,1.374,0H7.386c.751,0,1.353.856,1.353,1.916,0,1.037-.6,1.893-1.374,1.893H1.353C.623,3.809,0,2.952,0,1.916Zm0,9.421A1.87,1.87,0,0,1,1.825,9.421H6.914a1.783,1.783,0,0,1,1.29.561,1.984,1.984,0,0,1,0,2.709,1.783,1.783,0,0,1-1.29.561H1.825a1.782,1.782,0,0,1-1.29-.561A1.965,1.965,0,0,1,0,11.337Z" transform="translate(22.602 50.263) rotate(180)" fill="#27ae60" fill-rule="evenodd"/>
  </g>
</svg>
