<svg xmlns="http://www.w3.org/2000/svg" xmlns:xlink="http://www.w3.org/1999/xlink" width="76" height="74" viewBox="0 0 76 74">
  <defs>
    <clipPath id="clip-path">
      <rect id="Rectangle_11" data-name="Rectangle 11" width="76" height="74" fill="#fff"/>
    </clipPath>
  </defs>
  <g id="icon5" clip-path="url(#clip-path)">
    <path id="Path_41" data-name="Path 41" d="M39.878,27.806H9.969A6.2,6.2,0,0,0,3.778,34V64A6.2,6.2,0,0,0,9.969,70.21H39.878A6.2,6.2,0,0,0,46.069,64V34a6.2,6.2,0,0,0-6.192-6.212ZM9.969,23.994A9.994,9.994,0,0,0,0,34V64A9.994,9.994,0,0,0,9.969,74H39.878a9.994,9.994,0,0,0,9.969-10V34a9.994,9.994,0,0,0-9.969-10Z" fill="#9b59b6" fill-rule="evenodd"/>
    <path id="Path_42" data-name="Path 42" d="M34.714,3.812H64.622A6.2,6.2,0,0,1,70.814,10V40a6.2,6.2,0,0,1-6.192,6.212H52.373v3.79H64.622a9.98,9.98,0,0,0,9.969-10V10A9.995,9.995,0,0,0,64.622,0H34.714a9.994,9.994,0,0,0-9.969,10V21.8h3.8V10A6.2,6.2,0,0,1,34.714,3.79Z" fill="#9b59b6" fill-rule="evenodd"/>
    <path id="Path_43" data-name="Path 43" d="M24.856,10.315A10.123,10.123,0,0,1,34.96.179H64.51a10.109,10.109,0,0,1,10.1,10.136V39.96A10.109,10.109,0,0,1,64.51,50.1H52.574V31.8H63.706a.788.788,0,0,0,.626-1.278L54.273,17.67a.781.781,0,0,0-1.229,0l-4.716,5.785a10.038,10.038,0,0,0-5.856-1.884H24.856ZM12.7,39.063a1.9,1.9,0,0,1,1.9-1.906H35.049a1.906,1.906,0,0,1,0,3.812H14.6a1.9,1.9,0,0,1-1.9-1.906Zm0,10.069a1.9,1.9,0,0,1,1.9-1.906H35.049a1.906,1.906,0,0,1,0,3.812H14.6a1.9,1.9,0,0,1-1.9-1.906Zm0,10.069a1.9,1.9,0,0,1,1.9-1.884H35.049a1.906,1.906,0,0,1,0,3.812H14.6a1.9,1.9,0,0,1-1.9-1.906Z" fill="#9b59b6" fill-rule="evenodd"/>
  </g>
</svg>
