<svg xmlns="http://www.w3.org/2000/svg" xmlns:xlink="http://www.w3.org/1999/xlink" width="73" height="75" viewBox="0 0 73 75">
  <defs>
    <clipPath id="clip-path">
      <rect id="Rectangle_34" data-name="Rectangle 34" width="73" height="75" transform="translate(-0.431 0.298)" fill="#fff"/>
    </clipPath>
  </defs>
  <g id="icon8" transform="translate(0.431 -0.298)" clip-path="url(#clip-path)">
    <path id="Path_3344" data-name="Path 3344" d="M0,36.132c0-5.791,4.279-10.493,9.548-10.493H37.433c5.269,0,9.548,4.7,9.548,10.493V66.778c0,5.791-4.279,10.493-9.548,10.493H9.548A9.133,9.133,0,0,1,2.8,74.2,11.043,11.043,0,0,1,0,66.778Z" transform="translate(23.592 -25.341)" fill="#d35400"/>
    <path id="Path_3345" data-name="Path 3345" d="M22.231,43.8v8.107a.3.3,0,0,0,.232.3,18.165,18.165,0,0,0,2.55.209,5.638,5.638,0,0,0,3.794-1.158,4.466,4.466,0,0,0,1.307-3.428,4.149,4.149,0,0,0-1.286-3.336,5.448,5.448,0,0,0-3.794-1.158,18.111,18.111,0,0,0-2.571.162A.274.274,0,0,0,22.231,43.8Zm-.464,19.064a1.476,1.476,0,0,1-.492.364,1.565,1.565,0,0,1-1.175.015,1.468,1.468,0,0,1-.5-.357,1.64,1.64,0,0,1-.34-.562,1.765,1.765,0,0,1-.1-.666V42.826a2.268,2.268,0,0,1,.421-1.32,1.624,1.624,0,0,1,.507-.457,1.475,1.475,0,0,1,.632-.192,45.05,45.05,0,0,1,4.595-.232c2.571,0,4.511.579,5.839,1.807a6.415,6.415,0,0,1,1.981,5.1q0,7.54-7.82,7.528c-1.117,0-2.066-.046-2.867-.116-.147,0-.211.069-.211.232v6.486a1.762,1.762,0,0,1-.116.656A1.632,1.632,0,0,1,21.768,62.863Z" transform="translate(21.384 -25.827)" fill="#fff"/>
    <path id="Path_3346" data-name="Path 3346" d="M9.379,3.938H37.623a5.585,5.585,0,0,1,4.128,1.879,6.752,6.752,0,0,1,1.71,4.537v31.04a6.749,6.749,0,0,1-1.717,4.522,5.584,5.584,0,0,1-4.121,1.871H26.052v3.938H37.644c5.185,0,9.4-4.633,9.4-10.354V10.331C47.045,4.633,42.829,0,37.623,0H9.379C4.215,0,0,4.633,0,10.354V22.539H3.583V10.354a6.754,6.754,0,0,1,1.7-4.529A5.588,5.588,0,0,1,9.4,3.938Z" transform="translate(48.41 74.03) rotate(180)" fill="#d35400" fill-rule="evenodd"/>
    <path id="Path_3347" data-name="Path 3347" d="M0,1.946A1.876,1.876,0,0,1,1.771,0H21.1a1.714,1.714,0,0,1,1.267.577,2.072,2.072,0,0,1,.525,1.392,2.072,2.072,0,0,1-.525,1.392,1.714,1.714,0,0,1-1.267.577H1.771a1.654,1.654,0,0,1-.684-.159A1.8,1.8,0,0,1,.51,3.345,2,2,0,0,1,.128,2.7,2.142,2.142,0,0,1,0,1.946Z" transform="translate(36.269 60.131) rotate(180)" fill="#d35400" fill-rule="evenodd"/>
    <path id="Path_3348" data-name="Path 3348" d="M37.665,0c5.206,0,9.422,4.633,9.422,10.354v31.04c0,5.7-4.215,10.331-9.422,10.331H26.094V47.787H37.686A5.588,5.588,0,0,0,41.8,45.9a6.754,6.754,0,0,0,1.7-4.529V10.331a6.75,6.75,0,0,0-1.718-4.522,5.584,5.584,0,0,0-4.121-1.871H9.422A5.585,5.585,0,0,0,5.293,5.817a6.753,6.753,0,0,0-1.71,4.537V22.539H0V10.354C0,4.633,4.215,0,9.422,0Z" transform="translate(48.452 74.03) rotate(180)" fill="#d35400" fill-rule="evenodd"/>
    <path id="Path_3349" data-name="Path 3349" d="M0,1.969C0,.88.611,0,1.349,0h5.9C7.988,0,8.6.88,8.6,1.969S7.988,3.938,7.251,3.938h-5.9C.611,3.938,0,3.058,0,1.969Zm0,9.706A1.885,1.885,0,0,1,1.792,9.706H6.808a1.714,1.714,0,0,1,1.267.577,2.109,2.109,0,0,1,0,2.784,1.714,1.714,0,0,1-1.267.577H1.792a1.652,1.652,0,0,1-.686-.15,1.791,1.791,0,0,1-.581-.427,1.993,1.993,0,0,1-.388-.639A2.141,2.141,0,0,1,0,11.675Z" transform="translate(21.979 50.449) rotate(180)" fill="#d35400" fill-rule="evenodd"/>
  </g>
</svg>
