<svg id="icon1" xmlns="http://www.w3.org/2000/svg" width="73.632" height="75" viewBox="0 0 73.632 75">
  <path id="Path_18" data-name="Path 18" d="M39.353,28.182H9.838a6.02,6.02,0,0,0-4.313,1.836,6.392,6.392,0,0,0-1.8,4.437V64.864a6.393,6.393,0,0,0,1.79,4.452,6.021,6.021,0,0,0,4.321,1.844H39.353a6.021,6.021,0,0,0,4.321-1.844,6.393,6.393,0,0,0,1.79-4.452V34.454A6.393,6.393,0,0,0,43.674,30a6.021,6.021,0,0,0-4.321-1.844ZM9.838,24.318A10,10,0,0,0,0,34.454V64.864A10,10,0,0,0,9.838,75H39.353a10,10,0,0,0,9.838-10.136V34.454a10,10,0,0,0-9.838-10.136Z" fill="#2980b9" fill-rule="evenodd"/>
  <path id="Path_19" data-name="Path 19" d="M34.257,3.864H63.772A6.02,6.02,0,0,1,68.085,5.7a6.393,6.393,0,0,1,1.8,4.437V40.546A6.393,6.393,0,0,1,68.093,45a6.021,6.021,0,0,1-4.321,1.844H51.684v3.841H63.772A9.986,9.986,0,0,0,73.61,40.546V10.136A10,10,0,0,0,63.772,0H34.257a10,10,0,0,0-9.838,10.136V22.091h3.75V10.136a6.394,6.394,0,0,1,1.782-4.444,6.022,6.022,0,0,1,4.306-1.852Z" fill="#2980b9" fill-rule="evenodd"/>
  <path id="Path_20" data-name="Path 20" d="M24.529,10.455A10.129,10.129,0,0,1,34.5.182H63.662a10.115,10.115,0,0,1,9.971,10.273V40.5a10.115,10.115,0,0,1-9.971,10.273H51.882V33.114l.375,2.159a2.216,2.216,0,0,0,.662,1.227,1.951,1.951,0,0,0,1.324.5h.618a2.13,2.13,0,0,0,1.324-.454,2.339,2.339,0,0,0,.728-1.227l3.9-19a1.17,1.17,0,0,0,.008-.582,1.146,1.146,0,0,0-.273-.509,1.225,1.225,0,0,0-.444-.391,1.184,1.184,0,0,0-.57-.132,1.979,1.979,0,0,0-1.235.454,1.9,1.9,0,0,0-.662,1.159L54.706,33.3v.023h-.044L51.728,16.409a1.991,1.991,0,0,0-.684-1.227,1.928,1.928,0,0,0-1.324-.477h-.75a1.928,1.928,0,0,0-1.324.477,2.2,2.2,0,0,0-.662,1.227l-1.1,6.318A9.678,9.678,0,0,0,42,21.886l-.949-5.5A1.967,1.967,0,0,0,39.088,14.7a1.243,1.243,0,0,0-1.037.523,1.427,1.427,0,0,0-.252.539,1.449,1.449,0,0,0-.013.6l1.125,5.5H24.529ZM48.243,24.227a9.906,9.906,0,0,1,2.713,3.614l-1.632-9.455h-.066ZM12.529,39.591A1.9,1.9,0,0,1,14.4,37.659H34.588a1.848,1.848,0,0,1,1.326.566,1.974,1.974,0,0,1,0,2.732,1.848,1.848,0,0,1-1.326.566H14.4a1.847,1.847,0,0,1-1.326-.566A1.962,1.962,0,0,1,12.529,39.591Zm0,10.2A1.9,1.9,0,0,1,14.4,47.864H34.588a1.848,1.848,0,0,1,1.326.566,1.974,1.974,0,0,1,0,2.732,1.848,1.848,0,0,1-1.326.566H14.4a1.847,1.847,0,0,1-1.326-.566A1.962,1.962,0,0,1,12.529,49.8Zm0,10.2A1.9,1.9,0,0,1,14.4,58.091H34.588a1.848,1.848,0,0,1,1.326.566,1.974,1.974,0,0,1,0,2.732,1.848,1.848,0,0,1-1.326.566H14.4a1.827,1.827,0,0,1-.717-.147,1.872,1.872,0,0,1-.608-.419,1.937,1.937,0,0,1-.406-.627,1.983,1.983,0,0,1-.143-.739Z" fill="#2980b9" fill-rule="evenodd"/>
</svg>
