<svg xmlns="http://www.w3.org/2000/svg" width="110" height="116" viewBox="0 0 110 116">
  <g id="Layer_1" data-name="Layer 1" transform="translate(-1.922 -0.129)">
    <path id="Path_4837" data-name="Path 4837" d="M34.547,116.129a10.072,10.072,0,0,1-5.387-2.714,9.341,9.341,0,0,1-2.579-6.794V87.187H9.388a6.827,6.827,0,0,1-5.48-1.953,6.731,6.731,0,0,1-1.951-5.449V47.673a6.788,6.788,0,0,1,2.032-5.528A6.886,6.886,0,0,1,9.6,40.252H26.791V9.544a8.944,8.944,0,0,1,6.5-9.091A10.111,10.111,0,0,1,36,.131H79.212A3.641,3.641,0,0,1,82.02,1.345q14.27,14.709,28.56,29.417a4.313,4.313,0,0,1,1.318,3.226q0,36.25,0,72.48a8.949,8.949,0,0,1-5.139,8.749,19.84,19.84,0,0,1-2.655.911Zm-3.42-28.943a5.412,5.412,0,0,0,0,.683v19.188A5.319,5.319,0,0,0,31.3,108.4a4.566,4.566,0,0,0,4.986,3.245h65.87a4.623,4.623,0,0,0,3.95-1.281,4.555,4.555,0,0,0,1.3-3.92V35.811H79.536c-3.037,0-3.553-.512-3.553-3.568V4.648H36.209c-3.458,0-5.139,1.708-5.139,5.181V40.252H68.4a6.943,6.943,0,0,1,5.659,1.97,6.844,6.844,0,0,1,1.983,5.622V79.6a6.806,6.806,0,0,1-1.966,5.638A6.9,6.9,0,0,1,68.4,87.187ZM38.9,82.708h29.42c2.483,0,3.152-.683,3.152-3.188V47.881c0-2.429-.707-3.132-3.095-3.132H9.445c-2.407,0-3.114.7-3.114,3.132v31.6c0,2.486.688,3.169,3.171,3.169Zm65.965-51.243L80.53,6.223V31.332Z" transform="translate(0 0)" fill="#fb0e0e"/>
    <path id="Path_4839" data-name="Path 4839" d="M36.95,61.964H7.416c-2.495,0-3.186-.691-3.186-3.2V26.806c0-2.456.71-3.166,3.128-3.166h59.2c2.4,0,3.109.71,3.109,3.166V58.74c0,2.533-.672,3.224-3.166,3.224Zm-5.911-9.231c3.378,0,6.659.173,9.922,0a6.179,6.179,0,0,0,5.2-3.972,13.433,13.433,0,0,0,.4-9.826,6.429,6.429,0,0,0-5.623-5.009c-3.2-.307-6.467-.154-9.71-.211l-.192.192ZM16.877,45.594h4.644c5.546-.173,6.909-4.3,6.026-7.964a4.836,4.836,0,0,0-4.529-3.838c-2.591-.154-5.2-.134-7.791-.192H13.077V52.906h3.838ZM63.855,33.638H50.71V52.829h3.838V44.673h7.964V41.43H54.605V36.843h9.25Z" transform="translate(2.121 20.868)" fill="#fb0e0e"/>
    <path id="Path_4840" data-name="Path 4840" d="M67.519,28.729H43.07V3.34Z" transform="translate(37.317 2.951)" fill="#fff"/>
    <path id="Path_4841" data-name="Path 4841" d="M18.2,47.961V29.039s.134-.192.192-.192c3.243,0,6.506-.1,9.71.211a6.429,6.429,0,0,1,5.623,5.047,13.433,13.433,0,0,1-.4,9.826,6.179,6.179,0,0,1-5.2,3.972C24.859,48.133,21.654,47.961,18.2,47.961Zm3.972-15.736V44.813c1.554,0,3.032.1,4.491,0a3.166,3.166,0,0,0,3.32-3.013,26.579,26.579,0,0,0,.192-5.661,3.838,3.838,0,0,0-3.4-3.838,40.779,40.779,0,0,0-4.606-.077Z" transform="translate(14.795 25.653)" fill="#fff"/>
    <path id="Path_4842" data-name="Path 4842" d="M12.658,40.843v7.312H8.82V28.81h2.264c2.591,0,5.2,0,7.791.192A4.836,4.836,0,0,1,23.4,32.84c.883,3.665-.48,7.791-6.026,7.964C15.805,40.881,14.328,40.843,12.658,40.843Zm0-3.147c1.67-.115,3.262-.134,4.817-.365a2.4,2.4,0,0,0,1.919-2.456,2.476,2.476,0,0,0-2.13-2.591c-1.535-.154-3.09,0-4.683,0Z" transform="translate(6.34 25.632)" fill="#fff"/>
    <path id="Path_4843" data-name="Path 4843" d="M41.586,28.85v3.2h-9.25v4.587h7.907v3.243H32.3v8.233H28.46V28.927Z" transform="translate(24.128 25.668)" fill="#fff"/>
    <path id="Path_4844" data-name="Path 4844" d="M20.27,30.631a40.78,40.78,0,0,1,4.606,0,3.838,3.838,0,0,1,3.4,3.838,26.579,26.579,0,0,1-.192,5.661,3.166,3.166,0,0,1-3.32,3.013c-1.458.115-2.936,0-4.491,0Z" transform="translate(16.691 27.251)" fill="#fb0e0e"/>
    <path id="Path_4845" data-name="Path 4845" d="M10.87,36.075v-5.45c1.593,0,3.147-.115,4.683,0a2.476,2.476,0,0,1,2.13,2.687,2.4,2.4,0,0,1-1.919,2.456C14.132,35.94,12.54,35.959,10.87,36.075Z" transform="translate(8.141 27.303)" fill="#fb0e0e"/>
  </g>
</svg>
