<svg xmlns="http://www.w3.org/2000/svg" xmlns:xlink="http://www.w3.org/1999/xlink" width="75" height="73" viewBox="0 0 75 73">
  <defs>
    <clipPath id="clip-path">
      <rect id="Rectangle_13" data-name="Rectangle 13" width="75" height="73" transform="translate(-0.25 -0.17)" fill="#fff"/>
    </clipPath>
  </defs>
  <g id="icon8" transform="translate(0.25 0.17)" clip-path="url(#clip-path)">
    <path id="Path_59" data-name="Path 59" d="M0,35.613a9.955,9.955,0,0,1,9.926-9.974H38.915a9.955,9.955,0,0,1,9.926,9.974v29.13a9.955,9.955,0,0,1-9.926,9.974H9.926A9.95,9.95,0,0,1,0,64.744Z" transform="translate(0 -2.057)" fill="#d35400"/>
    <path id="Path_60" data-name="Path 60" d="M22.353,43.642v7.706c0,.132.066.22.241.286a20.617,20.617,0,0,0,2.651.2,6.238,6.238,0,0,0,3.944-1.1,4.058,4.058,0,0,0,1.359-3.259A3.776,3.776,0,0,0,29.211,44.3a6.025,6.025,0,0,0-3.944-1.1,20.568,20.568,0,0,0-2.673.154A.266.266,0,0,0,22.353,43.642Zm-.482,18.121a1.575,1.575,0,0,1-2.717-1.145v-17.9a2.033,2.033,0,0,1,.438-1.255,1.641,1.641,0,0,1,1.183-.617c1.643-.154,3.243-.22,4.777-.22,2.673,0,4.689.55,6.07,1.717a5.839,5.839,0,0,1,2.06,4.844q0,7.167-8.129,7.156c-1.161,0-2.147-.044-2.98-.11-.153,0-.219.066-.219.22v6.165a1.545,1.545,0,0,1-.482,1.145Z" transform="translate(-1.537 -3.26)" fill="#fff"/>
    <path id="Path_61" data-name="Path 61" d="M36.2,3.743H65.557a6.084,6.084,0,0,1,6.07,6.1v29.5a6.084,6.084,0,0,1-6.07,6.077H53.527v3.743H65.579a9.81,9.81,0,0,0,9.773-9.842V9.82A9.81,9.81,0,0,0,65.557,0H36.2a9.806,9.806,0,0,0-9.751,9.842V21.424h3.725V9.842a6.084,6.084,0,0,1,6.048-6.1Z" transform="translate(-2.122)" fill="#d35400" fill-rule="evenodd"/>
    <path id="Path_62" data-name="Path 62" d="M40.166,16.213a1.856,1.856,0,0,1,1.841-1.85H62.1a1.872,1.872,0,0,1,0,3.743H42.007a1.858,1.858,0,0,1-1.311-.564,1.877,1.877,0,0,1-.53-1.33Z" transform="translate(-3.223 -1.153)" fill="#d35400" fill-rule="evenodd"/>
    <path id="Path_63" data-name="Path 63" d="M65.553,0a9.815,9.815,0,0,1,9.795,9.842v29.5a9.81,9.81,0,0,1-9.795,9.82H53.523V45.424H65.575a6.085,6.085,0,0,0,6.048-6.1V9.82a6.084,6.084,0,0,0-6.07-6.077H36.191a6.084,6.084,0,0,0-6.07,6.1V21.424H26.4V9.842A9.815,9.815,0,0,1,36.191,0Z" transform="translate(-2.118)" fill="#d35400" fill-rule="evenodd"/>
    <path id="Path_64" data-name="Path 64" d="M56.319,26.242c0-1.035.635-1.872,1.4-1.872h6.135c.767,0,1.4.837,1.4,1.872s-.635,1.872-1.4,1.872H57.721C56.954,28.113,56.319,27.277,56.319,26.242Zm0,9.226A1.865,1.865,0,0,1,58.181,33.6H63.4a1.872,1.872,0,0,1,0,3.743H58.181a1.858,1.858,0,0,1-1.317-.548,1.876,1.876,0,0,1-.546-1.323Z" transform="translate(-4.519 -1.956)" fill="#d35400" fill-rule="evenodd"/>
  </g>
</svg>
