<svg id="Layer_1" data-name="Layer 1" xmlns="http://www.w3.org/2000/svg" width="161.333" height="161.333" viewBox="0 0 161.333 161.333">
  <path id="Path_4402" data-name="Path 4402" d="M162.873,82.368A80.6,80.6,0,1,1,139,24.9,80.666,80.666,0,0,1,162.873,82.368Zm-22.787,39.023a69.877,69.877,0,1,0-115.553,0A79.6,79.6,0,0,1,82.276,97.261a79.8,79.8,0,0,1,57.811,24.131Z" transform="translate(-1.54 -1.558)" fill="#fff"/>
  <path id="Path_4404" data-name="Path 4404" d="M80.148,40.069A32.279,32.279,0,1,1,48.042,7.79,32.278,32.278,0,0,1,80.148,40.069Z" transform="translate(32.832 13.7)" fill="#fff"/>
</svg>
