<svg xmlns="http://www.w3.org/2000/svg" width="68.635" height="64.445" viewBox="0 0 68.635 64.445">
  <g id="quote" transform="translate(-0.525 -2.697)">
    <path id="Path_4695" data-name="Path 4695" d="M69.16,48.24c-.42,1.32-.82,2.66-1.28,4A20.85,20.85,0,0,1,49.12,65.92a48.72,48.72,0,0,1-7.73-.38c-3.36-.41-3.93-1.62-2.22-4.67a33,33,0,0,0,4.26-17.19,21.94,21.94,0,0,0-9.6-18c-3.28-2.38-3.45-2.64-2.41-6.59,1.57-6,5.51-10.33,9.78-14.43a2.56,2.56,0,0,1,2.38-.33,50.51,50.51,0,0,1,6.14,4.55c.19.17-.72,1.69-1.2,2.53-2.14,3.73-4.32,7.46-6.83,11.77,7.15-.84,12.79.72,17.83,4.4,4.69,3.43,8.11,7.74,9.19,13.62,0,.21.3.38.45.56Z" fill="#fff"/>
    <path id="Path_4696" data-name="Path 4696" d="M15.11,24.48c4.65.74,9.06.77,13,2.19,8.77,3.19,13.29,11.68,12.37,21.79-.52,5.65-2,11-6.48,14.82-6.92,6-18.33,4.81-25.27-2.2C.75,53-.54,43.33,1.21,32.78A52.12,52.12,0,0,1,10.9,9.55a34.07,34.07,0,0,1,5.32-5.21c2.93-2.48,6.14-1.79,9.21-.31,2.44,1.19,2.58,2.22.88,4.38-2.92,3.72-6,7.35-8.77,11.16a29.38,29.38,0,0,0-2.43,4.91Z" fill="#fff"/>
  </g>
</svg>
