<svg xmlns="http://www.w3.org/2000/svg" width="13" height="10" viewBox="0 0 13 10">
  <g id="rename" transform="translate(0 -6.71)">
    <path id="Path_4819" data-name="Path 4819" d="M0,9.449c.02-.073.035-.149.058-.225a1.169,1.169,0,0,1,1.115-.857H9.437V7.541a.835.835,0,0,0-.093,0H8.8a.417.417,0,0,1,0-.831h2.056a.393.393,0,0,1,.368.409.4.4,0,0,1-.376.419h-.628v.835h1.6a1.106,1.106,0,0,1,.843.366A1.334,1.334,0,0,1,13,9.658v4.091a1.318,1.318,0,0,1-.332.938,1.089,1.089,0,0,1-.855.366h-1.6v.825h.628a.369.369,0,0,1,.316.188.447.447,0,0,1,.028.393.361.361,0,0,1-.339.251H8.794a.417.417,0,0,1,0-.831h.64v-.825H1.274a1.183,1.183,0,0,1-1.26-1.06.188.188,0,0,0,0-.035Zm9.434,4.76V9.2H1.216c-.313,0-.455.159-.455.5v3.992c0,.365.139.517.469.517ZM10.213,9.2v5.008h1.581a.37.37,0,0,0,.333-.121.454.454,0,0,0,.11-.365V9.658a.436.436,0,0,0-.091-.315.361.361,0,0,0-.274-.139C11.331,9.195,10.778,9.2,10.213,9.2Z" fill="#3a3a3a"/>
  </g>
</svg>
