<svg xmlns="http://www.w3.org/2000/svg" width="152" height="152.078" viewBox="0 0 152 152.078">
  <g id="reset" transform="translate(0 -0.06)">
    <path id="Path_4408" data-name="Path 4408" d="M0,71.254c.374-2.788.612-5.576,1.156-8.33C6.46,36.2,21.555,16.855,46.681,6.146a75.07,75.07,0,0,1,82.006,15.232l1.292,1.156V14.272a4.692,4.692,0,0,1,9.044-1.666,6.8,6.8,0,0,1,.408,2.312v20.4a4.794,4.794,0,0,1-5.2,5.338h-20.4a4.76,4.76,0,1,1,0-9.486h10.846c-1.666-1.7-3.094-3.4-4.76-4.9A63.646,63.646,0,0,0,73.234,9.954c-27.777,1.632-47.871,15.368-58.546,40.9-10,23.8-6.256,46.817,9.86,67.182a62.592,62.592,0,0,0,43.077,23.8A64.6,64.6,0,0,0,124.641,121.2a63.511,63.511,0,0,0,17.272-36.957c.34-2.584.442-5.2.578-7.82a4.862,4.862,0,0,1,4.862-5.168,4.794,4.794,0,0,1,4.624,5.27,74.793,74.793,0,0,1-25.833,56.535A73.982,73.982,0,0,1,88.4,151.152c-2.516.442-5.066.68-7.616.986H71.4a11.563,11.563,0,0,1-1.156-.238,73.846,73.846,0,0,1-40.8-15.776A74.594,74.594,0,0,1,1.122,89.1C.646,86.384.374,83.63,0,80.91Z" transform="translate(0 0)" fill="#fff"/>
    <path id="Path_4410" data-name="Path 4410" d="M62.587,14.081H104.44A14.28,14.28,0,0,1,119.6,29.21V56.069A14.246,14.246,0,0,1,104.61,71.063H20.6A14.246,14.246,0,0,1,5.6,56.069v-27A14.246,14.246,0,0,1,20.6,14.081ZM43.582,42.64a9.486,9.486,0,1,0-2.838,6.7,9.486,9.486,0,0,0,2.838-6.7Zm18.972-9.554A9.486,9.486,0,1,0,69.3,35.84a9.486,9.486,0,0,0-6.751-2.754ZM100.6,42.5a9.486,9.486,0,1,0-2.754,6.751A9.52,9.52,0,0,0,100.6,42.5Z" transform="translate(13.401 33.578)" fill="#fff"/>
    <path id="Path_4411" data-name="Path 4411" d="M30.152,29.2a9.486,9.486,0,1,1-9.384-9.554A9.486,9.486,0,0,1,30.152,29.2Z" transform="translate(26.831 47.014)" fill="#537895"/>
    <path id="Path_4412" data-name="Path 4412" d="M29.012,19.65A9.486,9.486,0,1,1,19.56,29.2a9.486,9.486,0,0,1,9.452-9.554Z" transform="translate(46.942 47.014)" fill="#537895"/>
    <path id="Path_4413" data-name="Path 4413" d="M46.969,29.068a9.52,9.52,0,1,1-9.588-9.418,9.52,9.52,0,0,1,9.588,9.418Z" transform="translate(67.03 47.014)" fill="#537895"/>
  </g>
</svg>
