<svg xmlns="http://www.w3.org/2000/svg" width="12" height="14" viewBox="0 0 12 14">
  <g id="Layer_1" data-name="Layer 1" transform="translate(-5.497)">
    <path id="Path_4817" data-name="Path 4817" d="M15.482,0c.1.023.2.043.3.069a2.284,2.284,0,0,1,1.712,2.338,2.275,2.275,0,0,1-1.935,2.151,2.184,2.184,0,0,1-1.871-.609l-.123-.12L9.855,6.168a2.371,2.371,0,0,1,0,1.663l3.7,2.33c.075-.069.149-.14.227-.206a2.23,2.23,0,0,1,2.955.04,2.318,2.318,0,0,1,.381,2.977,2.236,2.236,0,0,1-2.847.806,2.3,2.3,0,0,1-1.191-2.748.167.167,0,0,0,.014-.145.163.163,0,0,0-.105-.1q-1.735-1.079-3.463-2.18a.133.133,0,0,0-.2.025,2.226,2.226,0,0,1-2.521.45A2.292,2.292,0,0,1,5.5,6.846,2.183,2.183,0,0,1,6.936,4.872a2.144,2.144,0,0,1,2.371.471l.1.094a.068.068,0,0,0,.019.01A.467.467,0,0,0,9.5,5.408l3.53-2.221a.121.121,0,0,0,.071-.072.123.123,0,0,0-.007-.1,2.318,2.318,0,0,1,.226-1.938A2.249,2.249,0,0,1,14.934.021.32.32,0,0,0,15,0Zm-.243,13.162a1.432,1.432,0,0,0,1.322-.9,1.471,1.471,0,0,0-.318-1.585,1.416,1.416,0,0,0-1.564-.306A1.455,1.455,0,0,0,13.8,11.72,1.44,1.44,0,0,0,15.239,13.162ZM13.8,2.292a1.455,1.455,0,0,0,.885,1.346A1.416,1.416,0,0,0,16.25,3.32a1.471,1.471,0,0,0,.306-1.588,1.429,1.429,0,0,0-2.753.56ZM6.32,6.994A1.432,1.432,0,1,0,7.762,5.546a1.414,1.414,0,0,0-1.018.418,1.459,1.459,0,0,0-.423,1.03Z" transform="translate(0)" fill="#3a3a3a"/>
  </g>
</svg>
