<svg xmlns="http://www.w3.org/2000/svg" width="15" height="18" viewBox="0 0 15 18">
  <path id="share" d="M17.978,0c.124.03.249.055.373.089a2.928,2.928,0,0,1,2.14,3.006A2.9,2.9,0,0,1,18.071,5.86a2.683,2.683,0,0,1-2.339-.783l-.154-.154L10.944,7.931a3.13,3.13,0,0,1,0,2.139l4.631,3c.093-.089.186-.18.283-.264a2.73,2.73,0,0,1,3.694.052,3.042,3.042,0,0,1,.476,3.827,2.752,2.752,0,0,1-3.558,1.037,2.994,2.994,0,0,1-1.488-3.533A.22.22,0,0,0,15,14a.206.206,0,0,0-.131-.128q-2.168-1.388-4.329-2.8a.163.163,0,0,0-.132-.044.167.167,0,0,0-.119.075,2.725,2.725,0,0,1-3.151.579A2.96,2.96,0,0,1,5.5,8.8,2.8,2.8,0,0,1,7.3,6.264a2.626,2.626,0,0,1,2.964.605l.121.121A.084.084,0,0,0,10.406,7a.577.577,0,0,0,.1-.049L14.913,4.1A.153.153,0,0,0,15,4.005a.163.163,0,0,0-.009-.13,3.055,3.055,0,0,1,.283-2.491A2.807,2.807,0,0,1,17.294.028.393.393,0,0,0,17.373,0Zm-.3,16.923a1.792,1.792,0,0,0,1.652-1.161,1.931,1.931,0,0,0-.4-2.038,1.734,1.734,0,0,0-1.955-.394,1.874,1.874,0,0,0-1.094,1.738A1.826,1.826,0,0,0,17.674,16.923ZM15.88,2.947a1.873,1.873,0,0,0,1.106,1.73,1.734,1.734,0,0,0,1.952-.409,1.932,1.932,0,0,0,.382-2.042A1.79,1.79,0,0,0,17.66,1.079a1.834,1.834,0,0,0-1.78,1.868ZM6.526,8.993a1.792,1.792,0,1,0,3.58.02A1.832,1.832,0,0,0,8.328,7.131a1.743,1.743,0,0,0-1.273.538A1.9,1.9,0,0,0,6.526,8.993Z" transform="translate(-5.497)" fill="#537895"/>
</svg>
