<svg id="star_yel" data-name="star yel" xmlns="http://www.w3.org/2000/svg" width="19.76" height="19" viewBox="0 0 19.76 19">
  <path id="Path_4779" data-name="Path 4779" d="M19.82,8.208C18.441,9.438,17.077,10.7,15.667,11.9a1.03,1.03,0,0,0-.36,1.184c.376,1.5.674,3.03,1.034,4.529.125.568.188,1.1-.345,1.468s-1.019.142-1.567-.142L10.48,16.492a.873.873,0,0,0-1.05,0c-1.348.852-2.7,1.689-4.106,2.446a1.869,1.869,0,0,1-1.395.126c-.58-.252-.5-.868-.36-1.436.36-1.578.674-3.156,1.066-4.734A.871.871,0,0,0,4.3,11.9C3.082,10.89,1.907,9.849.7,8.791.293,8.429-.052,8.066.152,7.466s.721-.742,1.285-.789c1.567-.142,3.134-.316,4.7-.426a.957.957,0,0,0,.925-.726c.58-1.452,1.222-2.888,1.834-4.34C9.1.665,9.383.27,9.994.27s.878.426,1.1.931c.6,1.452,1.238,2.888,1.818,4.355a.972.972,0,0,0,.956.71c1.567.095,3.009.284,4.513.379a1.752,1.752,0,0,1,1.473.789Z" transform="translate(-0.092 -0.27)" fill="#fec109"/>
</svg>
