<svg xmlns="http://www.w3.org/2000/svg" width="50.303" height="43.5" viewBox="0 0 50.303 43.5">
  <g id="Group_847" data-name="Group 847" transform="translate(-1509 -4752)">
    <g id="Rectangle_453" data-name="Rectangle 453" transform="translate(1509 4752)" fill="#537895" stroke="#537895" stroke-width="1">
      <rect width="50.303" height="43.5" rx="4" stroke="none"/>
      <rect x="0.5" y="0.5" width="49.303" height="42.5" rx="3.5" fill="none"/>
    </g>
    <g id="Layer_1" data-name="Layer 1" transform="translate(1524.967 4764.777)">
      <path id="Path_4490" data-name="Path 4490" d="M18.5,1.175c-.231,1.442-.483,2.878-.693,4.321-.438,3.082-.872,6.195-1.313,9.292-.128.893-.356,1.026-1.188.727-1.24-.438-2.5-.858-3.711-1.344a.864.864,0,0,0-1.264.388c-.641,1.023-1.353,2-2.079,2.958A2.479,2.479,0,0,1,7.476,18a2.749,2.749,0,0,1-.389-.905c-.046-1.271-.043-2.541,0-3.812a.829.829,0,0,0-.126-.607.763.763,0,0,0-.5-.33c-1.745-.591-3.468-1.226-5.182-1.862A3.229,3.229,0,0,1,.5,9.848c.219-.254.389-.6.66-.753Q9.041,4.765,16.947.457c.246-.14.474-.3.708-.457H18.5Zm-1.386,1.2c-2.9,3.247-5.66,6.354-8.48,9.505L15.415,14.3C15.977,10.357,16.53,6.474,17.114,2.379Zm-2.128.661-.079-.121L2.625,9.613c.058.073.079.133.116.146,1.477.537,2.954,1.08,4.441,1.588a.683.683,0,0,0,.568-.229c.66-.7,1.289-1.423,1.927-2.138ZM9.7,13.524l-1.45-.5v2.541Z" transform="translate(-0.5)" fill="#fff"/>
      <path id="Path_4491" data-name="Path 4491" d="M35.756,7.49c-.585,3.925-1.139,7.646-1.7,11.422L27.26,16.6C30.086,13.574,32.854,10.6,35.756,7.49Z" transform="translate(-19.144 -5.209)" fill="#537895"/>
      <path id="Path_4492" data-name="Path 4492" d="M19.865,9.306l-5.311,5.706c-.639.685-1.27,1.382-1.931,2.049a.7.7,0,0,1-.569.2c-1.489-.484-2.969-1-4.449-1.523-.037,0-.058-.07-.116-.14l12.3-6.413Z" transform="translate(-5.362 -6.164)" fill="#537895"/>
      <path id="Path_4493" data-name="Path 4493" d="M27.443,41.463,26,43.436V41Z" transform="translate(-18.25 -27.769)" fill="#ff8d29"/>
    </g>
  </g>
</svg>
