<svg xmlns="http://www.w3.org/2000/svg" width="47" height="47" viewBox="0 0 47 47">
  <path id="f02313a77b016e7301b40be45c03f589" d="M38.811,26.193h11.75a.849.849,0,0,1,.259.041.832.832,0,0,1,.259-.041c2.694,0,4.92,1.839,4.92,4.162a4.007,4.007,0,0,1-2.105,3.414A4,4,0,0,1,56,37.182a4.107,4.107,0,0,1-2.538,3.643,3.938,3.938,0,0,1,1.728,3.182,4.338,4.338,0,0,1-3.63,4.03.82.82,0,0,1-.452.135h-.559c-.081,0-.162,0-.245,0a.83.83,0,0,1-.092,0H49.7a3.77,3.77,0,0,1,1.141,2.665c0,2.323-2.225,4.162-4.922,4.162l-.058,0L45.8,55H29.233a9.2,9.2,0,0,1-7.267-3.669v.647a1.57,1.57,0,0,1-1.616,1.5H10.616A1.574,1.574,0,0,1,9,51.977V24.665a1.57,1.57,0,0,1,1.616-1.5H20.35a1.574,1.574,0,0,1,1.616,1.5V28.38q2.666-3.488,5.325-6.98c4.4-5.787,7.527-10.582,8.446-11.871,1.347-1.889,4.421-2.036,6.483-.4,2.337,1.85,2.687,6.037.663,10.3q-.663,1.345-1.449,2.632c-.113.186-.227.377-.347.572q-1.1,1.8-2.275,3.567Zm-1.243,1.49a.84.84,0,0,1-.86-.28.717.717,0,0,1-.036-.851c.049-.07.049-.07.248-.374l.606-.926q1.292-1.943,2.493-3.937c.6-1.013,1.078-1.866,1.382-2.508,1.757-3.7,1.5-7.159-.229-8.525-1.369-1.084-3.318-.991-4.087.088-.932,1.308-4.057,6.1-8.476,11.907q-3.11,4.086-6.23,8.165l-.413.541V47.16A7.323,7.323,0,0,0,29.4,53.5h16.52c1.865,0,3.339-1.217,3.339-2.667s-1.473-2.665-3.339-2.665h-4.13a.822.822,0,0,1-.563-.22.721.721,0,0,1,0-1.056.822.822,0,0,1,.562-.22h8.658a3.017,3.017,0,0,0,3.173-2.668,2.992,2.992,0,0,0-3.063-2.664H41.787a.822.822,0,0,1-.562-.22.72.72,0,0,1,0-1.055.823.823,0,0,1,.562-.22h8.385a.83.83,0,0,1,.13-.011q.174,0,.347.011h.429c1.865,0,3.339-1.217,3.339-2.667s-1.473-2.665-3.339-2.665H41.787a.822.822,0,0,1-.562-.22.721.721,0,0,1,0-1.056.822.822,0,0,1,.563-.22h9.291c1.865,0,3.339-1.217,3.339-2.665s-1.473-2.667-3.339-2.667a.867.867,0,0,0-.517,0H37.655a.848.848,0,0,1-.088,0ZM20.345,30.731V24.677s-3.241,0-9.724,0V51.966s3.241,0,9.724,0Z" transform="translate(-9 -7.998)" fill="#537895"/>
</svg>
