<svg xmlns="http://www.w3.org/2000/svg" width="16.835" height="16.418" viewBox="0 0 16.835 16.418">
  <g id="Layer_1" data-name="Layer 1" transform="translate(-9.742 -9.718)">
    <path id="Path_12" data-name="Path 12" d="M16.74,13.241v1.677a1.743,1.743,0,0,1-1.814,1.813h-3.37a1.745,1.745,0,0,1-1.812-1.815V11.545a1.746,1.746,0,0,1,1.814-1.811h3.37a1.745,1.745,0,0,1,1.812,1.815C16.742,12.111,16.74,12.678,16.74,13.241Z" transform="translate(0 -0.014)" fill="#ffb300"/>
    <path id="Path_13" data-name="Path 13" d="M62.3,13.214v1.694a1.743,1.743,0,0,1-1.793,1.807H57.1a1.742,1.742,0,0,1-1.793-1.782V11.509a1.742,1.742,0,0,1,1.782-1.793h3.424A1.741,1.741,0,0,1,62.305,11.5C62.3,12.072,62.3,12.635,62.3,13.214Z" transform="translate(-35.729 0.003)" fill="#fb0e0e"/>
    <path id="Path_14" data-name="Path 14" d="M16.74,58.771v1.677a1.743,1.743,0,0,1-1.814,1.812h-3.37a1.745,1.745,0,0,1-1.812-1.815v-3.37a1.745,1.745,0,0,1,1.816-1.812h3.369a1.745,1.745,0,0,1,1.812,1.813C16.742,57.641,16.74,58.206,16.74,58.771Z" transform="translate(0 -36.125)" fill="#6065f5"/>
    <path id="Path_15" data-name="Path 15" d="M58.783,62.262H57.089a1.743,1.743,0,0,1-1.8-1.806V57.068a1.741,1.741,0,0,1,1.8-1.8h3.389a1.74,1.74,0,0,1,1.8,1.793v3.389a1.741,1.741,0,0,1-1.8,1.813C59.913,62.264,59.357,62.262,58.783,62.262Z" transform="translate(-35.706 -36.127)" fill="#05c718"/>
  </g>
</svg>
