<svg xmlns="http://www.w3.org/2000/svg" width="15" height="15" viewBox="0 0 15 15">
  <g id="url" transform="translate(-0.114 -0.167)">
    <path id="Path_4859" data-name="Path 4859" d="M33.863,4.762c-.034.2-.063.389-.105.58A4.128,4.128,0,0,1,32.67,7.349c-.811.837-1.634,1.669-2.451,2.5-.024.024-.051.045-.109.1.018-.132.03-.227.043-.322a5.428,5.428,0,0,0-.182-2.392.316.316,0,0,1,.087-.355c.373-.375.742-.752,1.105-1.135a1.946,1.946,0,0,0,.485-2.064,1.924,1.924,0,0,0-1.6-1.369,1.859,1.859,0,0,0-1.691.531c-.935.939-1.855,1.894-2.772,2.849a1.957,1.957,0,0,0-.608,1.46,2.028,2.028,0,0,0,.969,1.7c.2.136.217.176.081.387a7.394,7.394,0,0,1-1.042,1.247.2.2,0,0,1-.308.022A4.1,4.1,0,0,1,22.9,7.432a4.163,4.163,0,0,1,1.275-3.477c.852-.856,1.671-1.748,2.545-2.579A4,4,0,0,1,30.979.411a4.062,4.062,0,0,1,2.828,3.323c.02.109.036.219.055.328Z" transform="translate(-18.749 0)" fill="#537895"/>
    <path id="Path_4860" data-name="Path 4860" d="M3.813,26.541c-.014.436-.041.862-.039,1.285A4.866,4.866,0,0,0,4,29.22a.306.306,0,0,1-.081.343c-.393.406-.789.791-1.168,1.2a2.028,2.028,0,0,0,.529,3.159,1.983,1.983,0,0,0,2.305-.284c.963-.959,1.9-1.942,2.839-2.926a1.912,1.912,0,0,0,.56-1.129,1.987,1.987,0,0,0-.935-1.963c-.221-.15-.233-.182-.109-.406a4.1,4.1,0,0,1,1.046-1.233.243.243,0,0,1,.333,0,4.13,4.13,0,0,1,1.738,2.79,4.055,4.055,0,0,1-.481,2.7,4.258,4.258,0,0,1-.584.775c-.772.811-1.555,1.622-2.344,2.415a6.954,6.954,0,0,1-.9.811A4.171,4.171,0,0,1,.182,32.729a4.087,4.087,0,0,1,1.1-3.6c.811-.858,1.644-1.687,2.467-2.526Z" transform="translate(0 -21.095)" fill="#537895"/>
  </g>
</svg>
