<svg id="icon2" xmlns="http://www.w3.org/2000/svg" width="73" height="75" viewBox="0 0 73 75">
  <path id="Path_25" data-name="Path 25" d="M0,34.659A10.115,10.115,0,0,1,9.971,24.386H39.132A10.129,10.129,0,0,1,49.1,34.659V64.7a10.129,10.129,0,0,1-9.971,10.273H9.971a9.824,9.824,0,0,1-7.05-3.009A10.433,10.433,0,0,1,0,64.7Z" fill="#2980b9"/>
  <path id="Path_26" data-name="Path 26" d="M17.669,59.114,13.787,40.182a1.451,1.451,0,0,1,.008-.61,1.428,1.428,0,0,1,.257-.549,1.244,1.244,0,0,1,.465-.4,1.2,1.2,0,0,1,.594-.124,1.811,1.811,0,0,1,1.257.5,1.75,1.75,0,0,1,.684,1.182l2.934,16.909c0,.023,0,.045.044.045v-.045L22.985,40.2a2.06,2.06,0,0,1,.687-1.231,1.95,1.95,0,0,1,1.3-.474h.772a2.014,2.014,0,0,1,1.963,1.7l2.956,16.886.022.045c.022,0,.044,0,.044-.045l2.934-16.977a1.726,1.726,0,0,1,.662-1.136,1.779,1.779,0,0,1,1.235-.455,1.171,1.171,0,0,1,.993.5,1.108,1.108,0,0,1,.265,1.091l-3.9,19a2.055,2.055,0,0,1-.75,1.227,2.013,2.013,0,0,1-1.3.454h-.618a1.951,1.951,0,0,1-1.323-.5,2.2,2.2,0,0,1-.662-1.2L25.324,42.2l-.022-.045c-.022,0-.044,0-.044.045L22.324,59.091a1.992,1.992,0,0,1-.662,1.2,1.951,1.951,0,0,1-1.324.5h-.618a2.084,2.084,0,0,1-2.074-1.7Z" transform="translate(-0.166)" fill="#fff"/>
  <path id="Path_27" data-name="Path 27" d="M39.353,28.182H9.838a6.02,6.02,0,0,0-4.313,1.836,6.392,6.392,0,0,0-1.8,4.437V64.864a6.393,6.393,0,0,0,1.79,4.452,6.021,6.021,0,0,0,4.321,1.844H39.353a6.021,6.021,0,0,0,4.321-1.844,6.393,6.393,0,0,0,1.79-4.452V34.454A6.393,6.393,0,0,0,43.674,30a6.021,6.021,0,0,0-4.321-1.844ZM9.838,24.318A10,10,0,0,0,0,34.454V64.864A10,10,0,0,0,9.838,75H39.353a10,10,0,0,0,9.838-10.136V34.454a10,10,0,0,0-9.838-10.136Z" fill="#2980b9" fill-rule="evenodd"/>
  <path id="Path_28" data-name="Path 28" d="M34.257,3.864H63.772A6.02,6.02,0,0,1,68.085,5.7a6.393,6.393,0,0,1,1.8,4.437V40.546A6.393,6.393,0,0,1,68.093,45a6.021,6.021,0,0,1-4.321,1.844H51.684V50.7H63.772A9.991,9.991,0,0,0,73.61,40.546V10.136A10,10,0,0,0,63.772,0H34.257a10,10,0,0,0-9.838,10.136V22.091h3.75V10.136a6.394,6.394,0,0,1,1.782-4.444,6.022,6.022,0,0,1,4.306-1.852Z" transform="translate(-0.61)" fill="#2980b9" fill-rule="evenodd"/>
  <path id="Path_29" data-name="Path 29" d="M37.125,15.545A1.9,1.9,0,0,1,39,13.614H59.184a1.848,1.848,0,0,1,1.326.566,1.974,1.974,0,0,1,0,2.732,1.848,1.848,0,0,1-1.326.566H39a1.827,1.827,0,0,1-.717-.147,1.872,1.872,0,0,1-.608-.419,1.938,1.938,0,0,1-.406-.627A1.983,1.983,0,0,1,37.125,15.545Z" transform="translate(-0.456)" fill="#2980b9" fill-rule="evenodd"/>
  <path id="Path_30" data-name="Path 30" d="M63.772,0A9.986,9.986,0,0,1,73.61,10.136V40.546a10,10,0,0,1-9.838,10.136H51.684V46.818H63.772a6.021,6.021,0,0,0,4.313-1.836,6.392,6.392,0,0,0,1.8-4.437V10.136a6.394,6.394,0,0,0-1.79-4.452,6.02,6.02,0,0,0-4.321-1.844H34.257a6.022,6.022,0,0,0-4.306,1.852,6.394,6.394,0,0,0-1.782,4.444V22.091h-3.75V10.136A10,10,0,0,1,34.257,0Z" transform="translate(-0.61)" fill="#2980b9" fill-rule="evenodd"/>
  <path id="Path_31" data-name="Path 31" d="M52.081,25.045c0-1.068.64-1.932,1.412-1.932h6.176c.772,0,1.39.864,1.39,1.932,0,1.045-.618,1.909-1.412,1.909H53.471C52.721,26.955,52.081,26.091,52.081,25.045Zm0,9.5a1.9,1.9,0,0,1,1.875-1.932h5.228a1.848,1.848,0,0,1,1.326.566,1.973,1.973,0,0,1,0,2.732,1.848,1.848,0,0,1-1.326.566H53.956a1.848,1.848,0,0,1-1.326-.566A1.962,1.962,0,0,1,52.081,34.546Z" transform="translate(-0.492)" fill="#2980b9" fill-rule="evenodd"/>
</svg>
