<svg id="favicon" xmlns="http://www.w3.org/2000/svg" width="31.628" height="31.628" viewBox="0 0 31.628 31.628">
  <path id="Path_3271" data-name="Path 3271" d="M21.527,23.2H13.083A11.631,11.631,0,0,1,4.695,3.5,11.34,11.34,0,0,1,12.854,0H28.537a3.146,3.146,0,0,1,3.12,3.171h0a3.146,3.146,0,0,1-3.12,3.171H13.015A5.192,5.192,0,0,0,9.127,7.993,5.367,5.367,0,0,0,7.7,12.021a5.211,5.211,0,0,0,5.156,4.836h8.668a.014.014,0,0,1,0,.013v6.314a.014.014,0,0,1,.005.013Z" transform="translate(-1.439)" fill="#3a3a3a"/>
  <path id="Path_3272" data-name="Path 3272" d="M25.295,54.738H9.841A3.146,3.146,0,0,1,6.72,51.566h0A3.146,3.146,0,0,1,9.841,48.4H25.363a5.2,5.2,0,0,0,3.886-1.653,5.371,5.371,0,0,0,1.43-4.027,5.214,5.214,0,0,0-5.156-4.835H16.856V31.54h8.667a11.34,11.34,0,0,1,8.16,3.5,11.631,11.631,0,0,1-8.389,19.7Z" transform="translate(-5.31 -23.11)" fill="#3a3a3a"/>
  <circle id="Ellipse_232" data-name="Ellipse 232" cx="3.963" cy="3.963" r="3.963" transform="translate(15.314 22.974) rotate(-76.63)" fill="#537895"/>
  <circle id="Ellipse_233" data-name="Ellipse 233" cx="3.963" cy="3.963" r="3.963" transform="translate(7.572 7.629)" fill="#537895"/>
</svg>
